{"glyphs":{"0":{"ha":979,"x_min":101,"x_max":879,"o":"m 285 0 l 101 197 l 101 768 l 294 965 l 685 965 l 879 768 l 879 197 l 693 0 l 285 0 m 451 779 l 633 226 l 683 264 l 683 703 l 588 779 l 451 779 m 390 185 l 529 185 l 347 738 l 297 703 l 297 264 l 390 185 z "},"1":{"ha":717,"x_min":81,"x_max":660,"o":"m 81 0 l 81 196 l 263 196 l 263 768 l 81 768 l 81 965 l 474 965 l 474 196 l 660 196 l 660 0 l 81 0 z "},"2":{"ha":975,"x_min":107,"x_max":868,"o":"m 107 0 l 107 390 l 290 532 l 582 532 l 667 596 l 667 706 l 575 782 l 396 782 l 306 706 l 306 618 l 107 618 l 107 781 l 286 965 l 690 965 l 868 781 l 868 524 l 688 375 l 396 375 l 313 313 l 313 196 l 851 196 l 851 0 l 107 0 z "},"3":{"ha":983,"x_min":97,"x_max":882,"o":"m 282 0 l 97 197 l 97 372 l 299 372 l 299 276 l 393 196 l 581 196 l 678 276 l 678 351 l 597 419 l 407 419 l 407 571 l 592 571 l 669 639 l 669 701 l 574 779 l 396 779 l 299 701 l 299 618 l 97 618 l 97 768 l 290 965 l 682 965 l 876 768 l 876 615 l 767 504 l 882 382 l 882 197 l 690 0 l 282 0 z "},"4":{"ha":954,"x_min":56,"x_max":899,"o":"m 571 0 l 571 192 l 56 192 l 56 358 l 565 965 l 775 965 l 775 358 l 899 358 l 899 192 l 775 192 l 775 0 l 571 0 m 571 667 l 278 358 l 571 358 l 571 667 z "},"5":{"ha":975,"x_min":107,"x_max":868,"o":"m 286 0 l 107 183 l 107 347 l 306 347 l 306 258 l 397 183 l 576 183 l 667 258 l 667 368 l 582 432 l 285 432 l 107 571 l 107 965 l 851 965 l 851 768 l 313 768 l 313 649 l 390 589 l 688 589 l 868 440 l 868 183 l 690 0 l 286 0 z "},"6":{"ha":982,"x_min":101,"x_max":881,"o":"m 275 0 l 101 183 l 101 781 l 283 965 l 679 965 l 872 768 l 872 628 l 671 628 l 671 714 l 579 786 l 394 786 l 307 717 l 307 558 l 708 558 l 881 385 l 881 174 l 715 0 l 275 0 m 679 239 l 679 336 l 599 400 l 307 400 l 307 246 l 392 175 l 601 175 l 679 239 z "},"7":{"ha":874,"x_min":83,"x_max":836,"o":"m 179 0 l 603 768 l 83 768 l 83 965 l 692 965 l 836 797 l 411 0 l 179 0 z "},"8":{"ha":1008,"x_min":101,"x_max":907,"o":"m 294 0 l 101 197 l 101 382 l 218 504 l 107 615 l 107 768 l 303 965 l 706 965 l 899 768 l 899 615 l 788 504 l 907 382 l 907 197 l 713 0 l 294 0 m 703 354 l 619 421 l 386 421 l 306 354 l 306 274 l 401 193 l 606 193 l 703 274 l 703 354 m 694 710 l 597 789 l 410 789 l 313 710 l 313 638 l 392 569 l 614 569 l 694 638 l 694 710 z "},"9":{"ha":982,"x_min":101,"x_max":881,"o":"m 707 965 l 881 782 l 881 185 l 699 0 l 303 0 l 110 197 l 110 338 l 311 338 l 311 251 l 403 179 l 588 179 l 674 249 l 674 407 l 274 407 l 101 581 l 101 792 l 267 965 l 707 965 m 301 726 l 301 629 l 382 565 l 674 565 l 674 719 l 590 790 l 381 790 l 301 726 z "},"\u0017":{"ha":411,"x_min":0,"x_max":0,"o":""}," ":{"ha":411,"x_min":0,"x_max":0,"o":""},"!":{"ha":435,"x_min":99,"x_max":336,"o":"m 144 274 l 99 965 l 336 965 l 292 274 l 144 274 m 113 0 l 113 189 l 321 189 l 321 0 l 113 0 z "},"\"":{"ha":744,"x_min":106,"x_max":639,"o":"m 106 560 m 136 560 l 106 965 l 321 965 l 289 560 l 136 560 m 454 560 l 424 965 l 639 965 l 607 560 l 454 560 z "},"#":{"ha":1028,"x_min":63,"x_max":967,"o":"m 246 0 l 246 229 l 63 229 l 63 375 l 246 375 l 246 589 l 63 589 l 63 733 l 246 733 l 246 965 l 400 965 l 400 733 l 628 733 l 628 965 l 785 965 l 785 733 l 967 733 l 967 589 l 785 589 l 785 375 l 967 375 l 967 229 l 785 229 l 785 0 l 628 0 l 628 229 l 400 229 l 400 0 l 246 0 m 400 375 l 628 375 l 628 589 l 400 589 l 400 375 z "},"$":{"ha":1069,"x_min":101,"x_max":968,"o":"m 406 -137 l 406 26 l 276 26 l 101 211 l 101 322 l 292 322 l 292 254 l 383 179 l 406 179 l 406 407 l 281 407 l 101 554 l 101 754 l 276 938 l 406 938 l 406 1075 l 471 1075 l 471 938 l 588 938 l 588 1075 l 653 1075 l 653 938 l 772 938 l 951 754 l 951 642 l 761 642 l 761 711 l 668 786 l 653 786 l 653 558 l 786 558 l 968 417 l 968 211 l 789 26 l 653 26 l 653 -137 l 588 -137 l 588 26 l 471 26 l 471 -137 l 406 -137 m 471 558 l 588 558 l 588 786 l 471 786 l 471 558 m 471 179 l 588 179 l 588 407 l 471 407 l 471 179 m 653 407 l 653 179 l 681 179 l 772 254 l 772 346 l 689 407 l 653 407 m 378 558 l 406 558 l 406 786 l 388 786 l 296 711 l 296 624 l 378 558 z "},"%":{"ha":1165,"x_min":26,"x_max":1139,"o":"m 26 0 m 131 435 l 26 543 l 26 857 l 135 965 l 349 965 l 456 857 l 456 543 l 354 435 l 131 435 m 332 589 l 332 822 l 283 863 l 199 863 l 150 822 l 150 589 l 199 547 l 285 547 l 332 589 m 182 0 l 824 965 l 985 965 l 339 0 l 182 0 m 814 0 l 710 108 l 710 422 l 818 531 l 1032 531 l 1139 422 l 1139 108 l 1038 0 l 814 0 m 1015 154 l 1015 388 l 967 428 l 882 428 l 833 388 l 833 154 l 882 113 l 968 113 l 1015 154 z "},"&":{"ha":1150,"x_min":65,"x_max":1100,"o":"m 851 0 l 738 108 l 647 0 l 219 0 l 65 160 l 65 449 l 279 546 l 186 636 l 186 858 l 293 965 l 692 965 l 799 860 l 799 640 l 564 519 l 717 371 l 853 518 l 1083 518 l 850 242 l 1100 0 l 851 0 m 554 193 l 599 242 l 397 433 l 271 368 l 271 247 l 339 193 l 554 193 m 376 701 l 454 626 l 613 699 l 613 788 l 572 818 l 415 818 l 376 786 l 376 701 z "},"'":{"ha":426,"x_min":106,"x_max":321,"o":"m 136 560 l 106 965 l 321 965 l 289 560 l 136 560 z "},"(":{"ha":622,"x_min":150,"x_max":575,"o":"m 353 -333 l 150 -150 l 150 1076 l 353 1260 l 575 1260 l 575 1115 l 406 1115 l 306 1036 l 306 -111 l 406 -189 l 575 -189 l 575 -333 l 353 -333 z "},")":{"ha":622,"x_min":47,"x_max":472,"o":"m 268 1258 l 472 1075 l 472 -151 l 268 -335 l 47 -335 l 47 -190 l 215 -190 l 317 -111 l 317 1036 l 215 1114 l 47 1114 l 47 1258 l 268 1258 z "},"*":{"ha":1028,"x_min":63,"x_max":967,"o":"m 675 121 l 514 357 l 354 119 l 236 181 l 399 419 l 63 419 l 63 543 l 399 543 l 236 782 l 354 843 l 514 607 l 675 844 l 792 781 l 631 543 l 967 543 l 967 419 l 631 419 l 792 179 l 675 121 z "},"+":{"ha":1028,"x_min":63,"x_max":967,"o":"m 593 410 l 593 97 l 436 97 l 436 410 l 63 410 l 63 554 l 436 554 l 436 869 l 593 869 l 593 554 l 967 554 l 967 410 l 593 410 z "},",":{"ha":421,"x_min":106,"x_max":315,"o":"m 135 -187 l 174 0 l 106 0 l 106 189 l 315 189 l 315 13 l 246 -187 l 135 -187 z "},"-":{"ha":692,"x_min":51,"x_max":639,"o":"m 51 372 l 51 551 l 639 551 l 639 372 l 51 372 z "},".":{"ha":421,"x_min":106,"x_max":315,"o":"m 106 0 l 106 189 l 315 189 l 315 0 l 106 0 z "},"/":{"ha":688,"x_min":0,"x_max":689,"o":"m 0 -235 l 522 1038 l 689 1038 l 167 -235 l 0 -235 z "},":":{"ha":474,"x_min":132,"x_max":342,"o":"m 132 151 m 132 151 l 132 340 l 342 340 l 342 151 l 132 151 m 132 542 l 132 731 l 342 731 l 342 542 l 132 542 z "},";":{"ha":474,"x_min":132,"x_max":342,"o":"m 132 0 m 161 -36 l 200 151 l 132 151 l 132 340 l 342 340 l 342 164 l 272 -36 l 161 -36 m 132 542 l 132 731 l 342 731 l 342 542 l 132 542 z "},"<":{"ha":1028,"x_min":63,"x_max":967,"o":"m 63 397 l 63 567 l 967 796 l 967 642 l 275 481 l 967 324 l 967 168 l 63 397 z "},"=":{"ha":1028,"x_min":63,"x_max":967,"o":"m 63 586 l 63 731 l 967 731 l 967 586 l 63 586 m 63 232 l 63 378 l 967 378 l 967 232 l 63 232 z "},">":{"ha":1028,"x_min":61,"x_max":965,"o":"m 965 567 l 965 397 l 61 168 l 61 322 l 754 483 l 61 640 l 61 796 l 965 567 z "},"?":{"ha":894,"x_min":63,"x_max":832,"o":"m 532 382 l 490 354 l 490 272 l 314 272 l 314 446 l 432 551 l 563 551 l 625 600 l 625 721 l 556 774 l 326 774 l 260 721 l 260 635 l 63 635 l 63 813 l 228 965 l 667 965 l 832 813 l 832 515 l 689 382 l 532 382 m 299 -1 l 299 188 l 507 188 l 507 -1 l 299 -1 z "},"@":{"ha":1079,"x_min":106,"x_max":972,"o":"m 258 -235 l 106 -101 l 106 736 l 226 849 l 861 849 l 972 749 l 972 72 l 835 72 l 835 119 l 782 72 l 554 72 l 444 174 l 444 467 l 554 568 l 769 568 l 826 524 l 826 653 l 786 685 l 338 685 l 288 646 l 288 -6 l 351 -54 l 972 -54 l 972 -235 l 258 -235 m 826 243 l 826 403 l 772 439 l 632 439 l 592 406 l 592 236 l 632 203 l 775 203 l 826 243 z "},"A":{"ha":896,"x_min":46,"x_max":850,"o":"m 636 0 l 600 140 l 294 140 l 258 0 l 46 0 l 294 965 l 601 965 l 850 0 l 636 0 m 333 294 l 561 294 l 447 740 l 333 294 z "},"B":{"ha":981,"x_min":115,"x_max":879,"o":"m 115 0 l 115 965 l 679 965 l 872 768 l 872 615 l 764 504 l 879 382 l 879 197 l 688 0 l 115 0 m 665 639 l 665 708 l 569 786 l 326 786 l 326 571 l 588 571 l 665 639 m 674 276 l 674 351 l 593 419 l 326 419 l 326 196 l 578 196 l 674 276 z "},"C":{"ha":975,"x_min":101,"x_max":875,"o":"m 285 0 l 101 197 l 101 768 l 294 965 l 682 965 l 875 768 l 875 613 l 674 613 l 674 692 l 579 768 l 404 768 l 307 692 l 307 275 l 404 196 l 579 196 l 674 275 l 674 378 l 875 378 l 875 197 l 690 0 l 285 0 z "},"D":{"ha":946,"x_min":115,"x_max":844,"o":"m 115 0 l 115 965 l 651 965 l 844 768 l 844 197 l 658 0 l 115 0 m 639 275 l 639 692 l 543 768 l 326 768 l 326 196 l 543 196 l 639 275 z "},"E":{"ha":849,"x_min":115,"x_max":767,"o":"m 115 0 l 115 965 l 767 965 l 767 768 l 326 768 l 326 578 l 606 578 l 606 413 l 326 413 l 326 196 l 767 196 l 767 0 l 115 0 z "},"F":{"ha":832,"x_min":115,"x_max":776,"o":"m 115 0 l 115 965 l 776 965 l 776 768 l 326 768 l 326 558 l 643 558 l 643 382 l 326 382 l 326 0 l 115 0 z "},"G":{"ha":975,"x_min":101,"x_max":875,"o":"m 285 0 l 101 197 l 101 768 l 294 965 l 682 965 l 875 768 l 875 613 l 675 613 l 675 706 l 581 783 l 399 783 l 306 706 l 306 263 l 399 185 l 594 185 l 685 257 l 685 378 l 471 378 l 471 531 l 875 531 l 875 186 l 700 0 l 285 0 z "},"H":{"ha":978,"x_min":115,"x_max":863,"o":"m 653 0 l 653 407 l 326 407 l 326 0 l 115 0 l 115 965 l 326 965 l 326 585 l 653 585 l 653 965 l 863 965 l 863 0 l 653 0 z "},"I":{"ha":443,"x_min":115,"x_max":326,"o":"m 115 0 l 115 965 l 326 965 l 326 0 l 115 0 z "},"J":{"ha":924,"x_min":54,"x_max":817,"o":"m 242 0 l 54 197 l 54 372 l 257 372 l 257 276 l 351 196 l 513 196 l 610 276 l 610 965 l 817 965 l 817 197 l 629 0 l 242 0 z "},"K":{"ha":953,"x_min":115,"x_max":897,"o":"m 668 0 l 457 463 l 326 304 l 326 0 l 115 0 l 115 965 l 326 965 l 326 611 l 633 965 l 872 965 l 608 646 l 897 0 l 668 0 z "},"L":{"ha":792,"x_min":115,"x_max":735,"o":"m 115 0 l 115 965 l 326 965 l 326 196 l 735 196 l 735 0 l 115 0 z "},"M":{"ha":1267,"x_min":115,"x_max":1150,"o":"m 946 0 l 946 547 l 713 0 l 554 0 l 319 547 l 319 0 l 115 0 l 115 965 l 361 965 l 633 297 l 906 965 l 1150 965 l 1150 0 l 946 0 z "},"N":{"ha":996,"x_min":115,"x_max":879,"o":"m 681 0 l 321 543 l 321 0 l 115 0 l 115 965 l 331 965 l 675 432 l 675 965 l 879 965 l 879 0 l 681 0 z "},"O":{"ha":979,"x_min":101,"x_max":879,"o":"m 285 0 l 101 197 l 101 768 l 294 965 l 685 965 l 879 768 l 879 197 l 693 0 l 285 0 m 672 275 l 672 692 l 576 768 l 404 768 l 307 692 l 307 275 l 401 196 l 579 196 l 672 275 z "},"P":{"ha":933,"x_min":115,"x_max":868,"o":"m 115 0 l 115 965 l 674 965 l 868 768 l 868 536 l 663 338 l 326 338 l 326 0 l 115 0 m 663 689 l 565 768 l 326 768 l 326 519 l 565 519 l 663 597 l 663 689 z "},"Q":{"ha":978,"x_min":101,"x_max":886,"o":"m 718 -176 l 572 0 l 285 0 l 101 197 l 101 768 l 294 965 l 685 965 l 879 768 l 879 197 l 765 76 l 886 -71 l 718 -176 m 672 275 l 672 692 l 576 768 l 404 768 l 307 692 l 307 275 l 401 196 l 579 196 l 672 275 z "},"R":{"ha":967,"x_min":115,"x_max":897,"o":"m 675 0 l 524 361 l 326 361 l 326 0 l 115 0 l 115 965 l 674 965 l 868 768 l 868 560 l 719 419 l 897 0 l 675 0 m 663 689 l 565 768 l 326 768 l 326 536 l 561 536 l 663 615 l 663 689 z "},"S":{"ha":975,"x_min":101,"x_max":875,"o":"m 276 0 l 101 183 l 101 322 l 297 322 l 297 247 l 389 174 l 583 174 l 674 249 l 674 346 l 592 410 l 281 410 l 101 557 l 101 781 l 276 965 l 682 965 l 860 781 l 860 642 l 664 642 l 664 715 l 571 792 l 393 792 l 301 717 l 301 626 l 386 563 l 694 563 l 875 421 l 875 183 l 699 0 l 276 0 z "},"T":{"ha":850,"x_min":54,"x_max":794,"o":"m 319 0 l 319 768 l 54 768 l 54 965 l 794 965 l 794 768 l 531 768 l 531 0 l 319 0 z "},"U":{"ha":978,"x_min":107,"x_max":871,"o":"m 275 0 l 107 178 l 107 965 l 315 965 l 315 272 l 397 201 l 583 201 l 665 272 l 665 965 l 871 965 l 871 178 l 704 0 l 275 0 z "},"V":{"ha":896,"x_min":46,"x_max":850,"o":"m 335 0 l 46 965 l 265 965 l 447 356 l 631 965 l 850 965 l 564 0 l 335 0 z "},"W":{"ha":1313,"x_min":51,"x_max":1261,"o":"m 800 0 l 653 638 l 508 0 l 213 0 l 51 965 l 261 965 l 375 281 l 526 965 l 786 965 l 939 281 l 1053 965 l 1261 965 l 1099 0 l 800 0 z "},"X":{"ha":953,"x_min":54,"x_max":897,"o":"m 54 0 l 354 506 l 82 965 l 313 965 l 482 688 l 660 965 l 872 965 l 597 500 l 897 0 l 665 0 l 469 314 l 268 0 l 54 0 z "},"Y":{"ha":925,"x_min":36,"x_max":888,"o":"m 364 0 l 364 431 l 36 965 l 267 965 l 464 651 l 658 965 l 888 965 l 575 433 l 575 0 l 364 0 z "},"Z":{"ha":883,"x_min":65,"x_max":819,"o":"m 206 0 l 65 167 l 554 768 l 99 768 l 99 965 l 678 965 l 819 799 l 329 196 l 792 196 l 792 0 l 206 0 z "},"[":{"ha":622,"x_min":150,"x_max":575,"o":"m 150 -333 l 150 1260 l 575 1260 l 575 1115 l 306 1115 l 306 -189 l 575 -189 l 575 -333 l 150 -333 z "},"\\":{"ha":690,"x_min":0,"x_max":690,"o":"m 522 -235 l 0 1038 l 168 1038 l 690 -235 l 522 -235 z "},"]":{"ha":622,"x_min":47,"x_max":472,"o":"m 472 1258 l 472 -335 l 47 -335 l 47 -190 l 317 -190 l 317 1114 l 47 1114 l 47 1258 l 472 1258 z "},"^":{"ha":1028,"x_min":71,"x_max":958,"o":"m 786 331 l 515 806 l 244 331 l 71 331 l 425 965 l 606 965 l 958 331 l 786 331 z "},"_":{"ha":804,"x_min":0,"x_max":810,"o":"m 0 -224 l 0 -79 l 810 -79 l 810 -224 l 0 -224 z "},"`":{"ha":600,"x_min":133,"x_max":472,"o":"m 297 779 l 133 1093 l 342 1093 l 472 779 l 297 779 z "},"a":{"ha":933,"x_min":81,"x_max":835,"o":"m 639 0 l 639 72 l 547 0 l 206 0 l 81 114 l 81 328 l 199 440 l 617 440 l 617 518 l 564 554 l 147 554 l 147 735 l 694 735 l 835 610 l 835 0 l 639 0 m 617 232 l 617 310 l 331 310 l 288 276 l 288 194 l 333 161 l 521 161 l 617 232 z "},"b":{"ha":946,"x_min":106,"x_max":854,"o":"m 394 0 l 301 72 l 301 0 l 106 0 l 106 965 l 315 965 l 315 663 l 407 735 l 689 735 l 854 585 l 854 149 l 689 0 l 394 0 m 644 240 l 644 494 l 578 543 l 400 543 l 315 488 l 315 247 l 400 190 l 578 190 l 644 240 z "},"c":{"ha":917,"x_min":92,"x_max":826,"o":"m 257 0 l 92 149 l 92 585 l 257 735 l 657 735 l 826 585 l 826 433 l 628 433 l 628 494 l 560 543 l 367 543 l 297 494 l 297 240 l 367 190 l 560 190 l 628 240 l 628 300 l 826 300 l 826 149 l 657 0 l 257 0 z "},"d":{"ha":946,"x_min":92,"x_max":839,"o":"m 643 0 l 643 72 l 550 0 l 257 0 l 92 149 l 92 585 l 257 735 l 538 735 l 631 663 l 631 965 l 839 965 l 839 0 l 643 0 m 631 247 l 631 488 l 546 543 l 368 543 l 301 494 l 301 240 l 368 190 l 546 190 l 631 247 z "},"e":{"ha":925,"x_min":92,"x_max":826,"o":"m 628 517 l 560 567 l 361 567 l 292 517 l 292 433 l 628 433 l 628 517 m 257 0 l 92 149 l 92 585 l 257 735 l 657 735 l 826 585 l 826 297 l 292 297 l 292 231 l 361 181 l 817 181 l 817 0 l 257 0 z "},"f":{"ha":664,"x_min":51,"x_max":611,"o":"m 178 0 l 178 554 l 51 554 l 51 735 l 178 735 l 178 899 l 319 1024 l 611 1024 l 611 851 l 439 851 l 385 814 l 385 735 l 611 735 l 611 554 l 385 554 l 385 0 l 178 0 z "},"g":{"ha":946,"x_min":92,"x_max":839,"o":"m 151 -235 l 151 -54 l 583 -54 l 636 -18 l 636 122 l 543 50 l 257 50 l 92 199 l 92 585 l 257 735 l 550 735 l 643 663 l 643 735 l 839 735 l 839 -110 l 699 -235 l 151 -235 m 631 292 l 631 488 l 546 543 l 368 543 l 301 494 l 301 285 l 368 235 l 546 235 l 631 292 z "},"h":{"ha":951,"x_min":106,"x_max":851,"o":"m 644 0 l 644 494 l 578 543 l 400 543 l 315 488 l 315 0 l 106 0 l 106 965 l 315 965 l 315 663 l 407 735 l 686 735 l 851 585 l 851 0 l 644 0 z "},"i":{"ha":421,"x_min":106,"x_max":315,"o":"m 106 0 m 106 0 l 106 735 l 315 735 l 315 0 l 106 0 m 106 835 l 106 1024 l 315 1024 l 315 835 l 106 835 z "},"j":{"ha":450,"x_min":-28,"x_max":343,"o":"m 0 0 m -28 -235 l -28 -54 l 82 -54 l 133 -18 l 133 735 l 342 735 l 342 -110 l 201 -235 l -28 -235 m 133 835 l 133 1024 l 343 1024 l 343 835 l 133 835 z "},"k":{"ha":942,"x_min":106,"x_max":893,"o":"m 664 0 l 468 361 l 315 217 l 315 0 l 106 0 l 106 965 l 315 965 l 315 483 l 621 735 l 865 735 l 621 504 l 893 0 l 664 0 z "},"l":{"ha":421,"x_min":106,"x_max":315,"o":"m 106 0 l 106 965 l 315 965 l 315 0 l 106 0 z "},"m":{"ha":1401,"x_min":106,"x_max":1301,"o":"m 1093 0 l 1093 494 l 1026 543 l 867 543 l 807 497 l 807 0 l 599 0 l 599 497 l 540 543 l 400 543 l 315 488 l 315 0 l 106 0 l 106 735 l 301 735 l 301 663 l 394 735 l 649 735 l 756 638 l 863 735 l 1136 735 l 1301 585 l 1301 0 l 1093 0 z "},"n":{"ha":951,"x_min":106,"x_max":851,"o":"m 644 0 l 644 494 l 578 543 l 400 543 l 315 488 l 315 0 l 106 0 l 106 735 l 301 735 l 301 663 l 394 735 l 686 735 l 851 585 l 851 0 l 644 0 z "},"o":{"ha":929,"x_min":92,"x_max":839,"o":"m 257 0 l 92 149 l 92 585 l 257 735 l 672 735 l 839 585 l 839 149 l 672 0 l 257 0 m 628 240 l 628 494 l 563 543 l 367 543 l 297 494 l 297 240 l 367 190 l 563 190 l 628 240 z "},"p":{"ha":946,"x_min":106,"x_max":854,"o":"m 644 240 l 644 494 l 578 543 l 400 543 l 315 488 l 315 247 l 400 190 l 578 190 l 644 240 m 407 0 l 315 72 l 315 -235 l 106 -235 l 106 735 l 301 735 l 301 663 l 394 735 l 689 735 l 854 585 l 854 149 l 689 0 l 407 0 z "},"q":{"ha":946,"x_min":92,"x_max":839,"o":"m 631 -235 l 631 72 l 538 0 l 257 0 l 92 149 l 92 585 l 257 735 l 550 735 l 643 663 l 643 735 l 839 735 l 839 -235 l 631 -235 m 631 247 l 631 488 l 546 543 l 368 543 l 301 494 l 301 240 l 368 190 l 546 190 l 631 247 z "},"r":{"ha":699,"x_min":106,"x_max":646,"o":"m 106 0 l 106 735 l 301 735 l 301 646 l 425 735 l 646 735 l 646 554 l 426 554 l 315 483 l 315 0 l 106 0 z "},"s":{"ha":856,"x_min":81,"x_max":776,"o":"m 94 0 l 94 181 l 524 181 l 579 215 l 579 258 l 521 300 l 235 300 l 81 411 l 81 610 l 221 735 l 750 735 l 750 554 l 336 554 l 279 521 l 279 476 l 340 436 l 624 436 l 776 324 l 776 125 l 636 0 l 94 0 z "},"t":{"ha":664,"x_min":51,"x_max":611,"o":"m 385 554 l 385 210 l 439 172 l 611 172 l 611 0 l 319 0 l 178 125 l 178 554 l 51 554 l 51 735 l 178 735 l 178 942 l 385 942 l 385 735 l 611 735 l 611 554 l 385 554 z "},"u":{"ha":951,"x_min":100,"x_max":844,"o":"m 649 0 l 649 75 l 554 0 l 265 0 l 100 149 l 100 735 l 307 735 l 307 240 l 374 190 l 549 190 l 636 250 l 636 735 l 844 735 l 844 0 l 649 0 z "},"v":{"ha":879,"x_min":36,"x_max":843,"o":"m 328 0 l 36 735 l 256 735 l 440 260 l 628 735 l 843 735 l 563 0 l 328 0 z "},"w":{"ha":1299,"x_min":35,"x_max":1264,"o":"m 796 0 l 644 499 l 497 0 l 210 0 l 35 735 l 250 735 l 367 231 l 521 735 l 776 735 l 932 231 l 1050 735 l 1264 735 l 1088 0 l 796 0 z "},"x":{"ha":971,"x_min":49,"x_max":924,"o":"m 49 0 l 356 386 l 78 735 l 319 735 l 493 529 l 672 735 l 894 735 l 615 381 l 924 0 l 678 0 l 478 235 l 271 0 l 49 0 z "},"y":{"ha":879,"x_min":36,"x_max":843,"o":"m 99 -235 l 99 -54 l 271 -54 l 329 -15 l 336 3 l 36 735 l 258 735 l 438 264 l 622 735 l 843 735 l 489 -110 l 350 -235 l 99 -235 z "},"z":{"ha":819,"x_min":51,"x_max":772,"o":"m 181 0 l 51 131 l 483 554 l 83 554 l 83 735 l 646 735 l 772 603 l 340 181 l 760 181 l 760 0 l 181 0 z "},"{":{"ha":622,"x_min":56,"x_max":575,"o":"m 382 -333 l 242 -211 l 242 338 l 174 392 l 56 392 l 56 532 l 174 532 l 242 589 l 242 1138 l 382 1260 l 575 1260 l 575 1115 l 460 1115 l 396 1067 l 396 546 l 301 463 l 396 381 l 396 -140 l 460 -189 l 575 -189 l 575 -333 l 382 -333 z "},"|":{"ha":589,"x_min":217,"x_max":371,"o":"m 217 -333 l 217 1260 l 371 1260 l 371 -333 l 217 -333 z "},"}":{"ha":622,"x_min":47,"x_max":567,"o":"m 240 1258 l 381 1136 l 381 588 l 449 533 l 567 533 l 567 393 l 449 393 l 381 336 l 381 -212 l 240 -335 l 47 -335 l 47 -190 l 163 -190 l 225 -142 l 225 379 l 321 463 l 225 544 l 225 1065 l 161 1114 l 47 1114 l 47 1258 l 240 1258 z "},"~":{"ha":1028,"x_min":63,"x_max":967,"o":"m 817 353 l 639 353 l 383 479 l 232 479 l 63 371 l 63 519 l 215 625 l 390 625 l 646 497 l 796 497 l 967 607 l 967 458 l 817 353 z "}," ":{"ha":411,"x_min":0,"x_max":0,"o":""},"¡":{"ha":435,"x_min":99,"x_max":336,"o":"m 290 475 l 336 -217 l 99 -217 l 143 475 l 290 475 m 322 749 l 322 560 l 114 560 l 114 749 l 322 749 z "},"¢":{"ha":1018,"x_min":92,"x_max":939,"o":"m 475 -137 l 475 26 l 257 26 l 92 181 l 92 783 l 257 938 l 475 938 l 475 1075 l 560 1075 l 560 938 l 771 938 l 939 783 l 939 629 l 742 629 l 742 693 l 672 746 l 560 746 l 560 218 l 672 218 l 742 272 l 742 335 l 939 335 l 939 181 l 771 26 l 560 26 l 560 -137 l 475 -137 m 368 218 l 475 218 l 475 746 l 368 746 l 297 693 l 297 272 l 368 218 z "},"£":{"ha":978,"x_min":69,"x_max":893,"o":"m 69 0 l 69 196 l 194 196 l 194 408 l 71 408 l 71 506 l 194 506 l 194 781 l 374 965 l 715 965 l 893 781 l 893 618 l 696 618 l 696 703 l 604 779 l 489 779 l 394 703 l 394 506 l 682 506 l 682 408 l 394 408 l 394 196 l 893 196 l 893 0 l 69 0 z "},"¤":{"ha":1028,"x_min":122,"x_max":904,"o":"m 793 150 l 693 232 l 333 232 l 233 150 l 124 251 l 222 332 l 211 343 l 211 621 l 221 629 l 122 711 l 232 814 l 332 732 l 693 732 l 793 814 l 904 711 l 808 632 l 821 621 l 821 343 l 807 331 l 903 251 l 793 150 m 668 408 l 668 556 l 621 596 l 414 596 l 363 556 l 363 408 l 414 368 l 621 368 l 668 408 z "},"¥":{"ha":925,"x_min":36,"x_max":888,"o":"m 364 0 l 364 154 l 89 154 l 89 274 l 364 274 l 364 389 l 89 389 l 89 508 l 315 508 l 36 965 l 267 965 l 464 651 l 658 965 l 888 965 l 618 508 l 828 508 l 828 389 l 575 389 l 575 274 l 828 274 l 828 154 l 575 154 l 575 0 l 364 0 z "},"¦":{"ha":589,"x_min":217,"x_max":371,"o":"m 217 603 l 217 1260 l 371 1260 l 371 603 l 217 603 m 217 -333 l 217 322 l 371 322 l 371 -333 l 217 -333 z "},"§":{"ha":999,"x_min":122,"x_max":875,"o":"m 311 -235 l 140 -69 l 140 56 l 329 56 l 329 -10 l 419 -79 l 592 -79 l 679 -10 l 679 83 l 618 128 l 297 128 l 122 254 l 122 471 l 189 536 l 122 590 l 122 799 l 294 965 l 686 965 l 858 799 l 858 676 l 668 676 l 668 740 l 579 808 l 406 808 l 319 740 l 319 649 l 375 601 l 701 601 l 875 478 l 875 258 l 804 193 l 875 140 l 875 -69 l 704 -235 l 311 -235 m 679 410 l 600 467 l 382 467 l 319 414 l 319 321 l 399 263 l 611 263 l 679 318 l 679 410 z "},"¨":{"ha":776,"x_min":106,"x_max":671,"o":"m 463 835 l 463 1024 l 671 1024 l 671 835 l 463 835 m 106 835 l 106 1024 l 315 1024 l 315 835 l 106 835 z "},"©":{"ha":1250,"x_min":101,"x_max":1151,"o":"m 496 193 l 382 311 l 382 656 l 503 774 l 740 774 l 858 656 l 858 561 l 740 561 l 740 611 l 681 658 l 565 658 l 504 611 l 504 357 l 565 307 l 681 307 l 740 357 l 740 419 l 858 419 l 858 311 l 746 193 l 496 193 m 285 0 l 101 197 l 101 768 l 294 965 l 956 965 l 1151 768 l 1151 193 l 964 0 l 285 0 m 1026 239 l 1026 725 l 896 850 l 354 850 l 224 725 l 224 239 l 346 114 l 904 114 l 1026 239 z "},"ª":{"ha":660,"x_min":97,"x_max":549,"o":"m 426 525 l 426 567 l 378 525 l 172 525 l 97 593 l 97 724 l 167 792 l 414 792 l 414 836 l 386 854 l 138 854 l 138 965 l 464 965 l 549 890 l 549 525 l 426 525 m 414 667 l 414 710 l 253 710 l 226 690 l 226 643 l 256 624 l 361 624 l 414 667 z "},"«":{"ha":746,"x_min":46,"x_max":701,"o":"m 46 0 m 222 0 l 46 367 l 222 735 l 388 735 l 211 367 l 388 0 l 222 0 m 536 0 l 360 367 l 536 735 l 701 735 l 525 367 l 701 0 l 536 0 z "},"¬":{"ha":1028,"x_min":63,"x_max":967,"o":"m 810 0 l 810 410 l 63 410 l 63 554 l 967 554 l 967 0 l 810 0 z "},"­":{"ha":692,"x_min":51,"x_max":639,"o":"m 51 372 m 51 372 l 51 551 l 639 551 l 639 372 l 51 372 z "},"®":{"ha":1250,"x_min":101,"x_max":1151,"o":"m 285 0 l 101 197 l 101 768 l 294 965 l 956 965 l 1151 768 l 1151 197 l 964 0 l 285 0 m 1026 239 l 1026 725 l 896 850 l 354 850 l 224 725 l 224 239 l 346 114 l 904 114 l 1026 239 m 747 193 l 651 411 l 522 411 l 522 193 l 396 193 l 396 774 l 743 774 l 861 656 l 861 529 l 769 444 l 879 193 l 747 193 m 740 610 l 678 660 l 522 660 l 522 513 l 675 513 l 740 563 l 740 610 z "},"¯":{"ha":919,"x_min":106,"x_max":813,"o":"m 106 849 l 106 994 l 813 994 l 813 849 l 106 849 z "},"°":{"ha":783,"x_min":86,"x_max":696,"o":"m 207 465 l 86 576 l 86 854 l 207 965 l 575 965 l 696 854 l 696 576 l 575 465 l 207 465 m 543 642 l 543 789 l 496 829 l 289 829 l 238 789 l 238 642 l 289 601 l 496 601 l 543 642 z "},"±":{"ha":1028,"x_min":63,"x_max":967,"o":"m 63 13 m 593 551 l 593 239 l 436 239 l 436 551 l 63 551 l 63 696 l 436 696 l 436 1011 l 593 1011 l 593 696 l 967 696 l 967 551 l 593 551 m 63 13 l 63 157 l 967 157 l 967 13 l 63 13 z "},"²":{"ha":607,"x_min":94,"x_max":511,"o":"m 94 435 m 94 435 l 94 651 l 194 731 l 353 731 l 392 763 l 392 824 l 346 863 l 258 863 l 213 824 l 213 775 l 94 775 l 94 864 l 193 965 l 415 965 l 511 864 l 511 719 l 413 639 l 257 639 l 218 607 l 218 547 l 503 547 l 503 435 l 94 435 z "},"³":{"ha":611,"x_min":88,"x_max":519,"o":"m 88 435 m 189 435 l 88 543 l 88 639 l 208 639 l 208 589 l 257 547 l 350 547 l 397 589 l 397 628 l 353 664 l 260 664 l 260 753 l 350 753 l 393 790 l 393 822 l 344 863 l 258 863 l 208 822 l 208 775 l 88 775 l 88 857 l 196 965 l 410 965 l 517 857 l 517 775 l 456 714 l 519 646 l 519 543 l 415 435 l 189 435 z "},"´":{"ha":599,"x_min":132,"x_max":464,"o":"m 132 779 l 258 1093 l 464 1093 l 301 779 l 132 779 z "},"¶":{"ha":1071,"x_min":65,"x_max":954,"o":"m 828 -235 l 828 851 l 590 851 l 590 -235 l 464 -235 l 464 419 l 224 419 l 65 575 l 65 810 l 218 965 l 954 965 l 954 -235 l 828 -235 m 464 851 l 282 851 l 190 764 l 190 613 l 285 525 l 464 525 l 464 851 z "},"·":{"ha":421,"x_min":106,"x_max":315,"o":"m 106 379 m 106 379 l 106 568 l 315 568 l 315 379 l 106 379 z "},"¸":{"ha":410,"x_min":103,"x_max":307,"o":"m 103 -389 l 103 -53 l 307 -53 l 236 -389 l 103 -389 z "},"¹":{"ha":322,"x_min":97,"x_max":224,"o":"m 97 435 m 97 435 l 97 965 l 224 965 l 224 435 l 97 435 z "},"º":{"ha":661,"x_min":96,"x_max":544,"o":"m 194 525 l 96 614 l 96 875 l 194 965 l 444 965 l 544 875 l 544 614 l 444 525 l 194 525 m 413 672 l 413 818 l 372 849 l 267 849 l 225 818 l 225 672 l 267 642 l 372 642 l 413 672 z "},"»":{"ha":747,"x_min":46,"x_max":701,"o":"m 46 0 m 46 0 l 222 367 l 46 735 l 208 735 l 388 367 l 208 0 l 46 0 m 360 0 l 536 367 l 360 735 l 522 735 l 701 367 l 522 0 l 360 0 z "},"¼":{"ha":1165,"x_min":131,"x_max":1032,"o":"m 131 0 m 210 435 l 210 965 l 336 965 l 336 435 l 210 435 m 131 0 l 772 965 l 933 965 l 288 0 l 131 0 m 843 0 l 843 111 l 571 111 l 571 207 l 843 531 l 967 531 l 967 207 l 1032 207 l 1032 111 l 967 111 l 967 0 l 843 0 m 843 357 l 706 207 l 843 207 l 843 357 z "},"½":{"ha":1165,"x_min":107,"x_max":1056,"o":"m 107 0 m 186 435 l 186 965 l 313 965 l 313 435 l 186 435 m 107 0 l 749 965 l 910 965 l 264 0 l 107 0 m 639 0 l 639 217 l 739 296 l 897 296 l 936 328 l 936 389 l 890 428 l 803 428 l 757 389 l 757 340 l 639 340 l 639 429 l 738 531 l 960 531 l 1056 429 l 1056 285 l 957 204 l 801 204 l 763 172 l 763 113 l 1047 113 l 1047 0 l 639 0 z "},"¾":{"ha":1165,"x_min":50,"x_max":1113,"o":"m 50 0 m 151 435 l 50 543 l 50 639 l 171 639 l 171 589 l 219 547 l 313 547 l 360 589 l 360 628 l 315 664 l 222 664 l 222 753 l 313 753 l 356 790 l 356 822 l 307 863 l 221 863 l 171 822 l 171 775 l 50 775 l 50 857 l 158 965 l 372 965 l 479 857 l 479 775 l 418 714 l 482 646 l 482 543 l 378 435 l 151 435 m 211 0 l 853 965 l 1014 965 l 368 0 l 211 0 m 924 0 l 924 111 l 651 111 l 651 207 l 924 531 l 1047 531 l 1047 207 l 1113 207 l 1113 111 l 1047 111 l 1047 0 l 924 0 m 924 357 l 786 207 l 924 207 l 924 357 z "},"¿":{"ha":894,"x_min":61,"x_max":831,"o":"m 361 365 l 403 393 l 403 475 l 579 475 l 579 301 l 461 196 l 331 196 l 268 147 l 268 26 l 338 -26 l 567 -26 l 633 26 l 633 113 l 831 113 l 831 -65 l 665 -218 l 226 -218 l 61 -65 l 61 232 l 204 365 l 361 365 m 594 749 l 594 560 l 386 560 l 386 749 l 594 749 z "},"À":{"ha":896,"x_min":46,"x_max":850,"o":"m 46 0 m 636 0 l 600 140 l 294 140 l 258 0 l 46 0 l 294 965 l 601 965 l 850 0 l 636 0 m 333 294 l 561 294 l 447 740 l 333 294 m 390 1000 l 229 1278 l 436 1278 l 565 1000 l 390 1000 z "},"Á":{"ha":896,"x_min":46,"x_max":850,"o":"m 46 0 m 636 0 l 600 140 l 294 140 l 258 0 l 46 0 l 294 965 l 601 965 l 850 0 l 636 0 m 333 294 l 561 294 l 447 740 l 333 294 m 328 1000 l 458 1278 l 665 1278 l 503 1000 l 328 1000 z "},"Â":{"ha":896,"x_min":46,"x_max":850,"o":"m 46 0 m 636 0 l 600 140 l 294 140 l 258 0 l 46 0 l 294 965 l 601 965 l 850 0 l 636 0 m 333 294 l 561 294 l 447 740 l 333 294 m 594 1000 l 447 1171 l 303 1000 l 133 1000 l 326 1278 l 569 1278 l 761 1000 l 594 1000 z "},"Ã":{"ha":896,"x_min":46,"x_max":850,"o":"m 46 0 m 636 0 l 600 140 l 294 140 l 258 0 l 46 0 l 294 965 l 601 965 l 850 0 l 636 0 m 333 294 l 561 294 l 447 740 l 333 294 m 632 1039 l 303 1110 l 186 1046 l 99 1147 l 264 1243 l 593 1171 l 718 1240 l 794 1135 l 632 1039 z "},"Ä":{"ha":896,"x_min":46,"x_max":850,"o":"m 46 0 m 636 0 l 600 140 l 294 140 l 258 0 l 46 0 l 294 965 l 601 965 l 850 0 l 636 0 m 333 294 l 561 294 l 447 740 l 333 294 m 521 1046 l 521 1214 l 728 1214 l 728 1046 l 521 1046 m 165 1046 l 165 1214 l 374 1214 l 374 1046 l 165 1046 z "},"Å":{"ha":896,"x_min":46,"x_max":850,"o":"m 46 0 m 636 0 l 600 140 l 294 140 l 258 0 l 46 0 l 294 965 l 601 965 l 850 0 l 636 0 m 333 294 l 561 294 l 447 740 l 333 294 m 575 996 l 322 996 l 238 1064 l 238 1210 l 322 1278 l 575 1278 l 658 1210 l 658 1064 l 575 996 m 546 1168 l 517 1192 l 381 1192 l 349 1168 l 349 1106 l 381 1082 l 517 1082 l 546 1106 l 546 1168 z "},"Æ":{"ha":1275,"x_min":46,"x_max":1193,"o":"m 553 0 l 553 140 l 294 140 l 258 0 l 46 0 l 297 965 l 1193 965 l 1193 768 l 764 768 l 764 578 l 1033 578 l 1033 413 l 764 413 l 764 196 l 1193 196 l 1193 0 l 553 0 m 333 294 l 553 294 l 553 768 l 454 768 l 333 294 z "},"Ç":{"ha":975,"x_min":101,"x_max":875,"o":"m 101 0 m 285 0 l 101 197 l 101 768 l 294 965 l 682 965 l 875 768 l 875 613 l 674 613 l 674 692 l 579 768 l 404 768 l 307 692 l 307 275 l 404 196 l 579 196 l 674 275 l 674 378 l 875 378 l 875 197 l 690 0 l 285 0 m 388 -389 l 388 -53 l 592 -53 l 521 -389 l 388 -389 z "},"È":{"ha":849,"x_min":115,"x_max":767,"o":"m 115 0 m 115 0 l 115 965 l 767 965 l 767 768 l 326 768 l 326 578 l 606 578 l 606 413 l 326 413 l 326 196 l 767 196 l 767 0 l 115 0 m 390 1000 l 229 1278 l 436 1278 l 565 1000 l 390 1000 z "},"É":{"ha":849,"x_min":115,"x_max":767,"o":"m 115 0 m 115 0 l 115 965 l 767 965 l 767 768 l 326 768 l 326 578 l 606 578 l 606 413 l 326 413 l 326 196 l 767 196 l 767 0 l 115 0 m 326 1000 l 457 1278 l 664 1278 l 501 1000 l 326 1000 z "},"Ê":{"ha":849,"x_min":115,"x_max":767,"o":"m 115 0 m 115 0 l 115 965 l 767 965 l 767 768 l 326 768 l 326 578 l 606 578 l 606 413 l 326 413 l 326 196 l 767 196 l 767 0 l 115 0 m 593 1000 l 446 1171 l 301 1000 l 132 1000 l 325 1278 l 568 1278 l 760 1000 l 593 1000 z "},"Ë":{"ha":849,"x_min":115,"x_max":767,"o":"m 115 0 m 115 0 l 115 965 l 767 965 l 767 768 l 326 768 l 326 578 l 606 578 l 606 413 l 326 413 l 326 196 l 767 196 l 767 0 l 115 0 m 519 1046 l 519 1214 l 726 1214 l 726 1046 l 519 1046 m 164 1046 l 164 1214 l 372 1214 l 372 1046 l 164 1046 z "},"Ì":{"ha":465,"x_min":8,"x_max":349,"o":"m 8 0 m 138 0 l 138 965 l 349 965 l 349 0 l 138 0 m 169 1000 l 8 1278 l 215 1278 l 344 1000 l 169 1000 z "},"Í":{"ha":458,"x_min":115,"x_max":458,"o":"m 115 0 m 115 0 l 115 965 l 326 965 l 326 0 l 115 0 m 121 1000 l 251 1278 l 458 1278 l 296 1000 l 121 1000 z "},"Î":{"ha":628,"x_min":0,"x_max":628,"o":"m 0 0 m 208 0 l 208 965 l 419 965 l 419 0 l 208 0 m 461 1000 l 314 1171 l 169 1000 l 0 1000 l 193 1278 l 436 1278 l 628 1000 l 461 1000 z "},"Ï":{"ha":563,"x_min":0,"x_max":563,"o":"m 0 0 m 175 0 l 175 965 l 386 965 l 386 0 l 175 0 m 356 1046 l 356 1214 l 563 1214 l 563 1046 l 356 1046 m 0 1046 l 0 1214 l 208 1214 l 208 1046 l 0 1046 z "},"Ð":{"ha":946,"x_min":7,"x_max":846,"o":"m 115 0 l 115 413 l 7 413 l 7 578 l 115 578 l 115 965 l 651 965 l 846 768 l 846 197 l 658 0 l 115 0 m 326 413 l 326 196 l 543 196 l 639 275 l 639 692 l 543 768 l 326 768 l 326 578 l 507 578 l 507 413 l 326 413 z "},"Ñ":{"ha":996,"x_min":115,"x_max":879,"o":"m 115 0 m 681 0 l 321 543 l 321 0 l 115 0 l 115 965 l 331 965 l 675 432 l 675 965 l 879 965 l 879 0 l 681 0 m 682 1039 l 353 1110 l 236 1046 l 149 1147 l 314 1243 l 643 1171 l 768 1240 l 844 1135 l 682 1039 z "},"Ò":{"ha":979,"x_min":101,"x_max":879,"o":"m 101 0 m 285 0 l 101 197 l 101 768 l 294 965 l 685 965 l 879 768 l 879 197 l 693 0 l 285 0 m 672 275 l 672 692 l 576 768 l 404 768 l 307 692 l 307 275 l 401 196 l 579 196 l 672 275 m 435 1000 l 274 1278 l 481 1278 l 610 1000 l 435 1000 z "},"Ó":{"ha":979,"x_min":101,"x_max":879,"o":"m 101 0 m 285 0 l 101 197 l 101 768 l 294 965 l 685 965 l 879 768 l 879 197 l 693 0 l 285 0 m 672 275 l 672 692 l 576 768 l 404 768 l 307 692 l 307 275 l 401 196 l 579 196 l 672 275 m 371 1000 l 501 1278 l 708 1278 l 546 1000 l 371 1000 z "},"Ô":{"ha":979,"x_min":101,"x_max":879,"o":"m 101 0 m 285 0 l 101 197 l 101 768 l 294 965 l 685 965 l 879 768 l 879 197 l 693 0 l 285 0 m 672 275 l 672 692 l 576 768 l 404 768 l 307 692 l 307 275 l 401 196 l 579 196 l 672 275 m 636 1000 l 489 1171 l 344 1000 l 175 1000 l 368 1278 l 611 1278 l 803 1000 l 636 1000 z "},"Õ":{"ha":979,"x_min":101,"x_max":879,"o":"m 101 0 m 285 0 l 101 197 l 101 768 l 294 965 l 685 965 l 879 768 l 879 197 l 693 0 l 285 0 m 672 275 l 672 692 l 576 768 l 404 768 l 307 692 l 307 275 l 401 196 l 579 196 l 672 275 m 674 1039 l 344 1110 l 228 1046 l 140 1147 l 306 1243 l 635 1171 l 760 1240 l 836 1135 l 674 1039 z "},"Ö":{"ha":979,"x_min":101,"x_max":879,"o":"m 101 0 m 285 0 l 101 197 l 101 768 l 294 965 l 685 965 l 879 768 l 879 197 l 693 0 l 285 0 m 672 275 l 672 692 l 576 768 l 404 768 l 307 692 l 307 275 l 401 196 l 579 196 l 672 275 m 563 1046 l 563 1214 l 769 1214 l 769 1046 l 563 1046 m 207 1046 l 207 1214 l 415 1214 l 415 1046 l 207 1046 z "},"×":{"ha":1028,"x_min":122,"x_max":904,"o":"m 793 150 l 514 379 l 233 150 l 124 251 l 403 481 l 122 711 l 232 814 l 514 583 l 793 814 l 904 711 l 625 481 l 903 251 l 793 150 z "},"Ø":{"ha":979,"x_min":71,"x_max":910,"o":"m 71 -6 l 167 128 l 101 197 l 101 768 l 294 965 l 686 965 l 739 910 l 822 1024 l 910 971 l 811 836 l 879 768 l 879 197 l 694 0 l 286 0 l 236 51 l 157 -58 l 71 -6 m 672 275 l 672 667 l 374 218 l 400 196 l 579 196 l 672 275 m 308 301 l 603 747 l 578 768 l 403 768 l 308 692 l 308 301 z "},"Ù":{"ha":978,"x_min":107,"x_max":871,"o":"m 107 0 m 275 0 l 107 178 l 107 965 l 315 965 l 315 272 l 397 201 l 583 201 l 665 272 l 665 965 l 871 965 l 871 178 l 704 0 l 275 0 m 433 1000 l 272 1278 l 479 1278 l 608 1000 l 433 1000 z "},"Ú":{"ha":978,"x_min":107,"x_max":871,"o":"m 107 0 m 275 0 l 107 178 l 107 965 l 315 965 l 315 272 l 397 201 l 583 201 l 665 272 l 665 965 l 871 965 l 871 178 l 704 0 l 275 0 m 371 1000 l 501 1278 l 708 1278 l 546 1000 l 371 1000 z "},"Û":{"ha":978,"x_min":107,"x_max":871,"o":"m 107 0 m 275 0 l 107 178 l 107 965 l 315 965 l 315 272 l 397 201 l 583 201 l 665 272 l 665 965 l 871 965 l 871 178 l 704 0 l 275 0 m 636 1000 l 489 1171 l 344 1000 l 175 1000 l 368 1278 l 611 1278 l 803 1000 l 636 1000 z "},"Ü":{"ha":978,"x_min":107,"x_max":871,"o":"m 107 0 m 275 0 l 107 178 l 107 965 l 315 965 l 315 272 l 397 201 l 583 201 l 665 272 l 665 965 l 871 965 l 871 178 l 704 0 l 275 0 m 563 1046 l 563 1214 l 769 1214 l 769 1046 l 563 1046 m 207 1046 l 207 1214 l 415 1214 l 415 1046 l 207 1046 z "},"Ý":{"ha":925,"x_min":36,"x_max":888,"o":"m 36 0 m 364 0 l 364 431 l 36 965 l 267 965 l 464 651 l 658 965 l 888 965 l 575 433 l 575 0 l 364 0 m 350 1000 l 481 1278 l 688 1278 l 525 1000 l 350 1000 z "},"Þ":{"ha":946,"x_min":115,"x_max":844,"o":"m 326 168 l 326 0 l 115 0 l 115 965 l 326 965 l 326 801 l 651 801 l 844 604 l 844 365 l 658 168 l 326 168 m 639 544 l 540 622 l 326 622 l 326 364 l 543 364 l 639 443 l 639 544 z "},"ß":{"ha":1168,"x_min":106,"x_max":1078,"o":"m 458 0 l 458 181 l 822 181 l 878 215 l 878 357 l 821 397 l 643 397 l 515 503 l 515 814 l 463 851 l 367 851 l 315 814 l 315 0 l 106 0 l 106 899 l 247 1024 l 581 1024 l 721 899 l 721 600 l 757 568 l 924 568 l 1078 454 l 1078 125 l 938 0 l 458 0 z "},"à":{"ha":933,"x_min":81,"x_max":835,"o":"m 81 0 m 639 0 l 639 72 l 547 0 l 206 0 l 81 114 l 81 328 l 199 440 l 617 440 l 617 518 l 564 554 l 147 554 l 147 735 l 694 735 l 835 610 l 835 0 l 639 0 m 617 232 l 617 310 l 331 310 l 288 276 l 288 194 l 333 161 l 521 161 l 617 232 m 407 779 l 243 1093 l 451 1093 l 582 779 l 407 779 z "},"á":{"ha":933,"x_min":81,"x_max":835,"o":"m 81 0 m 639 0 l 639 72 l 547 0 l 206 0 l 81 114 l 81 328 l 199 440 l 617 440 l 617 518 l 564 554 l 147 554 l 147 735 l 694 735 l 835 610 l 835 0 l 639 0 m 617 232 l 617 310 l 331 310 l 288 276 l 288 194 l 333 161 l 521 161 l 617 232 m 347 779 l 474 1093 l 679 1093 l 517 779 l 347 779 z "},"â":{"ha":933,"x_min":81,"x_max":835,"o":"m 81 0 m 639 0 l 639 72 l 547 0 l 206 0 l 81 114 l 81 328 l 199 440 l 617 440 l 617 518 l 564 554 l 147 554 l 147 735 l 694 735 l 835 610 l 835 0 l 639 0 m 617 232 l 617 310 l 331 310 l 288 276 l 288 194 l 333 161 l 521 161 l 617 232 m 614 779 l 465 974 l 321 779 l 151 779 l 346 1093 l 588 1093 l 779 779 l 614 779 z "},"ã":{"ha":932,"x_min":81,"x_max":835,"o":"m 81 0 m 639 0 l 639 72 l 547 0 l 206 0 l 81 114 l 81 328 l 199 440 l 617 440 l 617 518 l 564 554 l 147 554 l 147 735 l 694 735 l 835 610 l 835 0 l 639 0 m 617 232 l 617 310 l 331 310 l 288 276 l 288 194 l 333 161 l 521 161 l 617 232 m 649 828 l 321 906 l 204 835 l 118 949 l 282 1054 l 611 975 l 735 1054 l 813 935 l 649 828 z "},"ä":{"ha":933,"x_min":81,"x_max":835,"o":"m 81 0 m 639 0 l 639 72 l 547 0 l 206 0 l 81 114 l 81 328 l 199 440 l 617 440 l 617 518 l 564 554 l 147 554 l 147 735 l 694 735 l 835 610 l 835 0 l 639 0 m 617 232 l 617 310 l 331 310 l 288 276 l 288 194 l 333 161 l 521 161 l 617 232 m 535 835 l 535 1024 l 743 1024 l 743 835 l 535 835 m 178 835 l 178 1024 l 388 1024 l 388 835 l 178 835 z "},"å":{"ha":933,"x_min":81,"x_max":835,"o":"m 81 0 m 639 0 l 639 72 l 547 0 l 206 0 l 81 114 l 81 328 l 199 440 l 617 440 l 617 518 l 564 554 l 147 554 l 147 735 l 694 735 l 835 610 l 835 0 l 639 0 m 617 232 l 617 310 l 331 310 l 288 276 l 288 194 l 333 161 l 521 161 l 617 232 m 339 786 l 256 863 l 256 1054 l 339 1131 l 593 1131 l 675 1054 l 675 863 l 593 786 l 339 786 m 564 908 l 564 1008 l 532 1035 l 401 1035 l 367 1007 l 367 910 l 399 883 l 533 883 l 564 908 z "},"æ":{"ha":1468,"x_min":81,"x_max":1368,"o":"m 800 0 l 661 122 l 610 57 l 547 0 l 206 0 l 81 114 l 81 328 l 199 440 l 617 440 l 617 518 l 564 554 l 147 554 l 147 735 l 694 735 l 747 699 l 800 735 l 1201 735 l 1368 585 l 1368 297 l 835 297 l 835 231 l 904 181 l 1358 181 l 1358 0 l 800 0 m 617 232 l 617 310 l 331 310 l 288 276 l 288 194 l 333 161 l 521 161 l 617 232 m 1171 517 l 1104 567 l 904 567 l 835 517 l 835 433 l 1171 433 l 1171 517 z "},"ç":{"ha":917,"x_min":92,"x_max":826,"o":"m 92 0 m 257 0 l 92 149 l 92 585 l 257 735 l 657 735 l 826 585 l 826 433 l 628 433 l 628 494 l 560 543 l 367 543 l 297 494 l 297 240 l 367 190 l 560 190 l 628 240 l 628 300 l 826 300 l 826 149 l 657 0 l 257 0 m 358 -389 l 358 -53 l 563 -53 l 492 -389 l 358 -389 z "},"è":{"ha":925,"x_min":92,"x_max":826,"o":"m 92 0 m 628 517 l 560 567 l 361 567 l 292 517 l 292 433 l 628 433 l 628 517 m 257 0 l 92 149 l 92 585 l 257 735 l 657 735 l 826 585 l 826 297 l 292 297 l 292 231 l 361 181 l 817 181 l 817 0 l 257 0 m 407 779 l 243 1093 l 451 1093 l 582 779 l 407 779 z "},"é":{"ha":925,"x_min":92,"x_max":826,"o":"m 92 0 m 628 517 l 560 567 l 361 567 l 292 517 l 292 433 l 628 433 l 628 517 m 257 0 l 92 149 l 92 585 l 257 735 l 657 735 l 826 585 l 826 297 l 292 297 l 292 231 l 361 181 l 817 181 l 817 0 l 257 0 m 344 779 l 471 1093 l 676 1093 l 514 779 l 344 779 z "},"ê":{"ha":925,"x_min":92,"x_max":826,"o":"m 92 0 m 628 517 l 560 567 l 361 567 l 292 517 l 292 433 l 628 433 l 628 517 m 257 0 l 92 149 l 92 585 l 257 735 l 657 735 l 826 585 l 826 297 l 292 297 l 292 231 l 361 181 l 817 181 l 817 0 l 257 0 m 611 779 l 463 974 l 318 779 l 149 779 l 343 1093 l 585 1093 l 776 779 l 611 779 z "},"ë":{"ha":925,"x_min":92,"x_max":826,"o":"m 92 0 m 628 517 l 560 567 l 361 567 l 292 517 l 292 433 l 628 433 l 628 517 m 257 0 l 92 149 l 92 585 l 257 735 l 657 735 l 826 585 l 826 297 l 292 297 l 292 231 l 361 181 l 817 181 l 817 0 l 257 0 m 535 835 l 535 1024 l 743 1024 l 743 835 l 535 835 m 178 835 l 178 1024 l 388 1024 l 388 835 l 178 835 z "},"ì":{"ha":436,"x_min":0,"x_max":339,"o":"m 0 0 m 114 0 l 114 735 l 324 735 l 324 0 l 114 0 m 164 779 l 0 1093 l 208 1093 l 339 779 l 164 779 z "},"í":{"ha":439,"x_min":106,"x_max":438,"o":"m 106 0 m 106 0 l 106 735 l 315 735 l 315 0 l 106 0 m 106 779 l 232 1093 l 438 1093 l 275 779 l 106 779 z "},"î":{"ha":607,"x_min":-11,"x_max":617,"o":"m 0 0 m 197 0 l 197 735 l 407 735 l 407 0 l 197 0 m 451 779 l 303 974 l 158 779 l -11 779 l 183 1093 l 425 1093 l 617 779 l 451 779 z "},"ï":{"ha":575,"x_min":6,"x_max":571,"o":"m 6 0 m 183 0 l 183 735 l 393 735 l 393 0 l 183 0 m 363 835 l 363 1024 l 571 1024 l 571 835 l 363 835 m 6 835 l 6 1024 l 215 1024 l 215 835 l 6 835 z "},"ð":{"ha":946,"x_min":92,"x_max":839,"o":"m 194 725 l 290 844 l 156 844 l 156 1024 l 435 1024 l 528 1138 l 632 1138 l 539 1024 l 689 1024 l 839 893 l 839 149 l 672 0 l 257 0 l 92 149 l 92 515 l 257 664 l 590 664 l 657 614 l 657 796 l 593 844 l 394 844 l 299 725 l 194 725 m 628 240 l 628 424 l 563 475 l 365 475 l 297 424 l 297 240 l 368 190 l 563 190 l 628 240 z "},"ñ":{"ha":951,"x_min":106,"x_max":851,"o":"m 106 0 m 644 0 l 644 494 l 578 543 l 400 543 l 315 488 l 315 0 l 106 0 l 106 735 l 301 735 l 301 663 l 394 735 l 686 735 l 851 585 l 851 0 l 644 0 m 658 828 l 331 906 l 214 835 l 128 949 l 292 1054 l 621 975 l 744 1054 l 822 935 l 658 828 z "},"ò":{"ha":929,"x_min":92,"x_max":839,"o":"m 92 0 m 257 0 l 92 149 l 92 585 l 257 735 l 672 735 l 839 585 l 839 149 l 672 0 l 257 0 m 628 240 l 628 494 l 563 543 l 367 543 l 297 494 l 297 240 l 367 190 l 563 190 l 628 240 m 408 779 l 244 1093 l 453 1093 l 583 779 l 408 779 z "},"ó":{"ha":929,"x_min":92,"x_max":839,"o":"m 92 0 m 257 0 l 92 149 l 92 585 l 257 735 l 672 735 l 839 585 l 839 149 l 672 0 l 257 0 m 628 240 l 628 494 l 563 543 l 367 543 l 297 494 l 297 240 l 367 190 l 563 190 l 628 240 m 349 779 l 475 1093 l 681 1093 l 518 779 l 349 779 z "},"ô":{"ha":929,"x_min":92,"x_max":839,"o":"m 92 0 m 257 0 l 92 149 l 92 585 l 257 735 l 672 735 l 839 585 l 839 149 l 672 0 l 257 0 m 628 240 l 628 494 l 563 543 l 367 543 l 297 494 l 297 240 l 367 190 l 563 190 l 628 240 m 613 779 l 464 974 l 319 779 l 150 779 l 344 1093 l 586 1093 l 778 779 l 613 779 z "},"õ":{"ha":931,"x_min":92,"x_max":839,"o":"m 92 0 m 257 0 l 92 149 l 92 585 l 257 735 l 672 735 l 839 585 l 839 149 l 672 0 l 257 0 m 628 240 l 628 494 l 563 543 l 367 543 l 297 494 l 297 240 l 367 190 l 563 190 l 628 240 m 649 828 l 321 906 l 204 835 l 118 949 l 282 1054 l 611 975 l 735 1054 l 813 935 l 649 828 z "},"ö":{"ha":929,"x_min":92,"x_max":839,"o":"m 92 0 m 257 0 l 92 149 l 92 585 l 257 735 l 672 735 l 839 585 l 839 149 l 672 0 l 257 0 m 628 240 l 628 494 l 563 543 l 367 543 l 297 494 l 297 240 l 367 190 l 563 190 l 628 240 m 540 835 l 540 1024 l 749 1024 l 749 835 l 540 835 m 183 835 l 183 1024 l 393 1024 l 393 835 l 183 835 z "},"÷":{"ha":1028,"x_min":63,"x_max":967,"o":"m 63 69 m 63 410 l 63 554 l 967 554 l 967 410 l 63 410 m 410 707 l 410 896 l 619 896 l 619 707 l 410 707 m 410 69 l 410 258 l 619 258 l 619 69 l 410 69 z "},"ø":{"ha":929,"x_min":56,"x_max":874,"o":"m 56 0 l 144 100 l 92 149 l 92 585 l 257 735 l 672 735 l 717 694 l 801 788 l 874 731 l 786 632 l 839 585 l 839 149 l 672 0 l 257 0 l 214 39 l 128 -57 l 56 0 m 297 240 l 564 542 l 563 543 l 367 543 l 297 494 l 297 240 m 628 240 l 628 474 l 371 190 l 563 190 l 628 240 z "},"ù":{"ha":951,"x_min":100,"x_max":844,"o":"m 100 0 m 649 0 l 649 75 l 554 0 l 265 0 l 100 149 l 100 735 l 307 735 l 307 240 l 374 190 l 549 190 l 636 250 l 636 735 l 844 735 l 844 0 l 649 0 m 419 779 l 256 1093 l 464 1093 l 594 779 l 419 779 z "},"ú":{"ha":951,"x_min":100,"x_max":844,"o":"m 100 0 m 649 0 l 649 75 l 554 0 l 265 0 l 100 149 l 100 735 l 307 735 l 307 240 l 374 190 l 549 190 l 636 250 l 636 735 l 844 735 l 844 0 l 649 0 m 358 779 l 485 1093 l 690 1093 l 528 779 l 358 779 z "},"û":{"ha":951,"x_min":100,"x_max":844,"o":"m 100 0 m 649 0 l 649 75 l 554 0 l 265 0 l 100 149 l 100 735 l 307 735 l 307 240 l 374 190 l 549 190 l 636 250 l 636 735 l 844 735 l 844 0 l 649 0 m 624 779 l 475 974 l 331 779 l 161 779 l 356 1093 l 597 1093 l 789 779 l 624 779 z "},"ü":{"ha":951,"x_min":100,"x_max":844,"o":"m 100 0 m 649 0 l 649 75 l 554 0 l 265 0 l 100 149 l 100 735 l 307 735 l 307 240 l 374 190 l 549 190 l 636 250 l 636 735 l 844 735 l 844 0 l 649 0 m 549 835 l 549 1024 l 757 1024 l 757 835 l 549 835 m 192 835 l 192 1024 l 401 1024 l 401 835 l 192 835 z "},"ý":{"ha":879,"x_min":36,"x_max":843,"o":"m 36 0 m 99 -235 l 99 -54 l 271 -54 l 329 -15 l 336 3 l 36 735 l 258 735 l 438 264 l 622 735 l 843 735 l 489 -110 l 350 -235 l 99 -235 m 331 779 l 457 1093 l 663 1093 l 500 779 l 331 779 z "},"þ":{"ha":946,"x_min":106,"x_max":854,"o":"m 407 0 l 315 72 l 315 -235 l 106 -235 l 106 965 l 315 965 l 315 663 l 407 735 l 689 735 l 854 585 l 854 149 l 689 0 l 407 0 m 644 240 l 644 494 l 578 543 l 400 543 l 315 488 l 315 247 l 400 190 l 578 190 l 644 240 z "},"ÿ":{"ha":879,"x_min":36,"x_max":843,"o":"m 36 0 m 99 -235 l 99 -54 l 271 -54 l 329 -15 l 336 3 l 36 735 l 258 735 l 438 264 l 622 735 l 843 735 l 489 -110 l 350 -235 l 99 -235 m 514 835 l 514 1024 l 722 1024 l 722 835 l 514 835 m 157 835 l 157 1024 l 367 1024 l 367 835 l 157 835 z "},"Ā":{"ha":896,"x_min":46,"x_max":850,"o":"m 46 0 m 636 0 l 600 140 l 294 140 l 258 0 l 46 0 l 294 965 l 601 965 l 850 0 l 636 0 m 333 294 l 561 294 l 447 740 l 333 294 m 93 1061 l 93 1189 l 801 1189 l 801 1061 l 93 1061 z "},"ā":{"ha":933,"x_min":81,"x_max":835,"o":"m 81 0 m 639 0 l 639 72 l 547 0 l 206 0 l 81 114 l 81 328 l 199 440 l 617 440 l 617 518 l 564 554 l 147 554 l 147 735 l 694 735 l 835 610 l 835 0 l 639 0 m 617 232 l 617 310 l 331 310 l 288 276 l 288 194 l 333 161 l 521 161 l 617 232 m 113 849 l 113 994 l 819 994 l 819 849 l 113 849 z "},"Ă":{"ha":896,"x_min":46,"x_max":850,"o":"m 46 0 m 636 0 l 600 140 l 294 140 l 258 0 l 46 0 l 294 965 l 601 965 l 850 0 l 636 0 m 333 294 l 561 294 l 447 740 l 333 294 m 626 1008 l 265 1008 l 150 1104 l 150 1278 l 296 1278 l 296 1172 l 339 1143 l 556 1143 l 597 1172 l 597 1278 l 746 1278 l 746 1104 l 626 1008 z "},"ă":{"ha":933,"x_min":81,"x_max":835,"o":"m 81 0 m 639 0 l 639 72 l 547 0 l 206 0 l 81 114 l 81 328 l 199 440 l 617 440 l 617 518 l 564 554 l 147 554 l 147 735 l 694 735 l 835 610 l 835 0 l 639 0 m 617 232 l 617 310 l 331 310 l 288 276 l 288 194 l 333 161 l 521 161 l 617 232 m 282 794 l 167 903 l 167 1093 l 314 1093 l 314 979 l 357 946 l 571 946 l 615 979 l 615 1093 l 764 1093 l 764 903 l 644 794 l 282 794 z "},"Ą":{"ha":896,"x_min":46,"x_max":872,"o":"m 558 -389 l 417 -260 l 646 -69 l 597 140 l 296 140 l 258 0 l 46 0 l 294 965 l 601 965 l 850 0 l 654 -174 l 701 -210 l 872 -210 l 872 -389 l 558 -389 m 325 294 l 558 294 l 447 740 l 325 294 z "},"ą":{"ha":933,"x_min":81,"x_max":856,"o":"m 543 -389 l 400 -260 l 639 -61 l 639 72 l 547 0 l 206 0 l 81 114 l 81 328 l 199 440 l 617 440 l 617 518 l 564 554 l 147 554 l 147 735 l 694 735 l 835 610 l 835 0 l 638 -174 l 686 -210 l 856 -210 l 856 -389 l 543 -389 m 617 232 l 617 310 l 331 310 l 288 276 l 288 194 l 333 161 l 521 161 l 617 232 z "},"Ć":{"ha":975,"x_min":101,"x_max":875,"o":"m 101 0 m 285 0 l 101 197 l 101 768 l 294 965 l 682 965 l 875 768 l 875 613 l 674 613 l 674 692 l 579 768 l 404 768 l 307 692 l 307 275 l 404 196 l 579 196 l 674 275 l 674 378 l 875 378 l 875 197 l 690 0 l 285 0 m 372 1000 l 503 1278 l 710 1278 l 547 1000 l 372 1000 z "},"ć":{"ha":917,"x_min":92,"x_max":826,"o":"m 92 0 m 257 0 l 92 149 l 92 585 l 257 735 l 657 735 l 826 585 l 826 433 l 628 433 l 628 494 l 560 543 l 367 543 l 297 494 l 297 240 l 367 190 l 560 190 l 628 240 l 628 300 l 826 300 l 826 149 l 657 0 l 257 0 m 346 779 l 472 1093 l 678 1093 l 515 779 l 346 779 z "},"Ċ":{"ha":975,"x_min":101,"x_max":875,"o":"m 101 0 m 285 0 l 101 197 l 101 768 l 294 965 l 682 965 l 875 768 l 875 613 l 674 613 l 674 692 l 579 768 l 404 768 l 307 692 l 307 275 l 404 196 l 579 196 l 674 275 l 674 378 l 875 378 l 875 197 l 690 0 l 285 0 m 385 1046 l 385 1214 l 593 1214 l 593 1046 l 385 1046 z "},"ċ":{"ha":917,"x_min":92,"x_max":826,"o":"m 92 0 m 257 0 l 92 149 l 92 585 l 257 735 l 657 735 l 826 585 l 826 433 l 628 433 l 628 494 l 560 543 l 367 543 l 297 494 l 297 240 l 367 190 l 560 190 l 628 240 l 628 300 l 826 300 l 826 149 l 657 0 l 257 0 m 360 835 l 360 1024 l 569 1024 l 569 835 l 360 835 z "},"Č":{"ha":975,"x_min":101,"x_max":875,"o":"m 101 0 m 285 0 l 101 197 l 101 768 l 294 965 l 682 965 l 875 768 l 875 613 l 674 613 l 674 692 l 579 768 l 404 768 l 307 692 l 307 275 l 404 196 l 579 196 l 674 275 l 674 378 l 875 378 l 875 197 l 690 0 l 285 0 m 369 1001 l 175 1279 l 344 1279 l 490 1107 l 636 1279 l 803 1279 l 611 1001 l 369 1001 z "},"č":{"ha":917,"x_min":92,"x_max":826,"o":"m 92 0 m 257 0 l 92 149 l 92 585 l 257 735 l 657 735 l 826 585 l 826 433 l 628 433 l 628 494 l 560 543 l 367 543 l 297 494 l 297 240 l 367 190 l 560 190 l 628 240 l 628 300 l 826 300 l 826 149 l 657 0 l 257 0 m 343 781 l 149 1094 l 318 1094 l 465 899 l 611 1094 l 776 1094 l 586 781 l 343 781 z "},"Ď":{"ha":946,"x_min":115,"x_max":844,"o":"m 115 0 m 115 0 l 115 965 l 651 965 l 844 768 l 844 197 l 658 0 l 115 0 m 639 275 l 639 692 l 543 768 l 326 768 l 326 196 l 543 196 l 639 275 m 329 1001 l 135 1279 l 304 1279 l 450 1107 l 596 1279 l 763 1279 l 571 1001 l 329 1001 z "},"ď":{"ha":1058,"x_min":92,"x_max":1119,"o":"m 92 0 m 643 0 l 643 72 l 550 0 l 257 0 l 92 149 l 92 585 l 257 735 l 538 735 l 631 663 l 631 965 l 839 965 l 839 0 l 643 0 m 631 247 l 631 488 l 546 543 l 368 543 l 301 494 l 301 240 l 368 190 l 546 190 l 631 247 m 915 707 l 915 1043 l 1119 1043 l 1049 707 l 915 707 z "},"Đ":{"ha":946,"x_min":7,"x_max":846,"o":"m 7 0 m 115 0 l 115 413 l 7 413 l 7 578 l 115 578 l 115 965 l 651 965 l 846 768 l 846 197 l 658 0 l 115 0 m 326 413 l 326 196 l 543 196 l 639 275 l 639 692 l 543 768 l 326 768 l 326 578 l 507 578 l 507 413 l 326 413 z "},"đ":{"ha":946,"x_min":92,"x_max":946,"o":"m 643 0 l 643 72 l 550 0 l 257 0 l 92 149 l 92 585 l 257 735 l 538 735 l 631 663 l 631 849 l 239 849 l 239 994 l 946 994 l 946 849 l 839 849 l 839 0 l 643 0 m 631 247 l 631 488 l 546 543 l 368 543 l 301 494 l 301 240 l 368 190 l 546 190 l 631 247 z "},"Ē":{"ha":849,"x_min":93,"x_max":801,"o":"m 93 0 m 115 0 l 115 965 l 767 965 l 767 768 l 326 768 l 326 578 l 606 578 l 606 413 l 326 413 l 326 196 l 767 196 l 767 0 l 115 0 m 93 1061 l 93 1189 l 801 1189 l 801 1061 l 93 1061 z "},"ē":{"ha":924,"x_min":92,"x_max":826,"o":"m 92 0 m 628 517 l 560 567 l 361 567 l 292 517 l 292 433 l 628 433 l 628 517 m 257 0 l 92 149 l 92 585 l 257 735 l 657 735 l 826 585 l 826 297 l 292 297 l 292 231 l 361 181 l 817 181 l 817 0 l 257 0 m 107 849 l 107 994 l 814 994 l 814 849 l 107 849 z "},"Ĕ":{"ha":849,"x_min":115,"x_max":767,"o":"m 115 0 m 115 0 l 115 965 l 767 965 l 767 768 l 326 768 l 326 578 l 606 578 l 606 413 l 326 413 l 326 196 l 767 196 l 767 0 l 115 0 m 625 1008 l 264 1008 l 149 1104 l 149 1278 l 294 1278 l 294 1172 l 338 1143 l 554 1143 l 596 1172 l 596 1278 l 744 1278 l 744 1104 l 625 1008 z "},"ĕ":{"ha":925,"x_min":92,"x_max":826,"o":"m 92 0 m 628 517 l 560 567 l 361 567 l 292 517 l 292 433 l 628 433 l 628 517 m 257 0 l 92 149 l 92 585 l 257 735 l 657 735 l 826 585 l 826 297 l 292 297 l 292 231 l 361 181 l 817 181 l 817 0 l 257 0 m 279 794 l 164 903 l 164 1093 l 311 1093 l 311 979 l 354 946 l 568 946 l 613 979 l 613 1093 l 761 1093 l 761 903 l 642 794 l 279 794 z "},"Ė":{"ha":849,"x_min":115,"x_max":767,"o":"m 115 0 m 115 0 l 115 965 l 767 965 l 767 768 l 326 768 l 326 578 l 606 578 l 606 413 l 326 413 l 326 196 l 767 196 l 767 0 l 115 0 m 342 1046 l 342 1214 l 550 1214 l 550 1046 l 342 1046 z "},"ė":{"ha":925,"x_min":92,"x_max":826,"o":"m 92 0 m 628 517 l 560 567 l 361 567 l 292 517 l 292 433 l 628 433 l 628 517 m 257 0 l 92 149 l 92 585 l 257 735 l 657 735 l 826 585 l 826 297 l 292 297 l 292 231 l 361 181 l 817 181 l 817 0 l 257 0 m 358 835 l 358 1024 l 568 1024 l 568 835 l 358 835 z "},"Ę":{"ha":849,"x_min":115,"x_max":789,"o":"m 475 -389 l 335 -260 l 631 0 l 115 0 l 115 965 l 767 965 l 767 768 l 326 768 l 326 578 l 606 578 l 606 413 l 326 413 l 326 196 l 767 196 l 767 0 l 571 -174 l 618 -210 l 789 -210 l 789 -389 l 475 -389 z "},"ę":{"ha":925,"x_min":92,"x_max":836,"o":"m 524 -389 l 382 -260 l 679 0 l 257 0 l 92 149 l 92 585 l 257 735 l 657 735 l 826 585 l 826 297 l 292 297 l 292 231 l 361 181 l 817 181 l 817 0 l 619 -174 l 667 -210 l 836 -210 l 836 -389 l 524 -389 m 628 517 l 560 567 l 361 567 l 292 517 l 292 433 l 628 433 l 628 517 z "},"Ě":{"ha":849,"x_min":115,"x_max":767,"o":"m 115 0 m 115 0 l 115 965 l 767 965 l 767 768 l 326 768 l 326 578 l 606 578 l 606 413 l 326 413 l 326 196 l 767 196 l 767 0 l 115 0 m 326 1001 l 132 1279 l 301 1279 l 447 1107 l 593 1279 l 760 1279 l 568 1001 l 326 1001 z "},"ě":{"ha":925,"x_min":92,"x_max":826,"o":"m 92 0 m 628 517 l 560 567 l 361 567 l 292 517 l 292 433 l 628 433 l 628 517 m 257 0 l 92 149 l 92 585 l 257 735 l 657 735 l 826 585 l 826 297 l 292 297 l 292 231 l 361 181 l 817 181 l 817 0 l 257 0 m 343 781 l 149 1094 l 318 1094 l 465 899 l 611 1094 l 776 1094 l 586 781 l 343 781 z "},"Ğ":{"ha":975,"x_min":101,"x_max":875,"o":"m 101 0 m 285 0 l 101 197 l 101 768 l 294 965 l 682 965 l 875 768 l 875 613 l 675 613 l 675 706 l 581 783 l 399 783 l 306 706 l 306 263 l 399 185 l 594 185 l 685 257 l 685 378 l 471 378 l 471 531 l 875 531 l 875 186 l 700 0 l 285 0 m 667 1008 l 306 1008 l 190 1104 l 190 1278 l 336 1278 l 336 1172 l 379 1143 l 596 1143 l 638 1172 l 638 1278 l 786 1278 l 786 1104 l 667 1008 z "},"ğ":{"ha":946,"x_min":92,"x_max":839,"o":"m 92 0 m 151 -235 l 151 -54 l 583 -54 l 636 -18 l 636 122 l 543 50 l 257 50 l 92 199 l 92 585 l 257 735 l 550 735 l 643 663 l 643 735 l 839 735 l 839 -110 l 699 -235 l 151 -235 m 631 292 l 631 488 l 546 543 l 368 543 l 301 494 l 301 285 l 368 235 l 546 235 l 631 292 m 281 794 l 165 903 l 165 1093 l 313 1093 l 313 979 l 356 946 l 569 946 l 614 979 l 614 1093 l 763 1093 l 763 903 l 643 794 l 281 794 z "},"Ġ":{"ha":975,"x_min":101,"x_max":875,"o":"m 101 0 m 285 0 l 101 197 l 101 768 l 294 965 l 682 965 l 875 768 l 875 613 l 675 613 l 675 706 l 581 783 l 399 783 l 306 706 l 306 263 l 399 185 l 594 185 l 685 257 l 685 378 l 471 378 l 471 531 l 875 531 l 875 186 l 700 0 l 285 0 m 386 1046 l 386 1214 l 594 1214 l 594 1046 l 386 1046 z "},"ġ":{"ha":946,"x_min":92,"x_max":839,"o":"m 92 0 m 151 -235 l 151 -54 l 583 -54 l 636 -18 l 636 122 l 543 50 l 257 50 l 92 199 l 92 585 l 257 735 l 550 735 l 643 663 l 643 735 l 839 735 l 839 -110 l 699 -235 l 151 -235 m 631 292 l 631 488 l 546 543 l 368 543 l 301 494 l 301 285 l 368 235 l 546 235 l 631 292 m 360 835 l 360 1024 l 569 1024 l 569 835 l 360 835 z "},"Ģ":{"ha":975,"x_min":101,"x_max":875,"o":"m 101 0 m 285 0 l 101 197 l 101 768 l 294 965 l 682 965 l 875 768 l 875 613 l 675 613 l 675 706 l 581 783 l 399 783 l 306 706 l 306 263 l 399 185 l 594 185 l 685 257 l 685 378 l 471 378 l 471 531 l 875 531 l 875 186 l 700 0 l 285 0 m 381 -389 l 381 -53 l 585 -53 l 514 -389 l 381 -389 z "},"ģ":{"ha":946,"x_min":92,"x_max":839,"o":"m 92 0 m 151 -235 l 151 -54 l 583 -54 l 636 -18 l 636 122 l 543 50 l 257 50 l 92 199 l 92 585 l 257 735 l 550 735 l 643 663 l 643 735 l 839 735 l 839 -110 l 699 -235 l 151 -235 m 631 292 l 631 488 l 546 543 l 368 543 l 301 494 l 301 285 l 368 235 l 546 235 l 631 292 m 363 793 l 363 969 l 435 1169 l 546 1169 l 503 982 l 572 982 l 572 793 l 363 793 z "},"Ħ":{"ha":979,"x_min":0,"x_max":979,"o":"m 653 0 l 653 407 l 326 407 l 326 0 l 115 0 l 115 688 l 0 688 l 0 833 l 115 833 l 115 965 l 326 965 l 326 833 l 653 833 l 653 965 l 863 965 l 863 833 l 979 833 l 979 688 l 863 688 l 863 0 l 653 0 m 653 585 l 653 688 l 326 688 l 326 585 l 653 585 z "},"ħ":{"ha":951,"x_min":-21,"x_max":851,"o":"m 315 849 l 315 663 l 407 735 l 686 735 l 851 585 l 851 0 l 644 0 l 644 494 l 578 543 l 400 543 l 315 488 l 315 0 l 106 0 l 106 849 l -21 849 l -21 994 l 686 994 l 686 849 l 315 849 z "},"Ĩ":{"ha":575,"x_min":-60,"x_max":636,"o":"m 0 0 m 183 0 l 183 965 l 394 965 l 394 0 l 183 0 m 474 1039 l 144 1110 l 28 1046 l -60 1147 l 106 1243 l 435 1171 l 560 1240 l 636 1135 l 474 1039 z "},"ĩ":{"ha":590,"x_min":-54,"x_max":640,"o":"m 0 0 m 189 0 l 189 735 l 399 735 l 399 0 l 189 0 m 476 828 l 149 906 l 32 835 l -54 949 l 110 1054 l 439 975 l 563 1054 l 640 935 l 476 828 z "},"Ī":{"ha":675,"x_min":-15,"x_max":693,"o":"m 0 0 m 232 0 l 232 965 l 443 965 l 443 0 l 232 0 m -15 1061 l -15 1189 l 693 1189 l 693 1061 l -15 1061 z "},"ī":{"ha":685,"x_min":-11,"x_max":696,"o":"m 0 0 m 238 0 l 238 735 l 447 735 l 447 0 l 238 0 m -11 849 l -11 994 l 696 994 l 696 849 l -11 849 z "},"Ĭ":{"ha":585,"x_min":-6,"x_max":590,"o":"m 0 0 m 186 0 l 186 965 l 397 965 l 397 0 l 186 0 m 471 1008 l 110 1008 l -6 1104 l -6 1278 l 140 1278 l 140 1172 l 183 1143 l 400 1143 l 442 1172 l 442 1278 l 590 1278 l 590 1104 l 471 1008 z "},"ĭ":{"ha":597,"x_min":0,"x_max":597,"o":"m 0 0 m 193 0 l 193 735 l 403 735 l 403 0 l 193 0 m 115 794 l 0 903 l 0 1093 l 147 1093 l 147 979 l 190 946 l 404 946 l 449 979 l 449 1093 l 597 1093 l 597 903 l 478 794 l 115 794 z "},"Į":{"ha":451,"x_min":-106,"x_max":349,"o":"m 36 -389 l -106 -260 l 117 -79 l 117 965 l 328 965 l 328 0 l 132 -174 l 179 -210 l 349 -210 l 349 -389 l 36 -389 z "},"į":{"ha":425,"x_min":-56,"x_max":399,"o":"m 0 0 m 106 0 l 106 735 l 315 735 l 315 0 l 106 0 m 106 835 l 106 1024 l 315 1024 l 315 835 l 106 835 m 86 -389 l -56 -260 l 242 0 l 379 0 l 182 -174 l 229 -210 l 399 -210 l 399 -389 l 86 -389 z "},"İ":{"ha":443,"x_min":115,"x_max":326,"o":"m 115 0 m 115 0 l 115 965 l 326 965 l 326 0 l 115 0 m 117 1046 l 117 1214 l 325 1214 l 325 1046 l 117 1046 z "},"ı":{"ha":421,"x_min":106,"x_max":315,"o":"m 106 0 l 106 735 l 315 735 l 315 0 l 106 0 z "},"Ĳ":{"ha":1004,"x_min":115,"x_max":889,"o":"m 115 226 l 115 965 l 326 965 l 326 226 l 115 226 m 303 -235 l 115 -37 l 115 126 l 326 126 l 326 42 l 421 -39 l 586 -39 l 682 42 l 682 965 l 889 965 l 889 -37 l 703 -235 l 303 -235 z "},"ĳ":{"ha":829,"x_min":106,"x_max":724,"o":"m 106 0 m 106 0 l 106 735 l 315 735 l 315 0 l 106 0 m 106 835 l 106 1024 l 315 1024 l 315 835 l 106 835 m 353 -235 l 353 -54 l 463 -54 l 514 -18 l 514 735 l 722 735 l 722 -110 l 582 -235 l 353 -235 m 514 835 l 514 1024 l 724 1024 l 724 835 l 514 835 z "},"Ķ":{"ha":953,"x_min":115,"x_max":897,"o":"m 115 0 m 668 0 l 457 463 l 326 304 l 326 0 l 115 0 l 115 965 l 326 965 l 326 611 l 633 965 l 872 965 l 608 646 l 897 0 l 668 0 m 381 -389 l 381 -53 l 585 -53 l 514 -389 l 381 -389 z "},"ķ":{"ha":942,"x_min":106,"x_max":893,"o":"m 106 0 m 664 0 l 468 361 l 315 217 l 315 0 l 106 0 l 106 965 l 315 965 l 315 483 l 621 735 l 865 735 l 621 504 l 893 0 l 664 0 m 379 -389 l 379 -53 l 583 -53 l 513 -389 l 379 -389 z "},"Ĺ":{"ha":792,"x_min":115,"x_max":735,"o":"m 115 0 m 115 0 l 115 965 l 326 965 l 326 196 l 735 196 l 735 0 l 115 0 m 153 1000 l 283 1278 l 490 1278 l 328 1000 l 153 1000 z "},"ĺ":{"ha":440,"x_min":106,"x_max":447,"o":"m 106 0 m 106 0 l 106 965 l 315 965 l 315 0 l 106 0 m 110 1000 l 240 1278 l 447 1278 l 285 1000 l 110 1000 z "},"Ļ":{"ha":792,"x_min":115,"x_max":735,"o":"m 115 0 m 115 0 l 115 965 l 326 965 l 326 196 l 735 196 l 735 0 l 115 0 m 311 -389 l 311 -53 l 515 -53 l 444 -389 l 311 -389 z "},"ļ":{"ha":421,"x_min":106,"x_max":315,"o":"m 106 0 m 106 0 l 106 965 l 315 965 l 315 0 l 106 0 m 106 -389 l 106 -53 l 310 -53 l 239 -389 l 106 -389 z "},"Ľ":{"ha":792,"x_min":115,"x_max":735,"o":"m 115 0 m 115 0 l 115 965 l 326 965 l 326 196 l 735 196 l 735 0 l 115 0 m 481 707 l 481 1043 l 685 1043 l 614 707 l 481 707 z "},"ľ":{"ha":535,"x_min":106,"x_max":596,"o":"m 106 0 m 106 0 l 106 965 l 315 965 l 315 0 l 106 0 m 392 707 l 392 1043 l 596 1043 l 525 707 l 392 707 z "},"Ł":{"ha":793,"x_min":22,"x_max":736,"o":"m 326 504 l 326 196 l 736 196 l 736 0 l 115 0 l 115 417 l 22 378 l 22 501 l 115 540 l 115 965 l 326 965 l 326 628 l 610 747 l 610 624 l 326 504 z "},"ł":{"ha":588,"x_min":0,"x_max":588,"o":"m 189 0 l 189 522 l 0 443 l 0 567 l 189 646 l 189 965 l 399 965 l 399 733 l 588 813 l 588 689 l 399 610 l 399 0 l 189 0 z "},"Ń":{"ha":996,"x_min":115,"x_max":879,"o":"m 115 0 m 681 0 l 321 543 l 321 0 l 115 0 l 115 965 l 331 965 l 675 432 l 675 965 l 879 965 l 879 0 l 681 0 m 381 1000 l 511 1278 l 718 1278 l 556 1000 l 381 1000 z "},"ń":{"ha":951,"x_min":106,"x_max":851,"o":"m 106 0 m 644 0 l 644 494 l 578 543 l 400 543 l 315 488 l 315 0 l 106 0 l 106 735 l 301 735 l 301 663 l 394 735 l 686 735 l 851 585 l 851 0 l 644 0 m 363 779 l 489 1093 l 694 1093 l 532 779 l 363 779 z "},"Ņ":{"ha":996,"x_min":115,"x_max":879,"o":"m 115 0 m 681 0 l 321 543 l 321 0 l 115 0 l 115 965 l 331 965 l 675 432 l 675 965 l 879 965 l 879 0 l 681 0 m 397 -389 l 397 -53 l 601 -53 l 531 -389 l 397 -389 z "},"ņ":{"ha":951,"x_min":106,"x_max":851,"o":"m 106 0 m 644 0 l 644 494 l 578 543 l 400 543 l 315 488 l 315 0 l 106 0 l 106 735 l 301 735 l 301 663 l 394 735 l 686 735 l 851 585 l 851 0 l 644 0 m 379 -389 l 379 -53 l 583 -53 l 513 -389 l 379 -389 z "},"Ň":{"ha":996,"x_min":115,"x_max":879,"o":"m 115 0 m 681 0 l 321 543 l 321 0 l 115 0 l 115 965 l 331 965 l 675 432 l 675 965 l 879 965 l 879 0 l 681 0 m 378 1001 l 183 1279 l 353 1279 l 499 1107 l 644 1279 l 811 1279 l 619 1001 l 378 1001 z "},"ň":{"ha":951,"x_min":106,"x_max":851,"o":"m 106 0 m 644 0 l 644 494 l 578 543 l 400 543 l 315 488 l 315 0 l 106 0 l 106 735 l 301 735 l 301 663 l 394 735 l 686 735 l 851 585 l 851 0 l 644 0 m 356 781 l 161 1094 l 331 1094 l 478 899 l 624 1094 l 789 1094 l 599 781 l 356 781 z "},"Ŋ":{"ha":978,"x_min":115,"x_max":863,"o":"m 465 -235 l 465 -51 l 597 -51 l 653 -11 l 653 715 l 586 768 l 415 768 l 326 708 l 326 0 l 115 0 l 115 965 l 314 965 l 314 889 l 411 965 l 694 965 l 863 808 l 863 -104 l 719 -235 l 465 -235 z "},"ŋ":{"ha":951,"x_min":106,"x_max":851,"o":"m 494 -235 l 494 -54 l 593 -54 l 644 -18 l 644 494 l 578 543 l 400 543 l 315 488 l 315 0 l 106 0 l 106 735 l 301 735 l 301 663 l 394 735 l 686 735 l 851 585 l 851 -110 l 713 -235 l 494 -235 z "},"Ō":{"ha":979,"x_min":101,"x_max":879,"o":"m 101 0 m 285 0 l 101 197 l 101 768 l 294 965 l 685 965 l 879 768 l 879 197 l 693 0 l 285 0 m 672 275 l 672 692 l 576 768 l 404 768 l 307 692 l 307 275 l 401 196 l 579 196 l 672 275 m 136 1061 l 136 1189 l 844 1189 l 844 1061 l 136 1061 z "},"ō":{"ha":929,"x_min":92,"x_max":839,"o":"m 92 0 m 257 0 l 92 149 l 92 585 l 257 735 l 672 735 l 839 585 l 839 149 l 672 0 l 257 0 m 628 240 l 628 494 l 563 543 l 367 543 l 297 494 l 297 240 l 367 190 l 563 190 l 628 240 m 111 849 l 111 994 l 818 994 l 818 849 l 111 849 z "},"Ŏ":{"ha":979,"x_min":101,"x_max":879,"o":"m 101 0 m 285 0 l 101 197 l 101 768 l 294 965 l 685 965 l 879 768 l 879 197 l 693 0 l 285 0 m 672 275 l 672 692 l 576 768 l 404 768 l 307 692 l 307 275 l 401 196 l 579 196 l 672 275 m 668 1008 l 307 1008 l 192 1104 l 192 1278 l 338 1278 l 338 1172 l 381 1143 l 597 1143 l 639 1172 l 639 1278 l 788 1278 l 788 1104 l 668 1008 z "},"ŏ":{"ha":929,"x_min":92,"x_max":839,"o":"m 92 0 m 257 0 l 92 149 l 92 585 l 257 735 l 672 735 l 839 585 l 839 149 l 672 0 l 257 0 m 628 240 l 628 494 l 563 543 l 367 543 l 297 494 l 297 240 l 367 190 l 563 190 l 628 240 m 282 794 l 167 903 l 167 1093 l 314 1093 l 314 979 l 357 946 l 571 946 l 615 979 l 615 1093 l 764 1093 l 764 903 l 644 794 l 282 794 z "},"Ő":{"ha":979,"x_min":101,"x_max":881,"o":"m 101 0 m 285 0 l 101 197 l 101 768 l 294 965 l 685 965 l 879 768 l 879 197 l 693 0 l 285 0 m 672 275 l 672 692 l 576 768 l 404 768 l 307 692 l 307 275 l 401 196 l 579 196 l 672 275 m 547 1001 l 675 1279 l 881 1279 l 721 1001 l 547 1001 m 197 1001 l 325 1279 l 531 1279 l 371 1001 l 197 1001 z "},"ő":{"ha":929,"x_min":92,"x_max":860,"o":"m 92 0 m 257 0 l 92 149 l 92 585 l 257 735 l 672 735 l 839 585 l 839 149 l 672 0 l 257 0 m 628 240 l 628 494 l 563 543 l 367 543 l 297 494 l 297 240 l 367 190 l 563 190 l 628 240 m 529 781 l 654 1094 l 860 1094 l 704 781 l 529 781 m 168 781 l 292 1094 l 499 1094 l 342 781 l 168 781 z "},"Œ":{"ha":1407,"x_min":101,"x_max":1326,"o":"m 285 0 l 101 197 l 101 768 l 294 965 l 1326 965 l 1326 768 l 886 768 l 886 578 l 1167 578 l 1167 413 l 886 413 l 886 196 l 1326 196 l 1326 0 l 285 0 m 401 196 l 675 196 l 675 768 l 404 768 l 307 692 l 307 275 l 401 196 z "},"œ":{"ha":1474,"x_min":92,"x_max":1376,"o":"m 257 0 l 92 149 l 92 585 l 257 735 l 672 735 l 740 683 l 808 735 l 1208 735 l 1376 585 l 1376 297 l 843 297 l 843 231 l 913 181 l 1367 181 l 1367 0 l 808 0 l 740 49 l 672 0 l 257 0 m 628 240 l 628 494 l 563 543 l 367 543 l 297 494 l 297 240 l 367 190 l 563 190 l 628 240 m 1179 517 l 1111 567 l 913 567 l 843 517 l 843 433 l 1179 433 l 1179 517 z "},"Ŕ":{"ha":967,"x_min":115,"x_max":897,"o":"m 115 0 m 675 0 l 524 361 l 326 361 l 326 0 l 115 0 l 115 965 l 674 965 l 868 768 l 868 560 l 719 419 l 897 0 l 675 0 m 663 689 l 565 768 l 326 768 l 326 536 l 561 536 l 663 615 l 663 689 m 333 1000 l 464 1278 l 671 1278 l 508 1000 l 333 1000 z "},"ŕ":{"ha":699,"x_min":106,"x_max":646,"o":"m 106 0 m 106 0 l 106 735 l 301 735 l 301 646 l 425 735 l 646 735 l 646 554 l 426 554 l 315 483 l 315 0 l 106 0 m 242 779 l 368 1093 l 574 1093 l 411 779 l 242 779 z "},"Ŗ":{"ha":967,"x_min":115,"x_max":897,"o":"m 115 0 m 675 0 l 524 361 l 326 361 l 326 0 l 115 0 l 115 965 l 674 965 l 868 768 l 868 560 l 719 419 l 897 0 l 675 0 m 663 689 l 565 768 l 326 768 l 326 536 l 561 536 l 663 615 l 663 689 m 385 -389 l 385 -53 l 589 -53 l 518 -389 l 385 -389 z "},"ŗ":{"ha":699,"x_min":106,"x_max":646,"o":"m 106 0 m 106 0 l 106 735 l 301 735 l 301 646 l 425 735 l 646 735 l 646 554 l 426 554 l 315 483 l 315 0 l 106 0 m 111 -389 l 111 -53 l 315 -53 l 244 -389 l 111 -389 z "},"Ř":{"ha":967,"x_min":115,"x_max":897,"o":"m 115 0 m 675 0 l 524 361 l 326 361 l 326 0 l 115 0 l 115 965 l 674 965 l 868 768 l 868 560 l 719 419 l 897 0 l 675 0 m 663 689 l 565 768 l 326 768 l 326 536 l 561 536 l 663 615 l 663 689 m 335 1001 l 140 1279 l 310 1279 l 456 1107 l 601 1279 l 768 1279 l 576 1001 l 335 1001 z "},"ř":{"ha":699,"x_min":51,"x_max":679,"o":"m 51 0 m 106 0 l 106 735 l 301 735 l 301 646 l 425 735 l 646 735 l 646 554 l 426 554 l 315 483 l 315 0 l 106 0 m 246 781 l 51 1094 l 221 1094 l 368 899 l 514 1094 l 679 1094 l 489 781 l 246 781 z "},"Ś":{"ha":975,"x_min":101,"x_max":875,"o":"m 101 0 m 276 0 l 101 183 l 101 322 l 297 322 l 297 247 l 389 174 l 583 174 l 674 249 l 674 346 l 592 410 l 281 410 l 101 557 l 101 781 l 276 965 l 682 965 l 860 781 l 860 642 l 664 642 l 664 715 l 571 792 l 393 792 l 301 717 l 301 626 l 386 563 l 694 563 l 875 421 l 875 183 l 699 0 l 276 0 m 365 1000 l 496 1278 l 703 1278 l 540 1000 l 365 1000 z "},"ś":{"ha":856,"x_min":81,"x_max":776,"o":"m 81 0 m 94 0 l 94 181 l 524 181 l 579 215 l 579 258 l 521 300 l 235 300 l 81 411 l 81 610 l 221 735 l 750 735 l 750 554 l 336 554 l 279 521 l 279 476 l 340 436 l 624 436 l 776 324 l 776 125 l 636 0 l 94 0 m 313 779 l 439 1093 l 644 1093 l 482 779 l 313 779 z "},"Ş":{"ha":975,"x_min":101,"x_max":875,"o":"m 101 0 m 276 0 l 101 183 l 101 322 l 297 322 l 297 247 l 389 174 l 583 174 l 674 249 l 674 346 l 592 410 l 281 410 l 101 557 l 101 781 l 276 965 l 682 965 l 860 781 l 860 642 l 664 642 l 664 715 l 571 792 l 393 792 l 301 717 l 301 626 l 386 563 l 694 563 l 875 421 l 875 183 l 699 0 l 276 0 m 382 -389 l 382 -53 l 586 -53 l 515 -389 l 382 -389 z "},"ş":{"ha":856,"x_min":81,"x_max":776,"o":"m 81 0 m 94 0 l 94 181 l 524 181 l 579 215 l 579 258 l 521 300 l 235 300 l 81 411 l 81 610 l 221 735 l 750 735 l 750 554 l 336 554 l 279 521 l 279 476 l 340 436 l 624 436 l 776 324 l 776 125 l 636 0 l 94 0 m 325 -389 l 325 -53 l 529 -53 l 458 -389 l 325 -389 z "},"Š":{"ha":975,"x_min":101,"x_max":875,"o":"m 101 0 m 276 0 l 101 183 l 101 322 l 297 322 l 297 247 l 389 174 l 583 174 l 674 249 l 674 346 l 592 410 l 281 410 l 101 557 l 101 781 l 276 965 l 682 965 l 860 781 l 860 642 l 664 642 l 664 715 l 571 792 l 393 792 l 301 717 l 301 626 l 386 563 l 694 563 l 875 421 l 875 183 l 699 0 l 276 0 m 365 1001 l 171 1279 l 340 1279 l 486 1107 l 632 1279 l 799 1279 l 607 1001 l 365 1001 z "},"š":{"ha":856,"x_min":81,"x_max":776,"o":"m 81 0 m 94 0 l 94 181 l 524 181 l 579 215 l 579 258 l 521 300 l 235 300 l 81 411 l 81 610 l 221 735 l 750 735 l 750 554 l 336 554 l 279 521 l 279 476 l 340 436 l 624 436 l 776 324 l 776 125 l 636 0 l 94 0 m 307 781 l 113 1094 l 282 1094 l 429 899 l 575 1094 l 740 1094 l 550 781 l 307 781 z "},"Ţ":{"ha":850,"x_min":54,"x_max":794,"o":"m 54 0 m 319 0 l 319 768 l 54 768 l 54 965 l 794 965 l 794 768 l 531 768 l 531 0 l 319 0 m 322 -389 l 322 -53 l 526 -53 l 456 -389 l 322 -389 z "},"ţ":{"ha":664,"x_min":51,"x_max":611,"o":"m 51 0 m 385 554 l 385 210 l 439 172 l 611 172 l 611 0 l 319 0 l 178 125 l 178 554 l 51 554 l 51 735 l 178 735 l 178 942 l 385 942 l 385 735 l 611 735 l 611 554 l 385 554 m 272 -389 l 272 -53 l 476 -53 l 406 -389 l 272 -389 z "},"Ť":{"ha":850,"x_min":54,"x_max":794,"o":"m 54 0 m 319 0 l 319 768 l 54 768 l 54 965 l 794 965 l 794 768 l 531 768 l 531 0 l 319 0 m 306 1001 l 111 1279 l 281 1279 l 426 1107 l 572 1279 l 739 1279 l 547 1001 l 306 1001 z "},"ť":{"ha":782,"x_min":51,"x_max":843,"o":"m 51 0 m 385 554 l 385 210 l 439 172 l 611 172 l 611 0 l 319 0 l 178 125 l 178 554 l 51 554 l 51 735 l 178 735 l 178 942 l 385 942 l 385 735 l 611 735 l 611 554 l 385 554 m 639 707 l 639 1043 l 843 1043 l 772 707 l 639 707 z "},"Ŧ":{"ha":850,"x_min":54,"x_max":794,"o":"m 319 0 l 319 381 l 72 381 l 72 526 l 319 526 l 319 768 l 54 768 l 54 965 l 794 965 l 794 768 l 531 768 l 531 526 l 778 526 l 778 381 l 531 381 l 531 0 l 319 0 z "},"ŧ":{"ha":718,"x_min":14,"x_max":700,"o":"m 403 304 l 403 210 l 457 172 l 631 172 l 631 0 l 338 0 l 197 125 l 197 304 l 14 304 l 14 450 l 197 450 l 197 554 l 69 554 l 69 735 l 197 735 l 197 942 l 403 942 l 403 735 l 631 735 l 631 554 l 403 554 l 403 450 l 700 450 l 700 304 l 403 304 z "},"Ũ":{"ha":978,"x_min":107,"x_max":871,"o":"m 107 0 m 275 0 l 107 178 l 107 965 l 315 965 l 315 272 l 397 201 l 583 201 l 665 272 l 665 965 l 871 965 l 871 178 l 704 0 l 275 0 m 674 1039 l 344 1110 l 228 1046 l 140 1147 l 306 1243 l 635 1171 l 760 1240 l 836 1135 l 674 1039 z "},"ũ":{"ha":951,"x_min":100,"x_max":844,"o":"m 100 0 m 649 0 l 649 75 l 554 0 l 265 0 l 100 149 l 100 735 l 307 735 l 307 240 l 374 190 l 549 190 l 636 250 l 636 735 l 844 735 l 844 0 l 649 0 m 658 828 l 331 906 l 214 835 l 128 949 l 292 1054 l 621 975 l 744 1054 l 822 935 l 658 828 z "},"Ū":{"ha":978,"x_min":107,"x_max":871,"o":"m 107 0 m 275 0 l 107 178 l 107 965 l 315 965 l 315 272 l 397 201 l 583 201 l 665 272 l 665 965 l 871 965 l 871 178 l 704 0 l 275 0 m 136 1061 l 136 1189 l 844 1189 l 844 1061 l 136 1061 z "},"ū":{"ha":951,"x_min":100,"x_max":844,"o":"m 100 0 m 649 0 l 649 75 l 554 0 l 265 0 l 100 149 l 100 735 l 307 735 l 307 240 l 374 190 l 549 190 l 636 250 l 636 735 l 844 735 l 844 0 l 649 0 m 122 849 l 122 994 l 829 994 l 829 849 l 122 849 z "},"Ů":{"ha":978,"x_min":107,"x_max":871,"o":"m 107 0 m 275 0 l 107 178 l 107 965 l 315 965 l 315 272 l 397 201 l 583 201 l 665 272 l 665 965 l 871 965 l 871 178 l 704 0 l 275 0 m 615 996 l 363 996 l 278 1064 l 278 1210 l 363 1278 l 615 1278 l 699 1210 l 699 1064 l 615 996 m 586 1168 l 557 1192 l 421 1192 l 389 1168 l 389 1106 l 421 1082 l 557 1082 l 586 1106 l 586 1168 z "},"ů":{"ha":951,"x_min":100,"x_max":844,"o":"m 100 0 m 649 0 l 649 75 l 554 0 l 265 0 l 100 149 l 100 735 l 307 735 l 307 240 l 374 190 l 549 190 l 636 250 l 636 735 l 844 735 l 844 0 l 649 0 m 349 786 l 265 863 l 265 1054 l 349 1131 l 603 1131 l 685 1054 l 685 863 l 603 786 l 349 786 m 574 908 l 574 1008 l 542 1035 l 411 1035 l 376 1007 l 376 910 l 408 883 l 543 883 l 574 908 z "},"Ű":{"ha":978,"x_min":107,"x_max":879,"o":"m 107 0 m 275 0 l 107 178 l 107 965 l 315 965 l 315 272 l 397 201 l 583 201 l 665 272 l 665 965 l 871 965 l 871 178 l 704 0 l 275 0 m 546 1001 l 674 1279 l 879 1279 l 719 1001 l 546 1001 m 196 1001 l 324 1279 l 529 1279 l 369 1001 l 196 1001 z "},"ű":{"ha":951,"x_min":100,"x_max":869,"o":"m 100 0 m 649 0 l 649 75 l 554 0 l 265 0 l 100 149 l 100 735 l 307 735 l 307 240 l 374 190 l 549 190 l 636 250 l 636 735 l 844 735 l 844 0 l 649 0 m 539 781 l 664 1094 l 869 1094 l 714 781 l 539 781 m 178 781 l 301 1094 l 508 1094 l 351 781 l 178 781 z "},"Ų":{"ha":978,"x_min":107,"x_max":871,"o":"m 413 -389 l 269 -260 l 563 0 l 275 0 l 107 178 l 107 965 l 315 965 l 315 272 l 397 201 l 579 201 l 665 272 l 665 965 l 871 965 l 871 178 l 507 -174 l 556 -210 l 725 -210 l 725 -389 l 413 -389 z "},"ų":{"ha":951,"x_min":100,"x_max":865,"o":"m 553 -389 l 410 -260 l 649 -61 l 649 75 l 554 0 l 265 0 l 100 149 l 100 735 l 307 735 l 307 240 l 374 190 l 549 190 l 636 250 l 636 735 l 844 735 l 844 0 l 647 -174 l 694 -210 l 865 -210 l 865 -389 l 553 -389 z "},"Ŵ":{"ha":1313,"x_min":51,"x_max":1261,"o":"m 51 0 m 800 0 l 653 638 l 508 0 l 213 0 l 51 965 l 261 965 l 375 281 l 526 965 l 786 965 l 939 281 l 1053 965 l 1261 965 l 1099 0 l 800 0 m 803 1000 l 656 1171 l 511 1000 l 342 1000 l 535 1278 l 778 1278 l 969 1000 l 803 1000 z "},"ŵ":{"ha":1299,"x_min":35,"x_max":1264,"o":"m 35 0 m 796 0 l 644 499 l 497 0 l 210 0 l 35 735 l 250 735 l 367 231 l 521 735 l 776 735 l 932 231 l 1050 735 l 1264 735 l 1088 0 l 796 0 m 796 779 l 647 974 l 503 779 l 333 779 l 528 1093 l 769 1093 l 961 779 l 796 779 z "},"Ŷ":{"ha":925,"x_min":36,"x_max":888,"o":"m 36 0 m 364 0 l 364 431 l 36 965 l 267 965 l 464 651 l 658 965 l 888 965 l 575 433 l 575 0 l 364 0 m 611 1000 l 464 1171 l 319 1000 l 150 1000 l 343 1278 l 586 1278 l 778 1000 l 611 1000 z "},"ŷ":{"ha":879,"x_min":36,"x_max":843,"o":"m 36 0 m 99 -235 l 99 -54 l 271 -54 l 329 -15 l 336 3 l 36 735 l 258 735 l 438 264 l 622 735 l 843 735 l 489 -110 l 350 -235 l 99 -235 m 588 779 l 439 974 l 294 779 l 125 779 l 319 1093 l 561 1093 l 753 779 l 588 779 z "},"Ÿ":{"ha":925,"x_min":36,"x_max":888,"o":"m 36 0 m 364 0 l 364 431 l 36 965 l 267 965 l 464 651 l 658 965 l 888 965 l 575 433 l 575 0 l 364 0 m 538 1046 l 538 1214 l 744 1214 l 744 1046 l 538 1046 m 182 1046 l 182 1214 l 390 1214 l 390 1046 l 182 1046 z "},"Ź":{"ha":883,"x_min":65,"x_max":819,"o":"m 65 0 m 206 0 l 65 167 l 554 768 l 99 768 l 99 965 l 678 965 l 819 799 l 329 196 l 792 196 l 792 0 l 206 0 m 329 1000 l 460 1278 l 667 1278 l 504 1000 l 329 1000 z "},"ź":{"ha":819,"x_min":51,"x_max":772,"o":"m 51 0 m 181 0 l 51 131 l 483 554 l 83 554 l 83 735 l 646 735 l 772 603 l 340 181 l 760 181 l 760 0 l 181 0 m 289 779 l 415 1093 l 621 1093 l 458 779 l 289 779 z "},"Ż":{"ha":883,"x_min":65,"x_max":819,"o":"m 65 0 m 206 0 l 65 167 l 554 768 l 99 768 l 99 965 l 678 965 l 819 799 l 329 196 l 792 196 l 792 0 l 206 0 m 338 1046 l 338 1214 l 546 1214 l 546 1046 l 338 1046 z "},"ż":{"ha":819,"x_min":51,"x_max":772,"o":"m 51 0 m 181 0 l 51 131 l 483 554 l 83 554 l 83 735 l 646 735 l 772 603 l 340 181 l 760 181 l 760 0 l 181 0 m 313 835 l 313 1024 l 522 1024 l 522 835 l 313 835 z "},"Ž":{"ha":883,"x_min":65,"x_max":819,"o":"m 65 0 m 206 0 l 65 167 l 554 768 l 99 768 l 99 965 l 678 965 l 819 799 l 329 196 l 792 196 l 792 0 l 206 0 m 326 1001 l 132 1279 l 301 1279 l 447 1107 l 593 1279 l 760 1279 l 568 1001 l 326 1001 z "},"ž":{"ha":819,"x_min":51,"x_max":772,"o":"m 51 0 m 181 0 l 51 131 l 483 554 l 83 554 l 83 735 l 646 735 l 772 603 l 340 181 l 760 181 l 760 0 l 181 0 m 290 781 l 96 1094 l 265 1094 l 413 899 l 558 1094 l 724 1094 l 533 781 l 290 781 z "},"ƀ":{"ha":946,"x_min":0,"x_max":854,"o":"m 315 849 l 315 663 l 407 735 l 689 735 l 854 585 l 854 149 l 689 0 l 394 0 l 301 72 l 301 0 l 106 0 l 106 849 l 0 849 l 0 994 l 707 994 l 707 849 l 315 849 m 644 240 l 644 494 l 578 543 l 400 543 l 315 488 l 315 247 l 400 190 l 578 190 l 644 240 z "},"Ɓ":{"ha":1285,"x_min":0,"x_max":1183,"o":"m 419 0 l 419 849 l 240 849 l 185 808 l 185 597 l 0 597 l 0 838 l 142 965 l 983 965 l 1178 768 l 1178 615 l 1068 504 l 1183 382 l 1183 197 l 992 0 l 419 0 m 978 276 l 978 351 l 899 419 l 631 419 l 631 196 l 882 196 l 978 276 m 971 639 l 971 708 l 875 786 l 631 786 l 631 571 l 892 571 l 971 639 z "},"Ƈ":{"ha":1099,"x_min":101,"x_max":1099,"o":"m 674 622 l 674 692 l 579 768 l 404 768 l 307 692 l 307 275 l 404 196 l 579 196 l 674 275 l 674 378 l 875 378 l 875 197 l 690 0 l 285 0 l 101 197 l 101 768 l 294 965 l 660 965 l 747 889 l 747 944 l 886 1038 l 1099 1038 l 1099 865 l 939 865 l 875 824 l 875 622 l 674 622 z "},"ƈ":{"ha":1049,"x_min":92,"x_max":1049,"o":"m 257 0 l 92 149 l 92 585 l 257 735 l 622 735 l 685 686 l 685 778 l 839 879 l 1049 879 l 1049 707 l 879 707 l 826 667 l 826 444 l 628 444 l 628 494 l 560 543 l 367 543 l 297 494 l 297 240 l 367 190 l 560 190 l 628 240 l 628 300 l 826 300 l 826 149 l 657 0 l 257 0 z "},"Ɗ":{"ha":1251,"x_min":0,"x_max":1150,"o":"m 419 0 l 419 849 l 240 849 l 185 808 l 185 597 l 0 597 l 0 838 l 142 965 l 956 965 l 1150 768 l 1150 197 l 963 0 l 419 0 m 943 275 l 943 692 l 847 768 l 631 768 l 631 196 l 847 196 l 943 275 z "},"Ǝ":{"ha":849,"x_min":81,"x_max":732,"o":"m 81 0 l 81 196 l 521 196 l 521 413 l 243 413 l 243 578 l 521 578 l 521 768 l 81 768 l 81 965 l 732 965 l 732 0 l 81 0 z "},"Ə":{"ha":979,"x_min":101,"x_max":875,"o":"m 294 0 l 101 197 l 101 525 l 668 525 l 668 689 l 575 768 l 397 768 l 303 689 l 303 599 l 101 599 l 101 768 l 286 965 l 692 965 l 875 768 l 875 197 l 682 0 l 294 0 m 668 379 l 303 379 l 303 275 l 400 196 l 574 196 l 668 275 l 668 379 z "},"ƒ":{"ha":858,"x_min":53,"x_max":813,"o":"m 53 -235 l 250 557 l 101 557 l 144 738 l 294 738 l 335 896 l 507 1024 l 813 1024 l 774 851 l 592 851 l 522 810 l 504 738 l 731 738 l 689 557 l 458 557 l 260 -235 l 53 -235 z "},"Ɣ":{"ha":896,"x_min":46,"x_max":853,"o":"m 276 -389 l 193 -312 l 193 -174 l 351 242 l 46 965 l 269 965 l 449 496 l 629 965 l 853 965 l 546 243 l 707 -174 l 707 -312 l 624 -389 l 276 -389 m 449 13 l 367 -182 l 367 -222 l 399 -247 l 501 -247 l 532 -221 l 532 -182 l 449 13 z "},"Ɨ":{"ha":676,"x_min":81,"x_max":596,"o":"m 81 0 l 81 196 l 233 196 l 233 768 l 81 768 l 81 965 l 596 965 l 596 768 l 444 768 l 444 196 l 596 196 l 596 0 l 81 0 z "},"Ƙ":{"ha":992,"x_min":115,"x_max":992,"o":"m 668 0 l 456 431 l 326 304 l 326 0 l 115 0 l 115 965 l 326 965 l 326 611 l 756 1038 l 992 1038 l 992 865 l 817 865 l 600 646 l 897 0 l 668 0 z "},"ƙ":{"ha":942,"x_min":106,"x_max":893,"o":"m 664 0 l 474 336 l 315 217 l 315 0 l 106 0 l 106 896 l 247 1024 l 538 1024 l 538 851 l 369 851 l 315 811 l 315 483 l 621 735 l 865 735 l 618 499 l 893 0 l 664 0 z "},"Ɲ":{"ha":997,"x_min":-35,"x_max":879,"o":"m -35 -235 l -35 -54 l 64 -54 l 115 -18 l 115 965 l 331 965 l 676 432 l 676 965 l 879 965 l 879 0 l 681 0 l 324 538 l 324 -110 l 183 -235 l -35 -235 z "},"Ơ":{"ha":1032,"x_min":101,"x_max":1032,"o":"m 788 854 l 879 768 l 879 197 l 693 0 l 285 0 l 101 197 l 101 768 l 294 965 l 828 965 l 871 1000 l 871 1164 l 1032 1164 l 1032 965 l 910 854 l 788 854 m 672 275 l 672 692 l 579 768 l 404 768 l 307 692 l 307 275 l 404 196 l 579 196 l 672 275 z "},"ơ":{"ha":1069,"x_min":92,"x_max":1047,"o":"m 786 624 l 839 585 l 839 149 l 672 0 l 257 0 l 92 149 l 92 585 l 257 735 l 842 735 l 886 769 l 886 933 l 1047 933 l 1047 735 l 925 624 l 786 624 m 628 240 l 628 494 l 563 543 l 367 543 l 297 494 l 297 240 l 367 190 l 563 190 l 628 240 z "},"Ư":{"ha":1135,"x_min":107,"x_max":1135,"o":"m 275 0 l 107 178 l 107 965 l 315 965 l 315 272 l 397 201 l 583 201 l 665 272 l 665 965 l 929 965 l 974 1000 l 974 1164 l 1135 1164 l 1135 965 l 1013 854 l 871 854 l 871 178 l 704 0 l 275 0 z "},"ư":{"ha":1110,"x_min":100,"x_max":1110,"o":"m 649 0 l 649 75 l 554 0 l 265 0 l 100 149 l 100 735 l 307 735 l 307 240 l 374 190 l 549 190 l 636 250 l 636 735 l 906 735 l 949 769 l 949 933 l 1110 933 l 1110 735 l 988 624 l 844 624 l 844 0 l 649 0 z "},"Ƴ":{"ha":1038,"x_min":36,"x_max":1039,"o":"m 364 0 l 364 431 l 36 965 l 267 965 l 474 633 l 803 1038 l 1039 1038 l 1039 865 l 896 865 l 575 433 l 575 0 l 364 0 z "},"ƴ":{"ha":1090,"x_min":36,"x_max":1090,"o":"m 489 -110 l 350 -235 l 99 -235 l 99 -54 l 271 -54 l 318 -26 l 342 -1 l 36 735 l 258 735 l 439 321 l 694 860 l 888 993 l 1090 993 l 1090 821 l 969 821 l 864 732 l 489 -110 z "},"Ǆ":{"ha":1829,"x_min":115,"x_max":1767,"o":"m 115 0 m 115 0 l 115 965 l 651 965 l 844 768 l 844 197 l 658 0 l 115 0 m 639 275 l 639 692 l 543 768 l 326 768 l 326 196 l 543 196 l 639 275 m 1153 0 l 1013 167 l 1501 768 l 1046 768 l 1046 965 l 1625 965 l 1767 799 l 1276 196 l 1739 196 l 1739 0 l 1153 0 m 1272 1001 l 1078 1279 l 1247 1279 l 1393 1107 l 1539 1279 l 1706 1279 l 1514 1001 l 1272 1001 z "},"ǅ":{"ha":1765,"x_min":115,"x_max":1718,"o":"m 115 0 m 115 0 l 115 965 l 651 965 l 844 768 l 844 197 l 658 0 l 115 0 m 639 275 l 639 692 l 543 768 l 326 768 l 326 196 l 543 196 l 639 275 m 1126 0 l 997 131 l 1429 554 l 1029 554 l 1029 735 l 1592 735 l 1718 603 l 1286 181 l 1706 181 l 1706 0 l 1126 0 m 1236 781 l 1042 1094 l 1211 1094 l 1358 899 l 1504 1094 l 1669 1094 l 1479 781 l 1236 781 z "},"ǆ":{"ha":1765,"x_min":92,"x_max":1718,"o":"m 92 0 m 643 0 l 643 72 l 550 0 l 257 0 l 92 149 l 92 585 l 257 735 l 538 735 l 631 663 l 631 965 l 839 965 l 839 0 l 643 0 m 631 247 l 631 488 l 546 543 l 368 543 l 301 494 l 301 240 l 368 190 l 546 190 l 631 247 m 1126 0 l 997 131 l 1429 554 l 1029 554 l 1029 735 l 1592 735 l 1718 603 l 1286 181 l 1706 181 l 1706 0 l 1126 0 m 1236 781 l 1042 1094 l 1211 1094 l 1358 899 l 1504 1094 l 1669 1094 l 1479 781 l 1236 781 z "},"ǝ":{"ha":925,"x_min":92,"x_max":826,"o":"m 289 218 l 356 168 l 556 168 l 625 218 l 625 301 l 289 301 l 289 218 m 658 735 l 826 586 l 826 150 l 658 0 l 258 0 l 92 150 l 92 438 l 625 438 l 625 504 l 556 554 l 101 554 l 101 735 l 658 735 z "},"Ǧ":{"ha":975,"x_min":101,"x_max":875,"o":"m 101 0 m 285 0 l 101 197 l 101 768 l 294 965 l 682 965 l 875 768 l 875 613 l 675 613 l 675 706 l 581 783 l 399 783 l 306 706 l 306 263 l 399 185 l 594 185 l 685 257 l 685 378 l 471 378 l 471 531 l 875 531 l 875 186 l 700 0 l 285 0 m 365 1001 l 171 1279 l 340 1279 l 486 1107 l 632 1279 l 799 1279 l 607 1001 l 365 1001 z "},"ǧ":{"ha":946,"x_min":92,"x_max":839,"o":"m 92 0 m 151 -235 l 151 -54 l 583 -54 l 636 -18 l 636 122 l 543 50 l 257 50 l 92 199 l 92 585 l 257 735 l 550 735 l 643 663 l 643 735 l 839 735 l 839 -110 l 699 -235 l 151 -235 m 631 292 l 631 488 l 546 543 l 368 543 l 301 494 l 301 285 l 368 235 l 546 235 l 631 292 m 353 781 l 158 1094 l 328 1094 l 475 899 l 621 1094 l 786 1094 l 596 781 l 353 781 z "},"ǰ":{"ha":576,"x_min":-24,"x_max":604,"o":"m 0 0 m 28 -235 l 28 -54 l 138 -54 l 189 -18 l 189 735 l 397 735 l 397 -110 l 257 -235 l 28 -235 m 171 781 l -24 1094 l 146 1094 l 293 899 l 439 1094 l 604 1094 l 414 781 l 171 781 z "},"Ǳ":{"ha":1829,"x_min":115,"x_max":1767,"o":"m 115 0 m 115 0 l 115 965 l 651 965 l 844 768 l 844 197 l 658 0 l 115 0 m 639 275 l 639 692 l 543 768 l 326 768 l 326 196 l 543 196 l 639 275 m 1153 0 l 1013 167 l 1501 768 l 1046 768 l 1046 965 l 1625 965 l 1767 799 l 1276 196 l 1739 196 l 1739 0 l 1153 0 z "},"ǲ":{"ha":1765,"x_min":115,"x_max":1718,"o":"m 115 0 m 115 0 l 115 965 l 651 965 l 844 768 l 844 197 l 658 0 l 115 0 m 639 275 l 639 692 l 543 768 l 326 768 l 326 196 l 543 196 l 639 275 m 1126 0 l 997 131 l 1429 554 l 1029 554 l 1029 735 l 1592 735 l 1718 603 l 1286 181 l 1706 181 l 1706 0 l 1126 0 z "},"ǳ":{"ha":1765,"x_min":92,"x_max":1718,"o":"m 92 0 m 643 0 l 643 72 l 550 0 l 257 0 l 92 149 l 92 585 l 257 735 l 538 735 l 631 663 l 631 965 l 839 965 l 839 0 l 643 0 m 631 247 l 631 488 l 546 543 l 368 543 l 301 494 l 301 240 l 368 190 l 546 190 l 631 247 m 1126 0 l 997 131 l 1429 554 l 1029 554 l 1029 735 l 1592 735 l 1718 603 l 1286 181 l 1706 181 l 1706 0 l 1126 0 z "},"Ǵ":{"ha":975,"x_min":101,"x_max":875,"o":"m 101 0 m 285 0 l 101 197 l 101 768 l 294 965 l 682 965 l 875 768 l 875 613 l 675 613 l 675 706 l 581 783 l 399 783 l 306 706 l 306 263 l 399 185 l 594 185 l 685 257 l 685 378 l 471 378 l 471 531 l 875 531 l 875 186 l 700 0 l 285 0 m 369 1000 l 500 1278 l 707 1278 l 544 1000 l 369 1000 z "},"ǵ":{"ha":946,"x_min":92,"x_max":839,"o":"m 92 0 m 151 -235 l 151 -54 l 583 -54 l 636 -18 l 636 122 l 543 50 l 257 50 l 92 199 l 92 585 l 257 735 l 550 735 l 643 663 l 643 735 l 839 735 l 839 -110 l 699 -235 l 151 -235 m 631 292 l 631 488 l 546 543 l 368 543 l 301 494 l 301 285 l 368 235 l 546 235 l 631 292 m 344 779 l 471 1093 l 676 1093 l 514 779 l 344 779 z "},"Ǹ":{"ha":996,"x_min":115,"x_max":879,"o":"m 115 0 m 681 0 l 321 543 l 321 0 l 115 0 l 115 965 l 331 965 l 675 432 l 675 965 l 879 965 l 879 0 l 681 0 m 442 1000 l 281 1278 l 488 1278 l 617 1000 l 442 1000 z "},"ǹ":{"ha":951,"x_min":106,"x_max":851,"o":"m 106 0 m 644 0 l 644 494 l 578 543 l 400 543 l 315 488 l 315 0 l 106 0 l 106 735 l 301 735 l 301 663 l 394 735 l 686 735 l 851 585 l 851 0 l 644 0 m 422 779 l 258 1093 l 467 1093 l 597 779 l 422 779 z "},"Ș":{"ha":975,"x_min":101,"x_max":875,"o":"m 101 0 m 276 0 l 101 183 l 101 322 l 297 322 l 297 247 l 389 174 l 583 174 l 674 249 l 674 346 l 592 410 l 281 410 l 101 557 l 101 781 l 276 965 l 682 965 l 860 781 l 860 642 l 664 642 l 664 715 l 571 792 l 393 792 l 301 717 l 301 626 l 386 563 l 694 563 l 875 421 l 875 183 l 699 0 l 276 0 m 385 -389 l 385 -53 l 589 -53 l 518 -389 l 385 -389 z "},"ș":{"ha":856,"x_min":81,"x_max":776,"o":"m 81 0 m 94 0 l 94 181 l 524 181 l 579 215 l 579 258 l 521 300 l 235 300 l 81 411 l 81 610 l 221 735 l 750 735 l 750 554 l 336 554 l 279 521 l 279 476 l 340 436 l 624 436 l 776 324 l 776 125 l 636 0 l 94 0 m 326 -389 l 326 -53 l 531 -53 l 460 -389 l 326 -389 z "},"Ț":{"ha":850,"x_min":54,"x_max":794,"o":"m 54 0 m 319 0 l 319 768 l 54 768 l 54 965 l 794 965 l 794 768 l 531 768 l 531 0 l 319 0 m 322 -389 l 322 -53 l 526 -53 l 456 -389 l 322 -389 z "},"ț":{"ha":664,"x_min":51,"x_max":611,"o":"m 51 0 m 385 554 l 385 210 l 439 172 l 611 172 l 611 0 l 319 0 l 178 125 l 178 554 l 51 554 l 51 735 l 178 735 l 178 942 l 385 942 l 385 735 l 611 735 l 611 554 l 385 554 m 272 -389 l 272 -53 l 476 -53 l 406 -389 l 272 -389 z "},"ȷ":{"ha":450,"x_min":-28,"x_max":342,"o":"m -28 -235 l -28 -54 l 82 -54 l 133 -18 l 133 735 l 342 735 l 342 -110 l 201 -235 l -28 -235 z "},"Ɂ":{"ha":894,"x_min":63,"x_max":832,"o":"m 318 0 l 318 408 l 439 518 l 563 518 l 625 568 l 625 717 l 556 768 l 326 768 l 260 717 l 260 635 l 63 635 l 63 813 l 228 965 l 667 965 l 832 813 l 832 482 l 689 349 l 575 349 l 529 315 l 529 0 l 318 0 z "},"ɂ":{"ha":932,"x_min":81,"x_max":840,"o":"m 336 0 l 336 222 l 457 325 l 579 325 l 635 369 l 635 506 l 571 551 l 339 551 l 276 506 l 276 428 l 81 428 l 81 593 l 244 735 l 678 735 l 840 593 l 840 286 l 699 164 l 589 164 l 544 135 l 544 0 l 336 0 z "},"Ɍ":{"ha":1047,"x_min":0,"x_max":978,"o":"m 756 0 l 599 361 l 407 361 l 407 0 l 196 0 l 196 361 l 0 361 l 0 507 l 196 507 l 196 965 l 754 965 l 947 768 l 947 560 l 796 422 l 978 0 l 756 0 m 742 689 l 646 768 l 407 768 l 407 536 l 640 536 l 742 615 l 742 689 z "},"ɍ":{"ha":754,"x_min":3,"x_max":710,"o":"m 164 0 l 164 269 l 3 269 l 3 415 l 164 415 l 164 735 l 358 735 l 358 646 l 483 735 l 704 735 l 704 554 l 483 554 l 372 483 l 372 415 l 710 415 l 710 269 l 372 269 l 372 0 l 164 0 z "},"ɓ":{"ha":946,"x_min":106,"x_max":854,"o":"m 394 0 l 301 72 l 301 0 l 106 0 l 106 896 l 247 1024 l 538 1024 l 538 851 l 369 851 l 315 811 l 315 663 l 407 735 l 689 735 l 854 585 l 854 149 l 689 0 l 394 0 m 644 240 l 644 494 l 578 543 l 400 543 l 315 488 l 315 247 l 400 190 l 578 190 l 644 240 z "},"ɗ":{"ha":1063,"x_min":92,"x_max":1063,"o":"m 643 0 l 643 72 l 550 0 l 257 0 l 92 149 l 92 585 l 257 735 l 538 735 l 631 663 l 631 896 l 774 1024 l 1063 1024 l 1063 851 l 893 851 l 839 811 l 839 0 l 643 0 m 631 247 l 631 488 l 546 543 l 368 543 l 301 494 l 301 240 l 368 190 l 546 190 l 631 247 z "},"ɣ":{"ha":879,"x_min":36,"x_max":843,"o":"m 610 -389 l 271 -389 l 188 -326 l 188 -204 l 342 132 l 36 735 l 261 735 l 440 344 l 619 735 l 843 735 l 538 132 l 692 -204 l 692 -326 l 610 -389 m 439 -60 l 363 -211 l 363 -249 l 392 -268 l 488 -268 l 517 -249 l 517 -211 l 439 -60 z "},"ɲ":{"ha":950,"x_min":-44,"x_max":851,"o":"m -44 -235 l -44 -54 l 53 -54 l 104 -18 l 104 735 l 300 735 l 300 663 l 393 735 l 685 735 l 851 585 l 851 0 l 643 0 l 643 494 l 578 543 l 399 543 l 314 488 l 314 -110 l 172 -235 l -44 -235 z "},"ˆ":{"ha":843,"x_min":106,"x_max":733,"o":"m 568 779 l 419 974 l 275 779 l 106 779 l 300 1093 l 542 1093 l 733 779 l 568 779 z "},"ˇ":{"ha":843,"x_min":106,"x_max":733,"o":"m 300 781 l 106 1094 l 275 1094 l 422 899 l 568 1094 l 733 1094 l 543 781 l 300 781 z "},"˘":{"ha":808,"x_min":106,"x_max":703,"o":"m 221 794 l 106 903 l 106 1093 l 253 1093 l 253 979 l 296 946 l 510 946 l 554 979 l 554 1093 l 703 1093 l 703 903 l 583 794 l 221 794 z "},"˙":{"ha":421,"x_min":106,"x_max":315,"o":"m 106 835 l 106 1024 l 315 1024 l 315 835 l 106 835 z "},"˚":{"ha":632,"x_min":106,"x_max":525,"o":"m 189 786 l 106 863 l 106 1054 l 189 1131 l 443 1131 l 525 1054 l 525 863 l 443 786 l 189 786 m 414 908 l 414 1008 l 382 1035 l 251 1035 l 217 1007 l 217 910 l 249 883 l 383 883 l 414 908 z "},"˛":{"ha":667,"x_min":106,"x_max":560,"o":"m 247 -389 l 106 -260 l 403 0 l 540 0 l 343 -174 l 390 -210 l 560 -210 l 560 -389 l 247 -389 z "},"˜":{"ha":931,"x_min":118,"x_max":813,"o":"m 649 828 l 321 906 l 204 835 l 118 949 l 282 1054 l 611 975 l 735 1054 l 813 935 l 649 828 z "},"˝":{"ha":971,"x_min":138,"x_max":829,"o":"m 499 781 l 624 1094 l 829 1094 l 674 781 l 499 781 m 138 781 l 261 1094 l 468 1094 l 311 781 l 138 781 z "},"̀":{"ha":46,"x_min":-675,"x_max":-336,"o":"m -336 779 m -511 779 l -675 1093 l -467 1093 l -336 779 l -511 779 z "},"́":{"ha":46,"x_min":-604,"x_max":-272,"o":"m -272 779 m -604 779 l -478 1093 l -272 1093 l -435 779 l -604 779 z "},"̂":{"ha":46,"x_min":-786,"x_max":-158,"o":"m -158 779 m -324 779 l -472 974 l -617 779 l -786 779 l -592 1093 l -350 1093 l -158 779 l -324 779 z "},"̃":{"ha":46,"x_min":-821,"x_max":-126,"o":"m -126 828 m -290 828 l -618 906 l -735 835 l -821 949 l -657 1054 l -328 975 l -204 1054 l -126 935 l -290 828 z "},"̄":{"ha":46,"x_min":-826,"x_max":-119,"o":"m -119 849 m -826 849 l -826 994 l -119 994 l -119 849 l -826 849 z "},"̆":{"ha":46,"x_min":-771,"x_max":-174,"o":"m -174 794 m -656 794 l -771 903 l -771 1093 l -624 1093 l -624 979 l -581 946 l -367 946 l -322 979 l -322 1093 l -174 1093 l -174 903 l -293 794 l -656 794 z "},"̇":{"ha":46,"x_min":-578,"x_max":-368,"o":"m -368 835 m -578 835 l -578 1024 l -368 1024 l -368 835 l -578 835 z "},"̈":{"ha":46,"x_min":-754,"x_max":-189,"o":"m -189 835 m -397 835 l -397 1024 l -189 1024 l -189 835 l -397 835 m -754 835 l -754 1024 l -544 1024 l -544 835 l -754 835 z "},"̉":{"ha":44,"x_min":-653,"x_max":-293,"o":"m -444 829 l -467 813 l -467 778 l -571 778 l -571 864 l -506 922 l -443 922 l -411 947 l -411 992 l -444 1018 l -653 1018 l -653 1124 l -382 1124 l -293 1042 l -293 900 l -368 829 l -444 829 z "},"̊":{"ha":46,"x_min":-682,"x_max":-262,"o":"m -262 786 m -599 786 l -682 863 l -682 1054 l -599 1131 l -344 1131 l -262 1054 l -262 863 l -344 786 l -599 786 m -374 908 l -374 1008 l -406 1035 l -536 1035 l -571 1007 l -571 910 l -539 883 l -404 883 l -374 908 z "},"̋":{"ha":46,"x_min":-783,"x_max":-92,"o":"m -92 781 m -422 781 l -297 1094 l -92 1094 l -247 781 l -422 781 m -783 781 l -660 1094 l -453 1094 l -610 781 l -783 781 z "},"̌":{"ha":46,"x_min":-786,"x_max":-158,"o":"m -158 781 m -592 781 l -786 1094 l -617 1094 l -469 899 l -324 1094 l -158 1094 l -349 781 l -592 781 z "},"̓":{"ha":46,"x_min":-578,"x_max":-368,"o":"m -368 789 m -578 789 l -578 965 l -506 1165 l -394 1165 l -437 978 l -368 978 l -368 789 l -578 789 z "},"̛":{"ha":114,"x_min":-287,"x_max":114,"o":"m -287 624 l -287 735 l -90 735 l -46 769 l -46 933 l 114 933 l 114 735 l -7 624 l -287 624 z "},"̣":{"ha":44,"x_min":-576,"x_max":-368,"o":"m -368 -106 m -576 -274 l -576 -106 l -368 -106 l -368 -274 l -576 -274 z "},"̦":{"ha":46,"x_min":-575,"x_max":-371,"o":"m -371 -53 m -575 -389 l -575 -53 l -371 -53 l -442 -389 l -575 -389 z "},"̨":{"ha":46,"x_min":-749,"x_max":-294,"o":"m -294 0 m -607 -389 l -749 -260 l -451 0 l -314 0 l -511 -174 l -464 -210 l -294 -210 l -294 -389 l -607 -389 z "},"̭":{"ha":46,"x_min":-786,"x_max":-158,"o":"m -158 -111 m -325 -389 l -472 -218 l -617 -389 l -786 -389 l -593 -111 l -350 -111 l -158 -389 l -325 -389 z "},"΄":{"ha":317,"x_min":44,"x_max":275,"o":"m 44 779 l 76 1093 l 275 1093 l 211 779 l 44 779 z "},"΅":{"ha":806,"x_min":32,"x_max":771,"o":"m 32 779 m 32 835 l 32 1024 l 242 1024 l 242 835 l 32 835 m 289 779 l 321 1093 l 519 1093 l 456 779 l 289 779 m 561 835 l 561 1024 l 771 1024 l 771 835 l 561 835 z "},"Ά":{"ha":1022,"x_min":44,"x_max":978,"o":"m 44 0 m 44 779 l 76 1093 l 275 1093 l 211 779 l 44 779 m 764 0 l 728 140 l 422 140 l 386 0 l 174 0 l 422 965 l 729 965 l 978 0 l 764 0 m 461 294 l 689 294 l 575 740 l 461 294 z "},"·":{"ha":421,"x_min":106,"x_max":315,"o":"m 106 546 m 106 546 l 106 735 l 315 735 l 315 546 l 106 546 z "},"Έ":{"ha":1042,"x_min":44,"x_max":960,"o":"m 44 0 m 44 779 l 76 1093 l 275 1093 l 211 779 l 44 779 m 308 0 l 308 965 l 960 965 l 960 768 l 519 768 l 519 578 l 799 578 l 799 413 l 519 413 l 519 196 l 960 196 l 960 0 l 308 0 z "},"Ή":{"ha":1172,"x_min":44,"x_max":1056,"o":"m 44 0 m 44 779 l 76 1093 l 275 1093 l 211 779 l 44 779 m 846 0 l 846 407 l 519 407 l 519 0 l 308 0 l 308 965 l 519 965 l 519 585 l 846 585 l 846 965 l 1056 965 l 1056 0 l 846 0 z "},"Ί":{"ha":636,"x_min":44,"x_max":519,"o":"m 44 0 m 44 779 l 76 1093 l 275 1093 l 211 779 l 44 779 m 308 0 l 308 965 l 519 965 l 519 0 l 308 0 z "},"Ό":{"ha":1156,"x_min":44,"x_max":1057,"o":"m 44 0 m 44 779 l 76 1093 l 275 1093 l 211 779 l 44 779 m 463 0 l 279 197 l 279 768 l 472 965 l 863 965 l 1057 768 l 1057 197 l 871 0 l 463 0 m 850 275 l 850 692 l 754 768 l 582 768 l 485 692 l 485 275 l 579 196 l 757 196 l 850 275 z "},"Ύ":{"ha":1183,"x_min":44,"x_max":1147,"o":"m 44 0 m 44 779 l 76 1093 l 275 1093 l 211 779 l 44 779 m 624 0 l 624 431 l 296 965 l 526 965 l 724 651 l 918 965 l 1147 965 l 835 433 l 835 0 l 624 0 z "},"Ώ":{"ha":1167,"x_min":44,"x_max":1082,"o":"m 44 0 m 44 779 l 76 1093 l 275 1093 l 211 779 l 44 779 m 710 0 l 710 211 l 846 350 l 846 690 l 749 768 l 578 768 l 481 690 l 481 350 l 619 211 l 619 0 l 246 0 l 246 196 l 432 196 l 272 351 l 272 768 l 469 965 l 860 965 l 1053 768 l 1053 351 l 894 196 l 1082 196 l 1082 0 l 710 0 z "},"ΐ":{"ha":760,"x_min":0,"x_max":739,"o":"m 0 0 m 369 0 l 229 125 l 229 735 l 436 735 l 436 210 l 489 172 l 604 172 l 604 0 l 369 0 m 0 835 l 0 1024 l 210 1024 l 210 835 l 0 835 m 256 779 l 288 1093 l 486 1093 l 422 779 l 256 779 m 529 835 l 529 1024 l 739 1024 l 739 835 l 529 835 z "},"Α":{"ha":896,"x_min":46,"x_max":850,"o":"m 46 0 m 636 0 l 600 140 l 294 140 l 258 0 l 46 0 l 294 965 l 601 965 l 850 0 l 636 0 m 333 294 l 561 294 l 447 740 l 333 294 z "},"Β":{"ha":981,"x_min":115,"x_max":879,"o":"m 115 0 m 115 0 l 115 965 l 679 965 l 872 768 l 872 615 l 764 504 l 879 382 l 879 197 l 688 0 l 115 0 m 665 639 l 665 708 l 569 786 l 326 786 l 326 571 l 588 571 l 665 639 m 674 276 l 674 351 l 593 419 l 326 419 l 326 196 l 578 196 l 674 276 z "},"Γ":{"ha":792,"x_min":115,"x_max":735,"o":"m 115 0 m 115 0 l 115 965 l 735 965 l 735 768 l 326 768 l 326 0 l 115 0 z "},"Δ":{"ha":896,"x_min":46,"x_max":850,"o":"m 46 0 l 294 965 l 601 965 l 850 0 l 46 0 m 447 740 l 293 196 l 603 196 l 447 740 z "},"Ε":{"ha":849,"x_min":115,"x_max":767,"o":"m 115 0 m 115 0 l 115 965 l 767 965 l 767 768 l 326 768 l 326 578 l 606 578 l 606 413 l 326 413 l 326 196 l 767 196 l 767 0 l 115 0 z "},"Ζ":{"ha":883,"x_min":65,"x_max":819,"o":"m 65 0 m 206 0 l 65 167 l 554 768 l 99 768 l 99 965 l 678 965 l 819 799 l 329 196 l 792 196 l 792 0 l 206 0 z "},"Η":{"ha":978,"x_min":115,"x_max":863,"o":"m 115 0 m 653 0 l 653 407 l 326 407 l 326 0 l 115 0 l 115 965 l 326 965 l 326 585 l 653 585 l 653 965 l 863 965 l 863 0 l 653 0 z "},"Θ":{"ha":979,"x_min":101,"x_max":879,"o":"m 285 0 l 101 197 l 101 768 l 294 965 l 685 965 l 879 768 l 879 197 l 693 0 l 285 0 m 683 275 l 683 692 l 588 768 l 392 768 l 297 692 l 297 275 l 390 196 l 590 196 l 683 275 m 351 413 l 351 578 l 628 578 l 628 413 l 351 413 z "},"Ι":{"ha":443,"x_min":115,"x_max":326,"o":"m 115 0 m 115 0 l 115 965 l 326 965 l 326 0 l 115 0 z "},"Κ":{"ha":907,"x_min":115,"x_max":851,"o":"m 115 0 m 115 0 l 115 965 l 326 965 l 326 547 l 607 965 l 831 965 l 514 533 l 851 0 l 629 0 l 326 478 l 326 0 l 115 0 z "},"Λ":{"ha":896,"x_min":46,"x_max":850,"o":"m 561 965 l 850 0 l 631 0 l 447 610 l 265 0 l 46 0 l 332 965 l 561 965 z "},"Μ":{"ha":1267,"x_min":115,"x_max":1150,"o":"m 115 0 m 946 0 l 946 547 l 713 0 l 554 0 l 319 547 l 319 0 l 115 0 l 115 965 l 361 965 l 633 297 l 906 965 l 1150 965 l 1150 0 l 946 0 z "},"Ν":{"ha":996,"x_min":115,"x_max":879,"o":"m 115 0 m 681 0 l 321 543 l 321 0 l 115 0 l 115 965 l 331 965 l 675 432 l 675 965 l 879 965 l 879 0 l 681 0 z "},"Ξ":{"ha":849,"x_min":81,"x_max":732,"o":"m 81 0 l 81 196 l 732 196 l 732 0 l 81 0 m 81 768 l 81 965 l 732 965 l 732 768 l 81 768 m 178 413 l 178 578 l 636 578 l 636 413 l 178 413 z "},"Ο":{"ha":979,"x_min":101,"x_max":879,"o":"m 101 0 m 285 0 l 101 197 l 101 768 l 294 965 l 685 965 l 879 768 l 879 197 l 693 0 l 285 0 m 672 275 l 672 692 l 576 768 l 404 768 l 307 692 l 307 275 l 401 196 l 579 196 l 672 275 z "},"Π":{"ha":978,"x_min":115,"x_max":863,"o":"m 115 0 m 653 0 l 653 768 l 326 768 l 326 0 l 115 0 l 115 965 l 863 965 l 863 0 l 653 0 z "},"Ρ":{"ha":933,"x_min":115,"x_max":868,"o":"m 115 0 m 115 0 l 115 965 l 674 965 l 868 768 l 868 536 l 663 338 l 326 338 l 326 0 l 115 0 m 663 689 l 565 768 l 326 768 l 326 519 l 565 519 l 663 597 l 663 689 z "},"Σ":{"ha":864,"x_min":61,"x_max":782,"o":"m 203 0 l 61 167 l 325 482 l 61 799 l 203 965 l 782 965 l 782 768 l 328 768 l 565 493 l 315 196 l 782 196 l 782 0 l 203 0 z "},"Τ":{"ha":850,"x_min":54,"x_max":794,"o":"m 54 0 m 319 0 l 319 768 l 54 768 l 54 965 l 794 965 l 794 768 l 531 768 l 531 0 l 319 0 z "},"Υ":{"ha":925,"x_min":36,"x_max":888,"o":"m 36 0 m 364 0 l 364 431 l 36 965 l 267 965 l 464 651 l 658 965 l 888 965 l 575 433 l 575 0 l 364 0 z "},"Φ":{"ha":1233,"x_min":65,"x_max":1169,"o":"m 65 0 m 511 0 l 511 139 l 249 139 l 65 336 l 65 629 l 258 826 l 511 826 l 511 965 l 722 965 l 722 826 l 975 826 l 1169 629 l 1169 336 l 983 139 l 722 139 l 722 0 l 511 0 m 963 415 l 963 568 l 867 647 l 722 647 l 722 335 l 868 335 l 963 415 m 365 335 l 511 335 l 511 647 l 368 647 l 272 568 l 272 415 l 365 335 z "},"Χ":{"ha":953,"x_min":54,"x_max":897,"o":"m 54 0 m 54 0 l 354 506 l 82 965 l 313 965 l 482 688 l 660 965 l 872 965 l 597 500 l 897 0 l 665 0 l 469 314 l 268 0 l 54 0 z "},"Ψ":{"ha":1306,"x_min":101,"x_max":1204,"o":"m 547 0 l 547 278 l 285 278 l 101 475 l 101 965 l 307 965 l 307 554 l 401 474 l 547 474 l 547 965 l 757 965 l 757 474 l 904 474 l 997 554 l 997 965 l 1204 965 l 1204 475 l 1019 278 l 757 278 l 757 0 l 547 0 z "},"Ω":{"ha":1006,"x_min":85,"x_max":921,"o":"m 549 0 l 549 211 l 685 350 l 685 690 l 588 768 l 417 768 l 319 690 l 319 350 l 458 211 l 458 0 l 85 0 l 85 196 l 271 196 l 111 351 l 111 768 l 308 965 l 699 965 l 892 768 l 892 351 l 733 196 l 921 196 l 921 0 l 549 0 z "},"Ϊ":{"ha":563,"x_min":0,"x_max":563,"o":"m 0 0 m 175 0 l 175 965 l 386 965 l 386 0 l 175 0 m 356 1046 l 356 1214 l 563 1214 l 563 1046 l 356 1046 m 0 1046 l 0 1214 l 208 1214 l 208 1046 l 0 1046 z "},"Ϋ":{"ha":925,"x_min":36,"x_max":888,"o":"m 36 0 m 364 0 l 364 431 l 36 965 l 267 965 l 464 651 l 658 965 l 888 965 l 575 433 l 575 0 l 364 0 m 539 1046 l 539 1214 l 746 1214 l 746 1046 l 539 1046 m 183 1046 l 183 1214 l 392 1214 l 392 1046 l 183 1046 z "},"ά":{"ha":946,"x_min":92,"x_max":839,"o":"m 92 0 m 643 0 l 643 72 l 550 0 l 257 0 l 92 149 l 92 585 l 257 735 l 550 735 l 643 663 l 643 735 l 839 735 l 839 0 l 643 0 m 631 247 l 631 488 l 546 543 l 368 543 l 301 494 l 301 240 l 368 190 l 546 190 l 631 247 m 367 779 l 399 1093 l 597 1093 l 533 779 l 367 779 z "},"έ":{"ha":906,"x_min":92,"x_max":815,"o":"m 92 0 m 671 0 l 814 150 l 814 256 l 617 256 l 617 219 l 547 160 l 367 160 l 296 219 l 296 260 l 358 308 l 553 308 l 553 429 l 363 429 l 300 479 l 300 522 l 372 579 l 544 579 l 617 522 l 617 479 l 814 479 l 814 585 l 663 735 l 249 735 l 96 585 l 96 468 l 182 385 l 92 290 l 92 150 l 242 0 l 671 0 m 347 779 l 379 1093 l 578 1093 l 514 779 l 347 779 z "},"ή":{"ha":951,"x_min":106,"x_max":851,"o":"m 106 0 m 376 779 l 408 1093 l 607 1093 l 543 779 l 376 779 m 644 -235 l 644 494 l 578 543 l 400 543 l 315 488 l 315 0 l 106 0 l 106 735 l 301 735 l 301 663 l 394 735 l 686 735 l 851 585 l 851 -235 l 644 -235 z "},"ί":{"ha":528,"x_min":100,"x_max":475,"o":"m 100 0 m 240 0 l 100 125 l 100 735 l 307 735 l 307 210 l 360 172 l 475 172 l 475 0 l 240 0 m 121 779 l 153 1093 l 351 1093 l 288 779 l 121 779 z "},"ΰ":{"ha":939,"x_min":83,"x_max":851,"o":"m 83 0 m 265 0 l 100 149 l 100 735 l 306 735 l 306 240 l 375 190 l 564 190 l 631 240 l 631 735 l 840 735 l 840 149 l 674 0 l 265 0 m 83 835 l 83 1024 l 293 1024 l 293 835 l 83 835 m 357 779 l 389 1093 l 588 1093 l 524 779 l 357 779 m 642 835 l 642 1024 l 851 1024 l 851 835 l 642 835 z "},"α":{"ha":946,"x_min":92,"x_max":839,"o":"m 643 0 l 643 72 l 550 0 l 257 0 l 92 149 l 92 585 l 257 735 l 550 735 l 643 663 l 643 735 l 839 735 l 839 0 l 643 0 m 631 247 l 631 488 l 546 543 l 368 543 l 301 494 l 301 240 l 368 190 l 546 190 l 631 247 z "},"β":{"ha":961,"x_min":106,"x_max":861,"o":"m 404 0 l 315 61 l 315 -235 l 106 -235 l 106 840 l 247 965 l 717 965 l 857 840 l 857 604 l 771 519 l 861 426 l 861 150 l 713 0 l 404 0 m 658 238 l 658 376 l 596 426 l 436 426 l 436 582 l 589 582 l 650 632 l 650 763 l 597 800 l 367 800 l 315 763 l 315 253 l 411 179 l 586 179 l 658 238 z "},"γ":{"ha":879,"x_min":36,"x_max":843,"o":"m 36 0 m 342 -235 l 342 -40 l 36 735 l 256 735 l 440 260 l 628 735 l 843 735 l 550 -40 l 550 -235 l 342 -235 z "},"δ":{"ha":929,"x_min":92,"x_max":839,"o":"m 257 0 l 92 151 l 92 546 l 257 699 l 407 699 l 156 892 l 283 1024 l 804 1024 l 804 851 l 428 851 l 839 529 l 839 151 l 672 0 l 257 0 m 628 242 l 628 483 l 547 538 l 368 538 l 297 488 l 297 242 l 368 190 l 563 190 l 628 242 z "},"ε":{"ha":906,"x_min":92,"x_max":814,"o":"m 240 0 l 92 150 l 92 290 l 182 385 l 97 468 l 97 585 l 247 735 l 663 735 l 814 585 l 814 479 l 617 479 l 617 522 l 543 579 l 374 579 l 300 522 l 300 479 l 363 429 l 551 429 l 551 308 l 357 308 l 294 260 l 294 219 l 367 160 l 546 160 l 617 219 l 617 256 l 814 256 l 814 150 l 671 0 l 240 0 z "},"ζ":{"ha":897,"x_min":92,"x_max":826,"o":"m 619 -235 l 619 -50 l 550 0 l 257 0 l 92 151 l 92 432 l 525 851 l 124 851 l 124 1024 l 686 1024 l 813 892 l 297 383 l 297 242 l 368 190 l 660 190 l 826 39 l 826 -235 l 619 -235 z "},"η":{"ha":951,"x_min":106,"x_max":851,"o":"m 644 -235 l 644 494 l 578 543 l 400 543 l 315 488 l 315 0 l 106 0 l 106 735 l 301 735 l 301 663 l 394 735 l 686 735 l 851 585 l 851 -235 l 644 -235 z "},"θ":{"ha":946,"x_min":100,"x_max":847,"o":"m 265 0 l 100 149 l 100 872 l 265 1024 l 681 1024 l 847 872 l 847 149 l 681 0 l 265 0 m 643 238 l 643 443 l 300 443 l 300 238 l 368 186 l 576 186 l 643 238 m 643 786 l 576 835 l 368 835 l 300 786 l 300 606 l 643 606 l 643 786 z "},"ι":{"ha":528,"x_min":100,"x_max":475,"o":"m 240 0 l 100 125 l 100 735 l 307 735 l 307 210 l 360 172 l 475 172 l 475 0 l 240 0 z "},"κ":{"ha":911,"x_min":106,"x_max":825,"o":"m 106 0 m 106 0 l 106 735 l 315 735 l 315 419 l 568 735 l 800 735 l 525 407 l 825 0 l 582 0 l 315 361 l 315 0 l 106 0 z "},"λ":{"ha":879,"x_min":36,"x_max":843,"o":"m 36 0 l 356 786 l 347 811 l 292 851 l 114 851 l 114 1024 l 381 1024 l 497 925 l 843 0 l 624 0 l 449 514 l 254 0 l 36 0 z "},"μ":{"ha":1015,"x_min":106,"x_max":961,"o":"m 765 0 l 674 85 l 579 0 l 383 0 l 315 51 l 315 -235 l 106 -235 l 106 735 l 315 735 l 315 244 l 390 190 l 572 190 l 632 238 l 632 735 l 840 735 l 840 208 l 885 172 l 961 172 l 961 0 l 765 0 z "},"ν":{"ha":879,"x_min":36,"x_max":843,"o":"m 36 0 m 328 0 l 36 735 l 256 735 l 440 260 l 628 735 l 843 735 l 563 0 l 328 0 z "},"ξ":{"ha":917,"x_min":92,"x_max":826,"o":"m 619 -235 l 619 -51 l 550 0 l 240 0 l 92 151 l 92 443 l 206 561 l 144 624 l 144 746 l 278 851 l 124 851 l 124 1024 l 774 1024 l 774 851 l 508 851 l 349 724 l 349 653 l 403 607 l 656 607 l 656 439 l 364 439 l 294 385 l 294 250 l 367 190 l 660 190 l 826 39 l 826 -235 l 619 -235 z "},"ο":{"ha":929,"x_min":92,"x_max":839,"o":"m 92 0 m 257 0 l 92 149 l 92 585 l 257 735 l 672 735 l 839 585 l 839 149 l 672 0 l 257 0 m 628 240 l 628 494 l 563 543 l 367 543 l 297 494 l 297 240 l 367 190 l 563 190 l 628 240 z "},"π":{"ha":1185,"x_min":51,"x_max":1078,"o":"m 847 0 l 707 121 l 707 554 l 397 554 l 397 0 l 189 0 l 189 554 l 51 554 l 51 735 l 1078 735 l 1078 554 l 914 554 l 914 210 l 967 172 l 1078 172 l 1078 0 l 847 0 z "},"ρ":{"ha":938,"x_min":100,"x_max":847,"o":"m 403 0 l 308 72 l 308 -235 l 100 -235 l 100 585 l 265 735 l 681 735 l 847 585 l 847 149 l 681 0 l 403 0 m 636 240 l 636 494 l 571 543 l 375 543 l 306 494 l 306 247 l 393 190 l 571 190 l 636 240 z "},"ς":{"ha":917,"x_min":92,"x_max":826,"o":"m 619 -235 l 619 -49 l 550 0 l 257 0 l 92 149 l 92 585 l 257 735 l 657 735 l 826 585 l 826 433 l 628 433 l 628 494 l 560 543 l 367 543 l 297 494 l 297 240 l 367 190 l 660 190 l 826 40 l 826 -235 l 619 -235 z "},"σ":{"ha":1013,"x_min":92,"x_max":961,"o":"m 257 0 l 92 149 l 92 585 l 257 735 l 961 735 l 961 554 l 736 554 l 831 482 l 831 149 l 664 0 l 257 0 m 619 240 l 619 496 l 535 554 l 367 554 l 297 506 l 297 240 l 367 190 l 554 190 l 619 240 z "},"τ":{"ha":868,"x_min":53,"x_max":817,"o":"m 461 0 l 319 125 l 319 554 l 53 554 l 53 735 l 817 735 l 817 554 l 528 554 l 528 210 l 582 172 l 700 172 l 700 0 l 461 0 z "},"υ":{"ha":939,"x_min":100,"x_max":840,"o":"m 265 0 l 100 149 l 100 735 l 306 735 l 306 240 l 375 190 l 564 190 l 631 240 l 631 735 l 840 735 l 840 149 l 674 0 l 265 0 z "},"φ":{"ha":1256,"x_min":92,"x_max":1165,"o":"m 92 0 m 524 -235 l 524 0 l 257 0 l 92 149 l 92 585 l 257 735 l 524 735 l 524 965 l 732 965 l 732 735 l 999 735 l 1165 585 l 1165 149 l 999 0 l 732 0 l 732 -235 l 524 -235 m 367 190 l 524 190 l 524 543 l 367 543 l 297 494 l 297 240 l 367 190 m 954 240 l 954 494 l 888 543 l 732 543 l 732 190 l 888 190 l 954 240 z "},"χ":{"ha":890,"x_min":7,"x_max":882,"o":"m 7 -235 l 321 279 l 36 735 l 268 735 l 450 446 l 640 735 l 853 735 l 567 263 l 882 -235 l 644 -235 l 438 93 l 219 -235 l 7 -235 z "},"ψ":{"ha":1265,"x_min":100,"x_max":1167,"o":"m 529 -235 l 529 0 l 265 0 l 100 149 l 100 735 l 306 735 l 306 240 l 375 190 l 529 190 l 529 883 l 738 883 l 738 190 l 889 190 l 956 240 l 956 735 l 1167 735 l 1167 149 l 1000 0 l 738 0 l 738 -235 l 529 -235 z "},"ω":{"ha":1238,"x_min":100,"x_max":1122,"o":"m 688 0 l 613 68 l 539 0 l 265 0 l 100 149 l 100 735 l 306 735 l 306 240 l 375 190 l 475 190 l 522 231 l 522 582 l 704 582 l 704 231 l 751 190 l 846 190 l 915 240 l 915 735 l 1122 735 l 1122 149 l 956 0 l 688 0 z "},"ϊ":{"ha":608,"x_min":0,"x_max":565,"o":"m 0 0 m 321 0 l 181 125 l 181 735 l 388 735 l 388 210 l 440 172 l 556 172 l 556 0 l 321 0 m 357 835 l 357 1024 l 565 1024 l 565 835 l 357 835 m 0 835 l 0 1024 l 210 1024 l 210 835 l 0 835 z "},"ϋ":{"ha":939,"x_min":100,"x_max":840,"o":"m 100 0 m 265 0 l 100 149 l 100 735 l 306 735 l 306 240 l 375 190 l 564 190 l 631 240 l 631 735 l 840 735 l 840 149 l 674 0 l 265 0 m 543 835 l 543 1024 l 751 1024 l 751 835 l 543 835 m 186 835 l 186 1024 l 396 1024 l 396 835 l 186 835 z "},"ό":{"ha":929,"x_min":92,"x_max":839,"o":"m 92 0 m 257 0 l 92 149 l 92 585 l 257 735 l 672 735 l 839 585 l 839 149 l 672 0 l 257 0 m 628 240 l 628 494 l 563 543 l 367 543 l 297 494 l 297 240 l 367 190 l 563 190 l 628 240 m 367 779 l 399 1093 l 597 1093 l 533 779 l 367 779 z "},"ύ":{"ha":939,"x_min":100,"x_max":840,"o":"m 100 0 m 265 0 l 100 149 l 100 735 l 306 735 l 306 240 l 375 190 l 564 190 l 631 240 l 631 735 l 840 735 l 840 149 l 674 0 l 265 0 m 369 779 l 401 1093 l 600 1093 l 536 779 l 369 779 z "},"ώ":{"ha":1238,"x_min":100,"x_max":1122,"o":"m 100 0 m 688 0 l 613 68 l 539 0 l 265 0 l 100 149 l 100 735 l 306 735 l 306 240 l 375 190 l 475 190 l 522 231 l 522 582 l 704 582 l 704 231 l 751 190 l 846 190 l 915 240 l 915 735 l 1122 735 l 1122 149 l 956 0 l 688 0 m 522 779 l 554 1093 l 753 1093 l 689 779 l 522 779 z "},"Ѐ":{"ha":849,"x_min":115,"x_max":767,"o":"m 115 0 m 115 0 l 115 965 l 767 965 l 767 768 l 326 768 l 326 578 l 606 578 l 606 413 l 326 413 l 326 196 l 767 196 l 767 0 l 115 0 m 390 1000 l 229 1278 l 436 1278 l 565 1000 l 390 1000 z "},"Ё":{"ha":849,"x_min":115,"x_max":767,"o":"m 115 0 m 115 0 l 115 965 l 767 965 l 767 768 l 326 768 l 326 578 l 606 578 l 606 413 l 326 413 l 326 196 l 767 196 l 767 0 l 115 0 m 519 1046 l 519 1214 l 726 1214 l 726 1046 l 519 1046 m 164 1046 l 164 1214 l 372 1214 l 372 1046 l 164 1046 z "},"Ђ":{"ha":1197,"x_min":57,"x_max":1083,"o":"m 694 -235 l 694 -44 l 808 -44 l 876 8 l 876 356 l 783 436 l 579 436 l 579 0 l 368 0 l 368 768 l 57 768 l 57 965 l 957 965 l 957 768 l 579 768 l 579 632 l 900 632 l 1083 435 l 1083 -82 l 918 -235 l 694 -235 z "},"Ѓ":{"ha":792,"x_min":115,"x_max":735,"o":"m 115 0 m 115 0 l 115 965 l 735 965 l 735 768 l 326 768 l 326 0 l 115 0 m 290 1000 l 421 1278 l 628 1278 l 465 1000 l 290 1000 z "},"Є":{"ha":975,"x_min":101,"x_max":875,"o":"m 285 0 l 101 197 l 101 768 l 294 965 l 682 965 l 875 768 l 875 618 l 674 618 l 674 690 l 576 768 l 404 768 l 307 690 l 307 571 l 658 571 l 658 419 l 307 419 l 307 276 l 401 196 l 579 196 l 674 276 l 674 372 l 875 372 l 875 197 l 690 0 l 285 0 z "},"Ѕ":{"ha":975,"x_min":101,"x_max":875,"o":"m 101 0 m 276 0 l 101 183 l 101 322 l 297 322 l 297 247 l 389 174 l 583 174 l 674 249 l 674 346 l 592 410 l 281 410 l 101 557 l 101 781 l 276 965 l 682 965 l 860 781 l 860 642 l 664 642 l 664 715 l 571 792 l 393 792 l 301 717 l 301 626 l 386 563 l 694 563 l 875 421 l 875 183 l 699 0 l 276 0 z "},"І":{"ha":443,"x_min":115,"x_max":326,"o":"m 115 0 m 115 0 l 115 965 l 326 965 l 326 0 l 115 0 z "},"Ї":{"ha":563,"x_min":0,"x_max":563,"o":"m 0 0 m 175 0 l 175 965 l 386 965 l 386 0 l 175 0 m 356 1046 l 356 1214 l 563 1214 l 563 1046 l 356 1046 m 0 1046 l 0 1214 l 208 1214 l 208 1046 l 0 1046 z "},"Ј":{"ha":924,"x_min":54,"x_max":817,"o":"m 54 0 m 242 0 l 54 197 l 54 372 l 257 372 l 257 276 l 351 196 l 513 196 l 610 276 l 610 965 l 817 965 l 817 197 l 629 0 l 242 0 z "},"Љ":{"ha":1558,"x_min":54,"x_max":1494,"o":"m 742 0 l 742 768 l 567 768 l 438 128 l 301 0 l 54 0 l 54 196 l 194 196 l 256 247 l 399 965 l 953 965 l 953 618 l 1285 618 l 1494 419 l 1494 197 l 1300 0 l 742 0 m 1289 357 l 1188 436 l 953 436 l 953 197 l 1190 197 l 1289 276 l 1289 357 z "},"Њ":{"ha":1471,"x_min":115,"x_max":1406,"o":"m 653 0 l 653 442 l 326 442 l 326 0 l 115 0 l 115 965 l 326 965 l 326 618 l 653 618 l 653 965 l 864 965 l 864 618 l 1196 618 l 1406 419 l 1406 197 l 1213 0 l 653 0 m 1200 357 l 1099 436 l 864 436 l 864 197 l 1103 197 l 1200 276 l 1200 357 z "},"Ћ":{"ha":1185,"x_min":57,"x_max":1083,"o":"m 957 768 l 564 768 l 564 622 l 900 622 l 1083 425 l 1083 0 l 876 0 l 876 346 l 783 428 l 564 428 l 564 0 l 353 0 l 353 768 l 57 768 l 57 965 l 957 965 l 957 768 z "},"Ќ":{"ha":907,"x_min":115,"x_max":851,"o":"m 115 0 m 115 0 l 115 965 l 326 965 l 326 547 l 607 965 l 831 965 l 514 533 l 851 0 l 629 0 l 326 478 l 326 0 l 115 0 m 288 1000 l 418 1278 l 625 1278 l 463 1000 l 288 1000 z "},"Ѝ":{"ha":997,"x_min":115,"x_max":882,"o":"m 115 0 m 672 0 l 672 554 l 326 0 l 115 0 l 115 965 l 326 965 l 326 410 l 672 965 l 882 965 l 882 0 l 672 0 m 399 1000 l 238 1278 l 444 1278 l 574 1000 l 399 1000 z "},"Ў":{"ha":1011,"x_min":36,"x_max":974,"o":"m 36 0 m 93 0 l 93 196 l 315 196 l 381 247 l 388 261 l 36 965 l 253 965 l 497 476 l 746 965 l 974 965 l 551 128 l 415 0 l 93 0 m 638 1008 l 276 1008 l 161 1104 l 161 1278 l 307 1278 l 307 1172 l 350 1143 l 567 1143 l 608 1172 l 608 1278 l 757 1278 l 757 1104 l 638 1008 z "},"Џ":{"ha":978,"x_min":115,"x_max":863,"o":"m 401 -235 l 401 0 l 115 0 l 115 965 l 326 965 l 326 196 l 653 196 l 653 965 l 863 965 l 863 0 l 576 0 l 576 -235 l 401 -235 z "},"А":{"ha":896,"x_min":46,"x_max":850,"o":"m 46 0 m 636 0 l 600 140 l 294 140 l 258 0 l 46 0 l 294 965 l 601 965 l 850 0 l 636 0 m 333 294 l 561 294 l 447 740 l 333 294 z "},"Б":{"ha":933,"x_min":115,"x_max":868,"o":"m 115 0 l 115 965 l 735 965 l 735 768 l 326 768 l 326 618 l 658 618 l 868 419 l 868 197 l 674 0 l 115 0 m 663 357 l 561 436 l 326 436 l 326 197 l 565 197 l 663 276 l 663 357 z "},"В":{"ha":981,"x_min":115,"x_max":879,"o":"m 115 0 m 115 0 l 115 965 l 679 965 l 872 768 l 872 615 l 764 504 l 879 382 l 879 197 l 688 0 l 115 0 m 665 639 l 665 708 l 569 786 l 326 786 l 326 571 l 588 571 l 665 639 m 674 276 l 674 351 l 593 419 l 326 419 l 326 196 l 578 196 l 674 276 z "},"Г":{"ha":792,"x_min":115,"x_max":735,"o":"m 115 0 l 115 965 l 735 965 l 735 768 l 326 768 l 326 0 l 115 0 z "},"Д":{"ha":1204,"x_min":54,"x_max":1150,"o":"m 54 -235 l 54 196 l 215 196 l 276 247 l 419 965 l 974 965 l 974 196 l 1150 196 l 1150 -235 l 974 -235 l 974 0 l 231 0 l 231 -235 l 54 -235 m 479 235 l 440 196 l 764 196 l 764 768 l 589 768 l 479 235 z "},"Е":{"ha":849,"x_min":115,"x_max":767,"o":"m 115 0 m 115 0 l 115 965 l 767 965 l 767 768 l 326 768 l 326 578 l 606 578 l 606 413 l 326 413 l 326 196 l 767 196 l 767 0 l 115 0 z "},"Ж":{"ha":1371,"x_min":56,"x_max":1315,"o":"m 56 0 l 393 532 l 76 965 l 300 965 l 581 564 l 581 965 l 792 965 l 792 564 l 1071 965 l 1294 965 l 979 533 l 1315 0 l 1094 0 l 792 463 l 792 0 l 581 0 l 581 463 l 279 0 l 56 0 z "},"З":{"ha":983,"x_min":97,"x_max":882,"o":"m 97 0 m 282 0 l 97 197 l 97 372 l 299 372 l 299 276 l 393 196 l 581 196 l 678 276 l 678 351 l 597 419 l 407 419 l 407 571 l 592 571 l 669 639 l 669 701 l 574 779 l 396 779 l 299 701 l 299 618 l 97 618 l 97 768 l 290 965 l 682 965 l 876 768 l 876 615 l 767 504 l 882 382 l 882 197 l 690 0 l 282 0 z "},"И":{"ha":997,"x_min":115,"x_max":882,"o":"m 672 0 l 672 554 l 326 0 l 115 0 l 115 965 l 326 965 l 326 410 l 672 965 l 882 965 l 882 0 l 672 0 z "},"Й":{"ha":997,"x_min":115,"x_max":882,"o":"m 115 0 m 672 0 l 672 554 l 326 0 l 115 0 l 115 965 l 326 965 l 326 410 l 672 965 l 882 965 l 882 0 l 672 0 m 675 1008 l 314 1008 l 199 1104 l 199 1278 l 344 1278 l 344 1172 l 388 1143 l 604 1143 l 646 1172 l 646 1278 l 794 1278 l 794 1104 l 675 1008 z "},"К":{"ha":907,"x_min":115,"x_max":851,"o":"m 115 0 l 115 965 l 326 965 l 326 547 l 607 965 l 831 965 l 514 533 l 851 0 l 629 0 l 326 478 l 326 0 l 115 0 z "},"Л":{"ha":1069,"x_min":54,"x_max":953,"o":"m 743 0 l 743 768 l 567 768 l 438 128 l 301 0 l 54 0 l 54 196 l 194 196 l 256 247 l 399 965 l 953 965 l 953 0 l 743 0 z "},"М":{"ha":1267,"x_min":115,"x_max":1150,"o":"m 115 0 m 946 0 l 946 547 l 713 0 l 554 0 l 319 547 l 319 0 l 115 0 l 115 965 l 361 965 l 633 297 l 906 965 l 1150 965 l 1150 0 l 946 0 z "},"Н":{"ha":978,"x_min":115,"x_max":863,"o":"m 115 0 m 653 0 l 653 407 l 326 407 l 326 0 l 115 0 l 115 965 l 326 965 l 326 585 l 653 585 l 653 965 l 863 965 l 863 0 l 653 0 z "},"О":{"ha":979,"x_min":101,"x_max":879,"o":"m 101 0 m 285 0 l 101 197 l 101 768 l 294 965 l 685 965 l 879 768 l 879 197 l 693 0 l 285 0 m 672 275 l 672 692 l 576 768 l 404 768 l 307 692 l 307 275 l 401 196 l 579 196 l 672 275 z "},"П":{"ha":978,"x_min":115,"x_max":863,"o":"m 653 0 l 653 768 l 326 768 l 326 0 l 115 0 l 115 965 l 863 965 l 863 0 l 653 0 z "},"Р":{"ha":933,"x_min":115,"x_max":868,"o":"m 115 0 m 115 0 l 115 965 l 674 965 l 868 768 l 868 536 l 663 338 l 326 338 l 326 0 l 115 0 m 663 689 l 565 768 l 326 768 l 326 519 l 565 519 l 663 597 l 663 689 z "},"С":{"ha":975,"x_min":101,"x_max":875,"o":"m 101 0 m 285 0 l 101 197 l 101 768 l 294 965 l 682 965 l 875 768 l 875 613 l 674 613 l 674 692 l 579 768 l 404 768 l 307 692 l 307 275 l 404 196 l 579 196 l 674 275 l 674 378 l 875 378 l 875 197 l 690 0 l 285 0 z "},"Т":{"ha":850,"x_min":54,"x_max":794,"o":"m 54 0 m 319 0 l 319 768 l 54 768 l 54 965 l 794 965 l 794 768 l 531 768 l 531 0 l 319 0 z "},"У":{"ha":1011,"x_min":36,"x_max":974,"o":"m 93 0 l 93 196 l 315 196 l 381 247 l 388 261 l 36 965 l 253 965 l 497 476 l 746 965 l 974 965 l 551 128 l 415 0 l 93 0 z "},"Ф":{"ha":1233,"x_min":65,"x_max":1169,"o":"m 511 0 l 511 139 l 249 139 l 65 336 l 65 629 l 258 826 l 511 826 l 511 965 l 722 965 l 722 826 l 975 826 l 1169 629 l 1169 336 l 983 139 l 722 139 l 722 0 l 511 0 m 963 415 l 963 568 l 867 647 l 722 647 l 722 335 l 868 335 l 963 415 m 365 335 l 511 335 l 511 647 l 368 647 l 272 568 l 272 415 l 365 335 z "},"Х":{"ha":953,"x_min":54,"x_max":897,"o":"m 54 0 m 54 0 l 354 506 l 82 965 l 313 965 l 482 688 l 660 965 l 872 965 l 597 500 l 897 0 l 665 0 l 469 314 l 268 0 l 54 0 z "},"Ц":{"ha":1093,"x_min":115,"x_max":1039,"o":"m 863 -235 l 863 0 l 115 0 l 115 965 l 326 965 l 326 196 l 653 196 l 653 965 l 863 965 l 863 196 l 1039 196 l 1039 -235 l 863 -235 z "},"Ч":{"ha":964,"x_min":101,"x_max":849,"o":"m 638 0 l 638 343 l 285 343 l 101 540 l 101 965 l 307 965 l 307 619 l 401 538 l 638 538 l 638 965 l 849 965 l 849 0 l 638 0 z "},"Ш":{"ha":1432,"x_min":115,"x_max":1315,"o":"m 115 0 l 115 965 l 326 965 l 326 196 l 611 196 l 611 965 l 822 965 l 822 196 l 1104 196 l 1104 965 l 1315 965 l 1315 0 l 115 0 z "},"Щ":{"ha":1546,"x_min":115,"x_max":1492,"o":"m 1315 -235 l 1315 0 l 115 0 l 115 965 l 326 965 l 326 196 l 611 196 l 611 965 l 822 965 l 822 196 l 1104 196 l 1104 965 l 1315 965 l 1315 196 l 1492 196 l 1492 -235 l 1315 -235 z "},"Ъ":{"ha":1235,"x_min":56,"x_max":1171,"o":"m 418 0 l 418 768 l 56 768 l 56 965 l 629 965 l 629 618 l 961 618 l 1171 419 l 1171 197 l 976 0 l 418 0 m 965 357 l 864 436 l 629 436 l 629 197 l 867 197 l 965 276 l 965 357 z "},"Ы":{"ha":1375,"x_min":115,"x_max":1257,"o":"m 115 0 m 115 0 l 115 965 l 326 965 l 326 618 l 658 618 l 868 419 l 868 197 l 674 0 l 115 0 m 663 357 l 561 436 l 326 436 l 326 197 l 565 197 l 663 276 l 663 357 m 1046 0 l 1046 965 l 1257 965 l 1257 0 l 1046 0 z "},"Ь":{"ha":933,"x_min":115,"x_max":868,"o":"m 115 0 l 115 965 l 326 965 l 326 618 l 658 618 l 868 419 l 868 197 l 674 0 l 115 0 m 663 357 l 561 436 l 326 436 l 326 197 l 565 197 l 663 276 l 663 357 z "},"Э":{"ha":975,"x_min":101,"x_max":875,"o":"m 286 0 l 101 197 l 101 372 l 303 372 l 303 276 l 397 196 l 575 196 l 668 276 l 668 419 l 317 419 l 317 571 l 668 571 l 668 690 l 572 768 l 400 768 l 303 690 l 303 618 l 101 618 l 101 768 l 294 965 l 682 965 l 875 768 l 875 197 l 692 0 l 286 0 z "},"Ю":{"ha":1408,"x_min":115,"x_max":1310,"o":"m 115 0 l 115 965 l 326 965 l 326 578 l 532 578 l 532 768 l 725 965 l 1115 965 l 1310 768 l 1310 197 l 1124 0 l 715 0 l 532 197 l 532 413 l 326 413 l 326 0 l 115 0 m 1103 275 l 1103 692 l 1007 768 l 835 768 l 738 692 l 738 275 l 832 196 l 1010 196 l 1103 275 z "},"Я":{"ha":967,"x_min":71,"x_max":851,"o":"m 71 0 l 250 422 l 99 560 l 99 768 l 293 965 l 851 965 l 851 0 l 640 0 l 640 361 l 447 361 l 293 0 l 71 0 m 304 615 l 406 536 l 640 536 l 640 768 l 401 768 l 304 689 l 304 615 z "},"а":{"ha":933,"x_min":81,"x_max":835,"o":"m 81 0 m 639 0 l 639 72 l 547 0 l 206 0 l 81 114 l 81 328 l 199 440 l 617 440 l 617 518 l 564 554 l 147 554 l 147 735 l 694 735 l 835 610 l 835 0 l 639 0 m 617 232 l 617 310 l 331 310 l 288 276 l 288 194 l 333 161 l 521 161 l 617 232 z "},"б":{"ha":938,"x_min":100,"x_max":847,"o":"m 265 0 l 100 149 l 100 893 l 249 1024 l 593 1024 l 647 1060 l 647 1128 l 829 1128 l 829 969 l 690 844 l 340 844 l 281 797 l 281 654 l 358 708 l 681 708 l 847 558 l 847 149 l 681 0 l 265 0 m 640 240 l 640 471 l 572 522 l 385 522 l 310 468 l 310 240 l 376 190 l 572 190 l 640 240 z "},"в":{"ha":940,"x_min":106,"x_max":849,"o":"m 106 0 l 106 735 l 693 735 l 843 585 l 843 469 l 758 385 l 849 292 l 849 150 l 699 0 l 106 0 m 639 526 l 567 583 l 315 583 l 315 439 l 578 439 l 639 489 l 639 526 m 644 222 l 644 267 l 583 317 l 315 317 l 315 164 l 574 164 l 644 222 z "},"г":{"ha":699,"x_min":106,"x_max":646,"o":"m 106 0 l 106 735 l 646 735 l 646 554 l 315 554 l 315 0 l 106 0 z "},"д":{"ha":1131,"x_min":54,"x_max":1076,"o":"m 54 -175 l 54 181 l 204 181 l 261 221 l 376 735 l 917 735 l 917 181 l 1076 181 l 1076 -175 l 911 -175 l 911 0 l 219 0 l 219 -175 l 54 -175 m 446 221 l 406 181 l 710 181 l 710 554 l 526 554 l 446 221 z "},"е":{"ha":925,"x_min":92,"x_max":826,"o":"m 92 0 m 628 517 l 560 567 l 361 567 l 292 517 l 292 433 l 628 433 l 628 517 m 257 0 l 92 149 l 92 585 l 257 735 l 657 735 l 826 585 l 826 297 l 292 297 l 292 231 l 361 181 l 817 181 l 817 0 l 257 0 z "},"ж":{"ha":1324,"x_min":47,"x_max":1276,"o":"m 47 0 l 347 406 l 72 735 l 304 735 l 557 428 l 557 735 l 767 735 l 767 428 l 1019 735 l 1251 735 l 976 407 l 1276 0 l 1033 0 l 767 353 l 767 0 l 557 0 l 557 353 l 289 0 l 47 0 z "},"з":{"ha":906,"x_min":92,"x_max":814,"o":"m 235 0 l 92 150 l 92 256 l 289 256 l 289 219 l 358 160 l 539 160 l 610 219 l 610 260 l 547 308 l 353 308 l 353 429 l 543 429 l 606 479 l 606 522 l 533 579 l 361 579 l 289 522 l 289 479 l 92 479 l 92 585 l 243 735 l 657 735 l 810 585 l 810 468 l 724 385 l 814 290 l 814 150 l 664 0 l 235 0 z "},"и":{"ha":958,"x_min":106,"x_max":851,"o":"m 643 0 l 643 410 l 315 0 l 106 0 l 106 735 l 315 735 l 315 325 l 643 735 l 851 735 l 851 0 l 643 0 z "},"й":{"ha":958,"x_min":106,"x_max":851,"o":"m 106 0 m 643 0 l 643 410 l 315 0 l 106 0 l 106 735 l 315 735 l 315 325 l 643 735 l 851 735 l 851 0 l 643 0 m 296 794 l 181 903 l 181 1093 l 328 1093 l 328 979 l 371 946 l 585 946 l 629 979 l 629 1093 l 778 1093 l 778 903 l 658 794 l 296 794 z "},"к":{"ha":872,"x_min":106,"x_max":825,"o":"m 106 0 l 106 735 l 315 735 l 315 419 l 568 735 l 800 735 l 525 407 l 825 0 l 582 0 l 315 361 l 315 0 l 106 0 z "},"л":{"ha":999,"x_min":54,"x_max":893,"o":"m 685 0 l 685 554 l 501 554 l 397 100 l 268 0 l 54 0 l 54 181 l 179 181 l 236 221 l 351 735 l 893 735 l 893 0 l 685 0 z "},"м":{"ha":1235,"x_min":106,"x_max":1129,"o":"m 926 0 l 926 392 l 696 0 l 538 0 l 308 392 l 308 0 l 106 0 l 106 735 l 354 735 l 617 254 l 881 735 l 1129 735 l 1129 0 l 926 0 z "},"н":{"ha":922,"x_min":106,"x_max":817,"o":"m 607 0 l 607 285 l 315 285 l 315 0 l 106 0 l 106 735 l 315 735 l 315 461 l 607 461 l 607 735 l 817 735 l 817 0 l 607 0 z "},"о":{"ha":929,"x_min":92,"x_max":839,"o":"m 92 0 m 257 0 l 92 149 l 92 585 l 257 735 l 672 735 l 839 585 l 839 149 l 672 0 l 257 0 m 628 240 l 628 494 l 563 543 l 367 543 l 297 494 l 297 240 l 367 190 l 563 190 l 628 240 z "},"п":{"ha":922,"x_min":106,"x_max":817,"o":"m 607 0 l 607 554 l 315 554 l 315 0 l 106 0 l 106 735 l 817 735 l 817 0 l 607 0 z "},"р":{"ha":946,"x_min":106,"x_max":854,"o":"m 106 0 m 644 240 l 644 494 l 578 543 l 400 543 l 315 488 l 315 247 l 400 190 l 578 190 l 644 240 m 407 0 l 315 72 l 315 -235 l 106 -235 l 106 735 l 301 735 l 301 663 l 394 735 l 689 735 l 854 585 l 854 149 l 689 0 l 407 0 z "},"с":{"ha":917,"x_min":92,"x_max":826,"o":"m 92 0 m 257 0 l 92 149 l 92 585 l 257 735 l 657 735 l 826 585 l 826 433 l 628 433 l 628 494 l 560 543 l 367 543 l 297 494 l 297 240 l 367 190 l 560 190 l 628 240 l 628 300 l 826 300 l 826 149 l 657 0 l 257 0 z "},"т":{"ha":868,"x_min":53,"x_max":817,"o":"m 329 0 l 329 554 l 53 554 l 53 735 l 817 735 l 817 554 l 538 554 l 538 0 l 329 0 z "},"у":{"ha":879,"x_min":36,"x_max":843,"o":"m 36 0 m 99 -235 l 99 -54 l 271 -54 l 329 -15 l 336 3 l 36 735 l 258 735 l 438 264 l 622 735 l 843 735 l 489 -110 l 350 -235 l 99 -235 z "},"ф":{"ha":1256,"x_min":92,"x_max":1165,"o":"m 524 -235 l 524 0 l 257 0 l 92 149 l 92 585 l 257 735 l 524 735 l 524 965 l 732 965 l 732 735 l 999 735 l 1165 585 l 1165 149 l 999 0 l 732 0 l 732 -235 l 524 -235 m 367 190 l 524 190 l 524 543 l 367 543 l 297 494 l 297 240 l 367 190 m 954 240 l 954 494 l 888 543 l 732 543 l 732 190 l 888 190 l 954 240 z "},"х":{"ha":971,"x_min":49,"x_max":924,"o":"m 49 0 m 49 0 l 356 386 l 78 735 l 319 735 l 493 529 l 672 735 l 894 735 l 615 381 l 924 0 l 678 0 l 478 235 l 271 0 l 49 0 z "},"ц":{"ha":1029,"x_min":106,"x_max":975,"o":"m 810 -175 l 810 0 l 106 0 l 106 735 l 315 735 l 315 181 l 607 181 l 607 735 l 817 735 l 817 181 l 975 181 l 975 -175 l 810 -175 z "},"ч":{"ha":922,"x_min":106,"x_max":817,"o":"m 607 0 l 607 239 l 289 239 l 106 389 l 106 735 l 315 735 l 315 453 l 404 394 l 607 394 l 607 735 l 817 735 l 817 0 l 607 0 z "},"ш":{"ha":1360,"x_min":106,"x_max":1254,"o":"m 106 0 l 106 735 l 315 735 l 315 181 l 576 181 l 576 735 l 785 735 l 785 181 l 1044 181 l 1044 735 l 1254 735 l 1254 0 l 106 0 z "},"щ":{"ha":1467,"x_min":106,"x_max":1413,"o":"m 1247 -175 l 1247 0 l 106 0 l 106 735 l 315 735 l 315 181 l 576 181 l 576 735 l 785 735 l 785 181 l 1044 181 l 1044 735 l 1254 735 l 1254 181 l 1413 181 l 1413 -175 l 1247 -175 z "},"ъ":{"ha":1167,"x_min":53,"x_max":1079,"o":"m 336 0 l 336 554 l 53 554 l 53 735 l 546 735 l 544 733 l 544 531 l 904 531 l 1079 382 l 1079 147 l 917 0 l 336 0 m 875 308 l 793 364 l 544 364 l 544 181 l 796 181 l 875 236 l 875 308 z "},"ы":{"ha":1354,"x_min":106,"x_max":1249,"o":"m 106 0 m 106 0 l 106 735 l 315 735 l 315 531 l 675 531 l 849 382 l 849 147 l 688 0 l 106 0 m 646 308 l 563 364 l 315 364 l 315 181 l 565 181 l 646 236 l 646 308 m 1039 0 l 1039 735 l 1249 735 l 1249 0 l 1039 0 z "},"ь":{"ha":938,"x_min":106,"x_max":849,"o":"m 106 0 l 106 735 l 315 735 l 315 531 l 675 531 l 849 382 l 849 147 l 688 0 l 106 0 m 646 308 l 563 364 l 315 364 l 315 181 l 565 181 l 646 236 l 646 308 z "},"э":{"ha":917,"x_min":92,"x_max":826,"o":"m 275 307 l 275 428 l 624 428 l 624 507 l 554 556 l 356 556 l 289 507 l 289 479 l 92 479 l 92 585 l 258 735 l 658 735 l 826 585 l 826 149 l 658 0 l 258 0 l 92 149 l 92 256 l 289 256 l 289 229 l 356 179 l 554 179 l 624 229 l 624 307 l 275 307 z "},"ю":{"ha":1368,"x_min":106,"x_max":1276,"o":"m 106 0 l 106 735 l 315 735 l 315 460 l 529 460 l 529 585 l 696 735 l 1111 735 l 1276 585 l 1276 149 l 1111 0 l 696 0 l 529 149 l 529 281 l 315 281 l 315 0 l 106 0 m 1067 240 l 1067 494 l 1000 543 l 804 543 l 736 494 l 736 240 l 804 190 l 1000 190 l 1067 240 z "},"я":{"ha":942,"x_min":103,"x_max":846,"o":"m 103 0 l 233 244 l 103 356 l 103 588 l 265 735 l 846 735 l 846 0 l 638 0 l 638 207 l 429 207 l 318 0 l 103 0 m 638 554 l 385 554 l 307 499 l 307 429 l 389 374 l 638 374 l 638 554 z "},"ѐ":{"ha":925,"x_min":92,"x_max":826,"o":"m 92 0 m 628 517 l 560 567 l 361 567 l 292 517 l 292 433 l 628 433 l 628 517 m 257 0 l 92 149 l 92 585 l 257 735 l 657 735 l 826 585 l 826 297 l 292 297 l 292 231 l 361 181 l 817 181 l 817 0 l 257 0 m 408 779 l 244 1093 l 453 1093 l 583 779 l 408 779 z "},"ё":{"ha":925,"x_min":92,"x_max":826,"o":"m 92 0 m 628 517 l 560 567 l 361 567 l 292 517 l 292 433 l 628 433 l 628 517 m 257 0 l 92 149 l 92 585 l 257 735 l 657 735 l 826 585 l 826 297 l 292 297 l 292 231 l 361 181 l 817 181 l 817 0 l 257 0 m 535 835 l 535 1024 l 743 1024 l 743 835 l 535 835 m 178 835 l 178 1024 l 388 1024 l 388 835 l 178 835 z "},"ђ":{"ha":951,"x_min":-21,"x_max":851,"o":"m 315 849 l 315 663 l 408 735 l 686 735 l 851 585 l 851 -110 l 713 -235 l 494 -235 l 494 -54 l 593 -54 l 644 -18 l 644 494 l 578 543 l 400 543 l 315 488 l 315 0 l 106 0 l 106 849 l -21 849 l -21 994 l 686 994 l 686 849 l 315 849 z "},"ѓ":{"ha":699,"x_min":106,"x_max":646,"o":"m 106 0 m 106 0 l 106 735 l 646 735 l 646 554 l 315 554 l 315 0 l 106 0 m 246 779 l 372 1093 l 578 1093 l 415 779 l 246 779 z "},"є":{"ha":917,"x_min":92,"x_max":826,"o":"m 293 307 l 293 229 l 363 179 l 560 179 l 628 229 l 628 256 l 826 256 l 826 149 l 657 0 l 257 0 l 92 149 l 92 585 l 257 735 l 657 735 l 826 585 l 826 479 l 628 479 l 628 507 l 560 556 l 363 556 l 293 507 l 293 428 l 640 428 l 640 307 l 293 307 z "},"ѕ":{"ha":856,"x_min":81,"x_max":776,"o":"m 81 0 m 94 0 l 94 181 l 524 181 l 579 215 l 579 258 l 521 300 l 235 300 l 81 411 l 81 610 l 221 735 l 750 735 l 750 554 l 336 554 l 279 521 l 279 476 l 340 436 l 624 436 l 776 324 l 776 125 l 636 0 l 94 0 z "},"і":{"ha":426,"x_min":106,"x_max":315,"o":"m 106 0 m 106 0 l 106 735 l 315 735 l 315 0 l 106 0 m 106 835 l 106 1024 l 315 1024 l 315 835 l 106 835 z "},"ї":{"ha":575,"x_min":6,"x_max":571,"o":"m 6 0 m 183 0 l 183 735 l 393 735 l 393 0 l 183 0 m 363 835 l 363 1024 l 571 1024 l 571 835 l 363 835 m 6 835 l 6 1024 l 215 1024 l 215 835 l 6 835 z "},"ј":{"ha":450,"x_min":-28,"x_max":343,"o":"m 0 0 m -28 -235 l -28 -54 l 82 -54 l 133 -18 l 133 735 l 342 735 l 342 -110 l 201 -235 l -28 -235 m 133 835 l 133 1024 l 343 1024 l 343 835 l 133 835 z "},"љ":{"ha":1515,"x_min":54,"x_max":1426,"o":"m 685 0 l 685 554 l 501 554 l 397 100 l 268 0 l 54 0 l 54 181 l 179 181 l 236 221 l 351 735 l 893 735 l 893 531 l 1253 531 l 1426 382 l 1426 147 l 1265 0 l 685 0 m 1224 308 l 1142 364 l 893 364 l 893 181 l 1144 181 l 1224 236 l 1224 308 z "},"њ":{"ha":1439,"x_min":106,"x_max":1350,"o":"m 607 0 l 607 354 l 315 354 l 315 0 l 106 0 l 106 735 l 315 735 l 315 531 l 607 531 l 607 735 l 817 735 l 817 531 l 1175 531 l 1350 382 l 1350 147 l 1189 0 l 607 0 m 1147 308 l 1064 364 l 817 364 l 817 181 l 1068 181 l 1147 236 l 1147 308 z "},"ћ":{"ha":951,"x_min":-21,"x_max":851,"o":"m 0 0 m 315 849 l 315 663 l 407 735 l 686 735 l 851 585 l 851 0 l 644 0 l 644 494 l 578 543 l 400 543 l 315 488 l 315 0 l 106 0 l 106 849 l -21 849 l -21 994 l 686 994 l 686 849 l 315 849 z "},"ќ":{"ha":911,"x_min":106,"x_max":825,"o":"m 106 0 m 106 0 l 106 735 l 315 735 l 315 419 l 568 735 l 800 735 l 525 407 l 825 0 l 582 0 l 315 361 l 315 0 l 106 0 m 308 779 l 435 1093 l 640 1093 l 478 779 l 308 779 z "},"ѝ":{"ha":958,"x_min":106,"x_max":851,"o":"m 106 0 m 643 0 l 643 410 l 315 0 l 106 0 l 106 735 l 315 735 l 315 325 l 643 735 l 851 735 l 851 0 l 643 0 m 421 779 l 257 1093 l 465 1093 l 596 779 l 421 779 z "},"ў":{"ha":879,"x_min":36,"x_max":843,"o":"m 36 0 m 99 -235 l 99 -54 l 271 -54 l 329 -15 l 336 3 l 36 735 l 258 735 l 438 264 l 622 735 l 843 735 l 489 -110 l 350 -235 l 99 -235 m 257 794 l 142 903 l 142 1093 l 289 1093 l 289 979 l 332 946 l 546 946 l 590 979 l 590 1093 l 739 1093 l 739 903 l 619 794 l 257 794 z "},"џ":{"ha":922,"x_min":106,"x_max":817,"o":"m 379 -175 l 379 0 l 106 0 l 106 735 l 315 735 l 315 181 l 607 181 l 607 735 l 817 735 l 817 0 l 544 0 l 544 -175 l 379 -175 z "},"Ґ":{"ha":792,"x_min":115,"x_max":735,"o":"m 115 0 l 115 965 l 560 965 l 560 1200 l 735 1200 l 735 768 l 326 768 l 326 0 l 115 0 z "},"ґ":{"ha":699,"x_min":106,"x_max":646,"o":"m 315 554 l 315 0 l 106 0 l 106 735 l 481 735 l 481 910 l 646 910 l 646 554 l 315 554 z "},"Ғ":{"ha":814,"x_min":13,"x_max":757,"o":"m 138 0 l 138 381 l 13 381 l 13 526 l 138 526 l 138 965 l 757 965 l 757 768 l 349 768 l 349 526 l 718 526 l 718 381 l 349 381 l 349 0 l 138 0 z "},"ғ":{"ha":775,"x_min":42,"x_max":707,"o":"m 167 0 l 167 263 l 42 263 l 42 408 l 167 408 l 167 735 l 707 735 l 707 554 l 375 554 l 375 408 l 650 408 l 650 263 l 375 263 l 375 0 l 167 0 z "},"Җ":{"ha":1449,"x_min":56,"x_max":1394,"o":"m 56 0 l 393 532 l 76 965 l 300 965 l 581 564 l 581 965 l 792 965 l 792 564 l 1071 965 l 1294 965 l 979 533 l 1231 196 l 1394 196 l 1394 -235 l 1218 -235 l 1218 0 l 1094 0 l 792 463 l 792 0 l 581 0 l 581 463 l 279 0 l 56 0 z "},"җ":{"ha":1417,"x_min":47,"x_max":1363,"o":"m 47 0 l 347 406 l 72 735 l 304 735 l 557 428 l 557 735 l 767 735 l 767 428 l 1019 735 l 1251 735 l 976 407 l 1176 181 l 1363 181 l 1363 -175 l 1197 -175 l 1197 0 l 1033 0 l 767 353 l 767 0 l 557 0 l 557 353 l 289 0 l 47 0 z "},"Ҙ":{"ha":983,"x_min":97,"x_max":882,"o":"m 399 -389 l 257 -260 l 554 0 l 282 0 l 97 197 l 97 372 l 299 372 l 299 276 l 393 196 l 581 196 l 678 276 l 678 351 l 597 419 l 407 419 l 407 571 l 592 571 l 669 639 l 669 701 l 574 779 l 396 779 l 299 701 l 299 618 l 97 618 l 97 768 l 290 965 l 682 965 l 876 768 l 876 615 l 767 504 l 882 382 l 882 197 l 494 -174 l 542 -210 l 711 -210 l 711 -389 l 399 -389 z "},"ҙ":{"ha":906,"x_min":92,"x_max":814,"o":"m 372 -389 l 231 -260 l 528 0 l 235 0 l 92 150 l 92 256 l 289 256 l 289 219 l 358 160 l 539 160 l 610 219 l 610 260 l 547 308 l 353 308 l 353 429 l 543 429 l 606 479 l 606 522 l 533 579 l 361 579 l 289 522 l 289 479 l 92 479 l 92 585 l 243 735 l 657 735 l 810 585 l 810 468 l 724 385 l 814 290 l 814 150 l 468 -174 l 515 -210 l 686 -210 l 686 -389 l 372 -389 z "},"Қ":{"ha":1007,"x_min":115,"x_max":953,"o":"m 115 0 l 115 965 l 326 965 l 326 564 l 607 965 l 831 965 l 514 533 l 765 196 l 953 196 l 953 -235 l 778 -235 l 778 0 l 629 0 l 326 463 l 326 0 l 115 0 z "},"қ":{"ha":965,"x_min":106,"x_max":911,"o":"m 106 0 l 106 735 l 315 735 l 315 428 l 568 735 l 800 735 l 525 407 l 725 181 l 911 181 l 911 -175 l 746 -175 l 746 0 l 582 0 l 315 353 l 315 0 l 106 0 z "},"Ҡ":{"ha":1210,"x_min":57,"x_max":1154,"o":"m 418 0 l 418 768 l 57 768 l 57 965 l 629 965 l 629 564 l 910 965 l 1133 965 l 817 533 l 1154 0 l 932 0 l 629 463 l 629 0 l 418 0 z "},"ҡ":{"ha":1142,"x_min":53,"x_max":1056,"o":"m 336 0 l 336 554 l 53 554 l 53 735 l 546 735 l 546 428 l 799 735 l 1032 735 l 756 407 l 1056 0 l 814 0 l 546 353 l 546 0 l 336 0 z "},"Ң":{"ha":1093,"x_min":115,"x_max":1039,"o":"m 863 -235 l 863 0 l 653 0 l 653 407 l 326 407 l 326 0 l 115 0 l 115 965 l 326 965 l 326 585 l 653 585 l 653 965 l 863 965 l 863 196 l 1039 196 l 1039 -235 l 863 -235 z "},"ң":{"ha":1029,"x_min":106,"x_max":975,"o":"m 810 -175 l 810 0 l 607 0 l 607 285 l 315 285 l 315 0 l 106 0 l 106 735 l 315 735 l 315 461 l 607 461 l 607 735 l 817 735 l 817 181 l 975 181 l 975 -175 l 810 -175 z "},"Ҫ":{"ha":975,"x_min":101,"x_max":875,"o":"m 399 -389 l 257 -260 l 554 0 l 285 0 l 101 197 l 101 768 l 294 965 l 682 965 l 875 768 l 875 613 l 674 613 l 674 692 l 579 768 l 404 768 l 307 692 l 307 275 l 404 196 l 579 196 l 674 275 l 674 378 l 875 378 l 875 197 l 494 -174 l 542 -210 l 711 -210 l 711 -389 l 399 -389 z "},"ҫ":{"ha":931,"x_min":92,"x_max":826,"o":"m 367 -389 l 225 -260 l 521 0 l 257 0 l 92 149 l 92 585 l 257 735 l 657 735 l 826 585 l 826 433 l 628 433 l 628 494 l 560 543 l 367 543 l 297 494 l 297 240 l 367 190 l 560 190 l 628 240 l 628 300 l 826 300 l 826 149 l 463 -174 l 510 -210 l 679 -210 l 679 -389 l 367 -389 z "},"Ү":{"ha":925,"x_min":36,"x_max":888,"o":"m 36 0 m 364 0 l 364 431 l 36 965 l 267 965 l 464 651 l 658 965 l 888 965 l 575 433 l 575 0 l 364 0 z "},"ү":{"ha":879,"x_min":36,"x_max":843,"o":"m 342 -235 l 342 -40 l 36 735 l 256 735 l 440 260 l 628 735 l 843 735 l 550 -40 l 550 -235 l 342 -235 z "},"Ұ":{"ha":925,"x_min":36,"x_max":888,"o":"m 364 0 l 364 268 l 108 268 l 108 414 l 364 414 l 364 431 l 36 965 l 267 965 l 464 651 l 658 965 l 888 965 l 575 433 l 575 414 l 817 414 l 817 268 l 575 268 l 575 0 l 364 0 z "},"ұ":{"ha":879,"x_min":36,"x_max":843,"o":"m 342 -235 l 342 -61 l 86 -61 l 86 85 l 292 85 l 36 735 l 256 735 l 440 260 l 628 735 l 843 735 l 597 85 l 793 85 l 793 -61 l 550 -61 l 550 -235 l 342 -235 z "},"Ҳ":{"ha":1060,"x_min":54,"x_max":1006,"o":"m 54 0 l 361 511 l 82 965 l 313 965 l 486 714 l 660 965 l 872 965 l 592 499 l 797 196 l 1006 196 l 1006 -235 l 828 -235 l 828 0 l 665 0 l 467 294 l 268 0 l 54 0 z "},"ҳ":{"ha":1067,"x_min":49,"x_max":1013,"o":"m 49 0 l 364 389 l 78 735 l 319 735 l 496 549 l 672 735 l 894 735 l 608 379 l 797 181 l 1013 181 l 1013 -175 l 847 -175 l 847 0 l 678 0 l 476 219 l 271 0 l 49 0 z "},"Ҷ":{"ha":1093,"x_min":115,"x_max":1039,"o":"m 863 -235 l 863 0 l 651 0 l 651 343 l 299 343 l 115 540 l 115 965 l 322 965 l 322 619 l 415 538 l 651 538 l 651 965 l 863 965 l 863 196 l 1039 196 l 1039 -235 l 863 -235 z "},"ҷ":{"ha":1029,"x_min":106,"x_max":975,"o":"m 810 -175 l 810 0 l 607 0 l 607 239 l 289 239 l 106 389 l 106 735 l 315 735 l 315 453 l 404 394 l 607 394 l 607 735 l 817 735 l 817 181 l 975 181 l 975 -175 l 810 -175 z "},"Һ":{"ha":964,"x_min":115,"x_max":863,"o":"m 326 965 l 326 622 l 679 622 l 863 425 l 863 0 l 656 0 l 656 346 l 563 428 l 326 428 l 326 0 l 115 0 l 115 965 l 326 965 z "},"һ":{"ha":951,"x_min":106,"x_max":851,"o":"m 106 0 m 644 0 l 644 494 l 578 543 l 400 543 l 315 488 l 315 0 l 106 0 l 106 965 l 315 965 l 315 663 l 407 735 l 686 735 l 851 585 l 851 0 l 644 0 z "},"Ӏ":{"ha":443,"x_min":115,"x_max":326,"o":"m 115 0 m 115 0 l 115 965 l 326 965 l 326 0 l 115 0 z "},"Ӄ":{"ha":907,"x_min":115,"x_max":851,"o":"m 115 0 l 115 965 l 326 965 l 326 564 l 607 965 l 831 965 l 514 533 l 851 0 l 851 -110 l 713 -235 l 493 -235 l 493 -54 l 593 -54 l 642 -26 l 642 -6 l 326 463 l 326 0 l 115 0 z "},"ӄ":{"ha":911,"x_min":106,"x_max":825,"o":"m 106 0 l 106 735 l 315 735 l 315 428 l 568 735 l 800 735 l 525 407 l 825 0 l 825 -110 l 685 -235 l 468 -235 l 468 -54 l 565 -54 l 615 -24 l 615 6 l 315 358 l 315 0 l 106 0 z "},"Ӈ":{"ha":978,"x_min":115,"x_max":863,"o":"m 503 -235 l 503 -54 l 601 -54 l 653 -18 l 653 407 l 326 407 l 326 0 l 115 0 l 115 965 l 326 965 l 326 585 l 653 585 l 653 965 l 863 965 l 863 -110 l 724 -235 l 503 -235 z "},"ӈ":{"ha":922,"x_min":106,"x_max":817,"o":"m 457 -235 l 457 -54 l 556 -54 l 607 -18 l 607 285 l 315 285 l 315 0 l 106 0 l 106 735 l 315 735 l 315 461 l 607 461 l 607 735 l 817 735 l 817 -110 l 676 -235 l 457 -235 z "},"ӏ":{"ha":421,"x_min":106,"x_max":315,"o":"m 106 0 m 106 0 l 106 965 l 315 965 l 315 0 l 106 0 z "},"Ә":{"ha":979,"x_min":101,"x_max":875,"o":"m 101 0 m 294 0 l 101 197 l 101 525 l 668 525 l 668 689 l 575 768 l 397 768 l 303 689 l 303 599 l 101 599 l 101 768 l 286 965 l 692 965 l 875 768 l 875 197 l 682 0 l 294 0 m 668 379 l 303 379 l 303 275 l 400 196 l 574 196 l 668 275 l 668 379 z "},"ә":{"ha":925,"x_min":92,"x_max":826,"o":"m 92 0 m 289 218 l 356 168 l 556 168 l 625 218 l 625 301 l 289 301 l 289 218 m 658 735 l 826 586 l 826 150 l 658 0 l 258 0 l 92 150 l 92 438 l 625 438 l 625 504 l 556 554 l 101 554 l 101 735 l 658 735 z "},"Ө":{"ha":979,"x_min":101,"x_max":879,"o":"m 285 0 l 101 197 l 101 768 l 294 965 l 685 965 l 879 768 l 879 197 l 693 0 l 285 0 m 672 275 l 672 413 l 307 413 l 307 275 l 401 196 l 579 196 l 672 275 m 307 578 l 672 578 l 672 692 l 576 768 l 404 768 l 307 692 l 307 578 z "},"ө":{"ha":929,"x_min":92,"x_max":839,"o":"m 257 0 l 92 149 l 92 585 l 257 735 l 672 735 l 839 585 l 839 149 l 672 0 l 257 0 m 628 240 l 628 317 l 297 317 l 297 240 l 367 190 l 563 190 l 628 240 m 297 425 l 628 425 l 628 494 l 563 543 l 367 543 l 297 494 l 297 425 z "},"Ӯ":{"ha":1011,"x_min":36,"x_max":974,"o":"m 36 0 m 93 0 l 93 196 l 315 196 l 381 247 l 388 261 l 36 965 l 253 965 l 497 476 l 746 965 l 974 965 l 551 128 l 415 0 l 93 0 m 151 1061 l 151 1189 l 860 1189 l 860 1061 l 151 1061 z "},"ӯ":{"ha":879,"x_min":36,"x_max":843,"o":"m 36 0 m 99 -235 l 99 -54 l 271 -54 l 329 -15 l 336 3 l 36 735 l 258 735 l 438 264 l 622 735 l 843 735 l 489 -110 l 350 -235 l 99 -235 m 86 849 l 86 994 l 793 994 l 793 849 l 86 849 z "},"Ԓ":{"ha":1069,"x_min":54,"x_max":953,"o":"m 593 -235 l 593 -54 l 690 -54 l 743 -18 l 743 768 l 567 768 l 438 128 l 301 0 l 54 0 l 54 196 l 194 196 l 256 247 l 399 965 l 953 965 l 953 -110 l 813 -235 l 593 -235 z "},"ԓ":{"ha":999,"x_min":54,"x_max":893,"o":"m 533 -235 l 533 -54 l 632 -54 l 685 -18 l 685 554 l 501 554 l 397 100 l 268 0 l 54 0 l 54 181 l 179 181 l 236 221 l 351 735 l 893 735 l 893 -110 l 753 -235 l 533 -235 z "},"֏":{"ha":1013,"x_min":54,"x_max":990,"o":"m 817 242 l 817 0 l 610 0 l 610 242 l 275 242 l 275 325 l 610 325 l 610 439 l 275 439 l 275 522 l 610 522 l 610 689 l 513 769 l 351 769 l 257 689 l 257 593 l 54 593 l 54 768 l 242 965 l 629 965 l 817 768 l 817 522 l 990 522 l 990 439 l 817 439 l 817 325 l 990 325 l 990 242 l 817 242 z "},"Ḍ":{"ha":946,"x_min":115,"x_max":844,"o":"m 115 0 m 115 0 l 115 965 l 651 965 l 844 768 l 844 197 l 658 0 l 115 0 m 639 275 l 639 692 l 543 768 l 326 768 l 326 196 l 543 196 l 639 275 m 350 -274 l 350 -106 l 558 -106 l 558 -274 l 350 -274 z "},"ḍ":{"ha":946,"x_min":92,"x_max":839,"o":"m 92 0 m 643 0 l 643 72 l 550 0 l 257 0 l 92 149 l 92 585 l 257 735 l 538 735 l 631 663 l 631 965 l 839 965 l 839 0 l 643 0 m 631 247 l 631 488 l 546 543 l 368 543 l 301 494 l 301 240 l 368 190 l 546 190 l 631 247 m 364 -274 l 364 -106 l 572 -106 l 572 -274 l 364 -274 z "},"Ḓ":{"ha":946,"x_min":115,"x_max":844,"o":"m 115 0 m 115 0 l 115 965 l 651 965 l 844 768 l 844 197 l 658 0 l 115 0 m 639 275 l 639 692 l 543 768 l 326 768 l 326 196 l 543 196 l 639 275 m 601 -389 l 454 -218 l 310 -389 l 140 -389 l 333 -111 l 576 -111 l 768 -389 l 601 -389 z "},"ḓ":{"ha":946,"x_min":92,"x_max":839,"o":"m 92 0 m 643 0 l 643 72 l 550 0 l 257 0 l 92 149 l 92 585 l 257 735 l 538 735 l 631 663 l 631 965 l 839 965 l 839 0 l 643 0 m 631 247 l 631 488 l 546 543 l 368 543 l 301 494 l 301 240 l 368 190 l 546 190 l 631 247 m 613 -389 l 465 -218 l 321 -389 l 151 -389 l 344 -111 l 588 -111 l 779 -389 l 613 -389 z "},"Ḥ":{"ha":978,"x_min":115,"x_max":863,"o":"m 115 0 m 653 0 l 653 407 l 326 407 l 326 0 l 115 0 l 115 965 l 326 965 l 326 585 l 653 585 l 653 965 l 863 965 l 863 0 l 653 0 m 383 -274 l 383 -106 l 592 -106 l 592 -274 l 383 -274 z "},"ḥ":{"ha":951,"x_min":106,"x_max":851,"o":"m 106 0 m 644 0 l 644 494 l 578 543 l 400 543 l 315 488 l 315 0 l 106 0 l 106 965 l 315 965 l 315 663 l 407 735 l 686 735 l 851 585 l 851 0 l 644 0 m 374 -274 l 374 -106 l 582 -106 l 582 -274 l 374 -274 z "},"Ḽ":{"ha":792,"x_min":90,"x_max":735,"o":"m 90 0 m 115 0 l 115 965 l 326 965 l 326 196 l 735 196 l 735 0 l 115 0 m 551 -389 l 404 -218 l 260 -389 l 90 -389 l 283 -111 l 526 -111 l 718 -389 l 551 -389 z "},"ḽ":{"ha":522,"x_min":-54,"x_max":574,"o":"m 0 0 m 157 0 l 157 965 l 367 965 l 367 0 l 157 0 m 407 -389 l 260 -218 l 115 -389 l -54 -389 l 139 -111 l 382 -111 l 574 -389 l 407 -389 z "},"Ṅ":{"ha":996,"x_min":115,"x_max":879,"o":"m 115 0 m 681 0 l 321 543 l 321 0 l 115 0 l 115 965 l 331 965 l 675 432 l 675 965 l 879 965 l 879 0 l 681 0 m 392 1046 l 392 1214 l 600 1214 l 600 1046 l 392 1046 z "},"ṅ":{"ha":951,"x_min":106,"x_max":851,"o":"m 106 0 m 644 0 l 644 494 l 578 543 l 400 543 l 315 488 l 315 0 l 106 0 l 106 735 l 301 735 l 301 663 l 394 735 l 686 735 l 851 585 l 851 0 l 644 0 m 374 835 l 374 1024 l 583 1024 l 583 835 l 374 835 z "},"Ṋ":{"ha":996,"x_min":115,"x_max":879,"o":"m 115 0 m 681 0 l 321 543 l 321 0 l 115 0 l 115 965 l 331 965 l 675 432 l 675 965 l 879 965 l 879 0 l 681 0 m 639 -389 l 492 -218 l 347 -389 l 178 -389 l 371 -111 l 614 -111 l 806 -389 l 639 -389 z "},"ṋ":{"ha":951,"x_min":106,"x_max":851,"o":"m 106 0 m 644 0 l 644 494 l 578 543 l 400 543 l 315 488 l 315 0 l 106 0 l 106 735 l 301 735 l 301 663 l 394 735 l 686 735 l 851 585 l 851 0 l 644 0 m 615 -389 l 468 -218 l 324 -389 l 154 -389 l 347 -111 l 590 -111 l 782 -389 l 615 -389 z "},"Ṛ":{"ha":967,"x_min":115,"x_max":897,"o":"m 115 0 m 675 0 l 524 361 l 326 361 l 326 0 l 115 0 l 115 965 l 674 965 l 868 768 l 868 560 l 719 419 l 897 0 l 675 0 m 663 689 l 565 768 l 326 768 l 326 536 l 561 536 l 663 615 l 663 689 m 382 -274 l 382 -106 l 590 -106 l 590 -274 l 382 -274 z "},"ṛ":{"ha":699,"x_min":106,"x_max":646,"o":"m 106 0 m 106 0 l 106 735 l 301 735 l 301 646 l 425 735 l 646 735 l 646 554 l 426 554 l 315 483 l 315 0 l 106 0 m 108 -274 l 108 -106 l 317 -106 l 317 -274 l 108 -274 z "},"Ṣ":{"ha":975,"x_min":101,"x_max":875,"o":"m 101 0 m 276 0 l 101 183 l 101 322 l 297 322 l 297 247 l 389 174 l 583 174 l 674 249 l 674 346 l 592 410 l 281 410 l 101 557 l 101 781 l 276 965 l 682 965 l 860 781 l 860 642 l 664 642 l 664 715 l 571 792 l 393 792 l 301 717 l 301 626 l 386 563 l 694 563 l 875 421 l 875 183 l 699 0 l 276 0 m 382 -274 l 382 -106 l 590 -106 l 590 -274 l 382 -274 z "},"ṣ":{"ha":856,"x_min":81,"x_max":776,"o":"m 81 0 m 94 0 l 94 181 l 524 181 l 579 215 l 579 258 l 521 300 l 235 300 l 81 411 l 81 610 l 221 735 l 750 735 l 750 554 l 336 554 l 279 521 l 279 476 l 340 436 l 624 436 l 776 324 l 776 125 l 636 0 l 94 0 m 322 -274 l 322 -106 l 531 -106 l 531 -274 l 322 -274 z "},"Ṭ":{"ha":850,"x_min":54,"x_max":794,"o":"m 54 0 m 319 0 l 319 768 l 54 768 l 54 965 l 794 965 l 794 768 l 531 768 l 531 0 l 319 0 m 319 -274 l 319 -106 l 528 -106 l 528 -274 l 319 -274 z "},"ṭ":{"ha":692,"x_min":51,"x_max":611,"o":"m 51 0 m 385 554 l 385 210 l 439 172 l 611 172 l 611 0 l 319 0 l 178 125 l 178 554 l 51 554 l 51 735 l 178 735 l 178 942 l 385 942 l 385 735 l 611 735 l 611 554 l 385 554 m 271 -274 l 271 -106 l 479 -106 l 479 -274 l 271 -274 z "},"Ẁ":{"ha":1313,"x_min":51,"x_max":1261,"o":"m 51 0 m 800 0 l 653 638 l 508 0 l 213 0 l 51 965 l 261 965 l 375 281 l 526 965 l 786 965 l 939 281 l 1053 965 l 1261 965 l 1099 0 l 800 0 m 600 1000 l 439 1278 l 646 1278 l 775 1000 l 600 1000 z "},"ẁ":{"ha":1299,"x_min":35,"x_max":1264,"o":"m 35 0 m 796 0 l 644 499 l 497 0 l 210 0 l 35 735 l 250 735 l 367 231 l 521 735 l 776 735 l 932 231 l 1050 735 l 1264 735 l 1088 0 l 796 0 m 592 779 l 428 1093 l 636 1093 l 767 779 l 592 779 z "},"Ẃ":{"ha":1313,"x_min":51,"x_max":1261,"o":"m 51 0 m 800 0 l 653 638 l 508 0 l 213 0 l 51 965 l 261 965 l 375 281 l 526 965 l 786 965 l 939 281 l 1053 965 l 1261 965 l 1099 0 l 800 0 m 536 1000 l 667 1278 l 874 1278 l 711 1000 l 536 1000 z "},"ẃ":{"ha":1299,"x_min":35,"x_max":1264,"o":"m 35 0 m 796 0 l 644 499 l 497 0 l 210 0 l 35 735 l 250 735 l 367 231 l 521 735 l 776 735 l 932 231 l 1050 735 l 1264 735 l 1088 0 l 796 0 m 532 779 l 658 1093 l 864 1093 l 701 779 l 532 779 z "},"Ẅ":{"ha":1313,"x_min":51,"x_max":1261,"o":"m 51 0 m 800 0 l 653 638 l 508 0 l 213 0 l 51 965 l 261 965 l 375 281 l 526 965 l 786 965 l 939 281 l 1053 965 l 1261 965 l 1099 0 l 800 0 m 729 1046 l 729 1214 l 936 1214 l 936 1046 l 729 1046 m 374 1046 l 374 1214 l 582 1214 l 582 1046 l 374 1046 z "},"ẅ":{"ha":1299,"x_min":35,"x_max":1264,"o":"m 35 0 m 796 0 l 644 499 l 497 0 l 210 0 l 35 735 l 250 735 l 367 231 l 521 735 l 776 735 l 932 231 l 1050 735 l 1264 735 l 1088 0 l 796 0 m 722 835 l 722 1024 l 931 1024 l 931 835 l 722 835 m 365 835 l 365 1024 l 575 1024 l 575 835 l 365 835 z "},"Ẓ":{"ha":883,"x_min":65,"x_max":819,"o":"m 65 0 m 206 0 l 65 167 l 554 768 l 99 768 l 99 965 l 678 965 l 819 799 l 329 196 l 792 196 l 792 0 l 206 0 m 333 -274 l 333 -106 l 542 -106 l 542 -274 l 333 -274 z "},"ẓ":{"ha":819,"x_min":51,"x_max":772,"o":"m 51 0 m 181 0 l 51 131 l 483 554 l 83 554 l 83 735 l 646 735 l 772 603 l 340 181 l 760 181 l 760 0 l 181 0 m 310 -274 l 310 -106 l 518 -106 l 518 -274 l 310 -274 z "},"Ạ":{"ha":896,"x_min":46,"x_max":850,"o":"m 46 0 m 636 0 l 600 140 l 294 140 l 258 0 l 46 0 l 294 965 l 601 965 l 850 0 l 636 0 m 333 294 l 561 294 l 447 740 l 333 294 m 343 -274 l 343 -106 l 551 -106 l 551 -274 l 343 -274 z "},"ạ":{"ha":933,"x_min":81,"x_max":835,"o":"m 81 0 m 639 0 l 639 72 l 547 0 l 206 0 l 81 114 l 81 328 l 199 440 l 617 440 l 617 518 l 564 554 l 147 554 l 147 735 l 694 735 l 835 610 l 835 0 l 639 0 m 617 232 l 617 310 l 331 310 l 288 276 l 288 194 l 333 161 l 521 161 l 617 232 m 360 -274 l 360 -106 l 568 -106 l 568 -274 l 360 -274 z "},"Ả":{"ha":896,"x_min":46,"x_max":850,"o":"m 46 0 m 636 0 l 600 140 l 294 140 l 258 0 l 46 0 l 294 965 l 601 965 l 850 0 l 636 0 m 333 294 l 561 294 l 447 740 l 333 294 m 524 1042 l 501 1025 l 501 990 l 397 990 l 397 1076 l 463 1135 l 525 1135 l 557 1160 l 557 1204 l 524 1231 l 315 1231 l 315 1336 l 586 1336 l 675 1254 l 675 1113 l 600 1042 l 524 1042 z "},"ả":{"ha":933,"x_min":81,"x_max":835,"o":"m 81 0 m 639 0 l 639 72 l 547 0 l 206 0 l 81 114 l 81 328 l 199 440 l 617 440 l 617 518 l 564 554 l 147 554 l 147 735 l 694 735 l 835 610 l 835 0 l 639 0 m 617 232 l 617 310 l 331 310 l 288 276 l 288 194 l 333 161 l 521 161 l 617 232 m 535 829 l 513 813 l 513 778 l 408 778 l 408 864 l 474 922 l 536 922 l 568 947 l 568 992 l 535 1018 l 326 1018 l 326 1124 l 597 1124 l 686 1042 l 686 900 l 611 829 l 535 829 z "},"Ấ":{"ha":896,"x_min":46,"x_max":1029,"o":"m 46 0 m 636 0 l 600 140 l 294 140 l 258 0 l 46 0 l 294 965 l 601 965 l 850 0 l 636 0 m 333 294 l 561 294 l 447 740 l 333 294 m 583 1000 l 436 1171 l 292 1000 l 122 1000 l 315 1278 l 558 1278 l 750 1000 l 583 1000 m 692 1128 l 822 1406 l 1029 1406 l 867 1128 l 692 1128 z "},"ấ":{"ha":933,"x_min":81,"x_max":981,"o":"m 81 0 m 639 0 l 639 72 l 547 0 l 206 0 l 81 114 l 81 328 l 199 440 l 617 440 l 617 518 l 564 554 l 147 554 l 147 735 l 694 735 l 835 610 l 835 0 l 639 0 m 617 232 l 617 310 l 331 310 l 288 276 l 288 194 l 333 161 l 521 161 l 617 232 m 601 788 l 454 958 l 310 788 l 140 788 l 333 1065 l 576 1065 l 768 788 l 601 788 m 643 1000 l 774 1278 l 981 1278 l 818 1000 l 643 1000 z "},"Ầ":{"ha":896,"x_min":46,"x_max":914,"o":"m 46 0 m 636 0 l 600 140 l 294 140 l 258 0 l 46 0 l 294 965 l 601 965 l 850 0 l 636 0 m 333 294 l 561 294 l 447 740 l 333 294 m 583 1000 l 436 1171 l 292 1000 l 122 1000 l 315 1278 l 558 1278 l 750 1000 l 583 1000 m 739 1128 l 578 1406 l 785 1406 l 914 1128 l 739 1128 z "},"ầ":{"ha":933,"x_min":81,"x_max":864,"o":"m 81 0 m 639 0 l 639 72 l 547 0 l 206 0 l 81 114 l 81 328 l 199 440 l 617 440 l 617 518 l 564 554 l 147 554 l 147 735 l 694 735 l 835 610 l 835 0 l 639 0 m 617 232 l 617 310 l 331 310 l 288 276 l 288 194 l 333 161 l 521 161 l 617 232 m 600 788 l 453 958 l 308 788 l 139 788 l 332 1065 l 575 1065 l 767 788 l 600 788 m 689 1000 l 528 1278 l 735 1278 l 864 1000 l 689 1000 z "},"Ẩ":{"ha":896,"x_min":46,"x_max":989,"o":"m 46 0 m 636 0 l 600 140 l 294 140 l 258 0 l 46 0 l 294 965 l 601 965 l 850 0 l 636 0 m 333 294 l 561 294 l 447 740 l 333 294 m 583 1000 l 436 1171 l 292 1000 l 122 1000 l 315 1278 l 558 1278 l 750 1000 l 583 1000 m 838 1139 l 815 1122 l 815 1088 l 711 1088 l 711 1174 l 776 1232 l 839 1232 l 871 1257 l 871 1301 l 838 1328 l 629 1328 l 629 1433 l 900 1433 l 989 1351 l 989 1210 l 914 1139 l 838 1139 z "},"ẩ":{"ha":933,"x_min":81,"x_max":929,"o":"m 81 0 m 639 0 l 639 72 l 547 0 l 206 0 l 81 114 l 81 328 l 199 440 l 617 440 l 617 518 l 564 554 l 147 554 l 147 735 l 694 735 l 835 610 l 835 0 l 639 0 m 617 232 l 617 310 l 331 310 l 288 276 l 288 194 l 333 161 l 521 161 l 617 232 m 604 788 l 457 958 l 313 788 l 143 788 l 336 1065 l 579 1065 l 771 788 l 604 788 m 778 1042 l 756 1025 l 756 990 l 651 990 l 651 1076 l 717 1135 l 779 1135 l 811 1160 l 811 1204 l 778 1231 l 569 1231 l 569 1336 l 840 1336 l 929 1254 l 929 1113 l 854 1042 l 778 1042 z "},"Ẫ":{"ha":896,"x_min":46,"x_max":850,"o":"m 46 0 m 636 0 l 600 140 l 294 140 l 258 0 l 46 0 l 294 965 l 601 965 l 850 0 l 636 0 m 333 294 l 561 294 l 447 740 l 333 294 m 593 1000 l 446 1171 l 301 1000 l 132 1000 l 325 1278 l 568 1278 l 760 1000 l 593 1000 m 631 1289 l 301 1360 l 185 1296 l 97 1397 l 263 1493 l 592 1421 l 717 1490 l 793 1385 l 631 1289 z "},"ẫ":{"ha":933,"x_min":81,"x_max":835,"o":"m 81 0 m 639 0 l 639 72 l 547 0 l 206 0 l 81 114 l 81 328 l 199 440 l 617 440 l 617 518 l 564 554 l 147 554 l 147 735 l 694 735 l 835 610 l 835 0 l 639 0 m 617 232 l 617 310 l 331 310 l 288 276 l 288 194 l 333 161 l 521 161 l 617 232 m 615 779 l 468 950 l 324 779 l 154 779 l 347 1057 l 590 1057 l 782 779 l 615 779 m 656 1065 l 326 1136 l 210 1072 l 122 1174 l 288 1269 l 617 1197 l 742 1267 l 818 1161 l 656 1065 z "},"Ậ":{"ha":896,"x_min":46,"x_max":850,"o":"m 46 0 m 636 0 l 600 140 l 294 140 l 258 0 l 46 0 l 294 965 l 601 965 l 850 0 l 636 0 m 333 294 l 561 294 l 447 740 l 333 294 m 594 1000 l 447 1171 l 303 1000 l 133 1000 l 326 1278 l 569 1278 l 761 1000 l 594 1000 m 343 -274 l 343 -106 l 551 -106 l 551 -274 l 343 -274 z "},"ậ":{"ha":933,"x_min":81,"x_max":835,"o":"m 81 0 m 639 0 l 639 72 l 547 0 l 206 0 l 81 114 l 81 328 l 199 440 l 617 440 l 617 518 l 564 554 l 147 554 l 147 735 l 694 735 l 835 610 l 835 0 l 639 0 m 617 232 l 617 310 l 331 310 l 288 276 l 288 194 l 333 161 l 521 161 l 617 232 m 614 779 l 465 974 l 321 779 l 151 779 l 346 1093 l 588 1093 l 779 779 l 614 779 m 363 -274 l 363 -106 l 571 -106 l 571 -274 l 363 -274 z "},"Ắ":{"ha":896,"x_min":46,"x_max":850,"o":"m 46 0 m 636 0 l 600 140 l 294 140 l 258 0 l 46 0 l 294 965 l 601 965 l 850 0 l 636 0 m 333 294 l 561 294 l 447 740 l 333 294 m 626 994 l 265 994 l 150 1090 l 150 1264 l 296 1264 l 296 1158 l 339 1129 l 556 1129 l 597 1158 l 597 1264 l 746 1264 l 746 1090 l 626 994 m 358 1256 l 489 1533 l 696 1533 l 533 1256 l 358 1256 z "},"ắ":{"ha":933,"x_min":81,"x_max":835,"o":"m 81 0 m 639 0 l 639 72 l 547 0 l 206 0 l 81 114 l 81 328 l 199 440 l 617 440 l 617 518 l 564 554 l 147 554 l 147 735 l 694 735 l 835 610 l 835 0 l 639 0 m 617 232 l 617 310 l 331 310 l 288 276 l 288 194 l 333 161 l 521 161 l 617 232 m 642 782 l 281 782 l 165 878 l 165 1051 l 311 1051 l 311 946 l 354 917 l 571 917 l 613 946 l 613 1051 l 761 1051 l 761 878 l 642 782 m 372 1044 l 503 1322 l 710 1322 l 547 1044 l 372 1044 z "},"Ằ":{"ha":896,"x_min":46,"x_max":850,"o":"m 46 0 m 636 0 l 600 140 l 294 140 l 258 0 l 46 0 l 294 965 l 601 965 l 850 0 l 636 0 m 333 294 l 561 294 l 447 740 l 333 294 m 626 994 l 265 994 l 150 1090 l 150 1264 l 296 1264 l 296 1158 l 339 1129 l 556 1129 l 597 1158 l 597 1264 l 746 1264 l 746 1090 l 626 994 m 372 1256 l 211 1533 l 418 1533 l 547 1256 l 372 1256 z "},"ằ":{"ha":933,"x_min":81,"x_max":835,"o":"m 81 0 m 639 0 l 639 72 l 547 0 l 206 0 l 81 114 l 81 328 l 199 440 l 617 440 l 617 518 l 564 554 l 147 554 l 147 735 l 694 735 l 835 610 l 835 0 l 639 0 m 617 232 l 617 310 l 331 310 l 288 276 l 288 194 l 333 161 l 521 161 l 617 232 m 642 782 l 281 782 l 165 878 l 165 1051 l 311 1051 l 311 946 l 354 917 l 571 917 l 613 946 l 613 1051 l 761 1051 l 761 878 l 642 782 m 376 1044 l 215 1322 l 422 1322 l 551 1044 l 376 1044 z "},"Ẳ":{"ha":896,"x_min":46,"x_max":850,"o":"m 46 0 m 636 0 l 600 140 l 294 140 l 258 0 l 46 0 l 294 965 l 601 965 l 850 0 l 636 0 m 333 294 l 561 294 l 447 740 l 333 294 m 626 994 l 265 994 l 150 1090 l 150 1264 l 296 1264 l 296 1158 l 339 1129 l 556 1129 l 597 1158 l 597 1264 l 746 1264 l 746 1090 l 626 994 m 486 1269 l 464 1253 l 464 1218 l 360 1218 l 360 1304 l 425 1363 l 488 1363 l 519 1388 l 519 1432 l 486 1458 l 278 1458 l 278 1564 l 549 1564 l 638 1482 l 638 1340 l 563 1269 l 486 1269 z "},"ẳ":{"ha":933,"x_min":81,"x_max":835,"o":"m 81 0 m 639 0 l 639 72 l 547 0 l 206 0 l 81 114 l 81 328 l 199 440 l 617 440 l 617 518 l 564 554 l 147 554 l 147 735 l 694 735 l 835 610 l 835 0 l 639 0 m 617 232 l 617 310 l 331 310 l 288 276 l 288 194 l 333 161 l 521 161 l 617 232 m 644 782 l 283 782 l 168 878 l 168 1051 l 314 1051 l 314 946 l 357 917 l 574 917 l 615 946 l 615 1051 l 764 1051 l 764 878 l 644 782 m 526 1068 l 504 1051 l 504 1017 l 400 1017 l 400 1103 l 465 1161 l 528 1161 l 560 1186 l 560 1231 l 526 1257 l 318 1257 l 318 1363 l 589 1363 l 678 1281 l 678 1139 l 603 1068 l 526 1068 z "},"Ẵ":{"ha":896,"x_min":46,"x_max":850,"o":"m 46 0 m 636 0 l 600 140 l 294 140 l 258 0 l 46 0 l 294 965 l 601 965 l 850 0 l 636 0 m 333 294 l 561 294 l 447 740 l 333 294 m 626 1008 l 265 1008 l 150 1104 l 150 1278 l 296 1278 l 296 1172 l 339 1143 l 556 1143 l 597 1172 l 597 1278 l 746 1278 l 746 1104 l 626 1008 m 633 1317 l 304 1388 l 188 1324 l 100 1425 l 265 1521 l 594 1449 l 719 1518 l 796 1413 l 633 1317 z "},"ẵ":{"ha":933,"x_min":81,"x_max":835,"o":"m 81 0 m 639 0 l 639 72 l 547 0 l 206 0 l 81 114 l 81 328 l 199 440 l 617 440 l 617 518 l 564 554 l 147 554 l 147 735 l 694 735 l 835 610 l 835 0 l 639 0 m 617 232 l 617 310 l 331 310 l 288 276 l 288 194 l 333 161 l 521 161 l 617 232 m 642 782 l 281 782 l 165 878 l 165 1051 l 311 1051 l 311 946 l 354 917 l 571 917 l 613 946 l 613 1051 l 761 1051 l 761 878 l 642 782 m 650 1094 l 321 1165 l 204 1101 l 117 1203 l 282 1299 l 611 1226 l 736 1296 l 813 1190 l 650 1094 z "},"Ặ":{"ha":896,"x_min":46,"x_max":850,"o":"m 46 0 m 636 0 l 600 140 l 294 140 l 258 0 l 46 0 l 294 965 l 601 965 l 850 0 l 636 0 m 333 294 l 561 294 l 447 740 l 333 294 m 626 1008 l 265 1008 l 150 1104 l 150 1278 l 296 1278 l 296 1172 l 339 1143 l 556 1143 l 597 1172 l 597 1278 l 746 1278 l 746 1104 l 626 1008 m 343 -274 l 343 -106 l 551 -106 l 551 -274 l 343 -274 z "},"ặ":{"ha":933,"x_min":81,"x_max":835,"o":"m 81 0 m 639 0 l 639 72 l 547 0 l 206 0 l 81 114 l 81 328 l 199 440 l 617 440 l 617 518 l 564 554 l 147 554 l 147 735 l 694 735 l 835 610 l 835 0 l 639 0 m 617 232 l 617 310 l 331 310 l 288 276 l 288 194 l 333 161 l 521 161 l 617 232 m 282 794 l 167 903 l 167 1093 l 314 1093 l 314 979 l 357 946 l 571 946 l 615 979 l 615 1093 l 764 1093 l 764 903 l 644 794 l 282 794 m 363 -274 l 363 -106 l 571 -106 l 571 -274 l 363 -274 z "},"Ẹ":{"ha":849,"x_min":115,"x_max":767,"o":"m 115 0 m 115 0 l 115 965 l 767 965 l 767 768 l 326 768 l 326 578 l 606 578 l 606 413 l 326 413 l 326 196 l 767 196 l 767 0 l 115 0 m 343 -274 l 343 -106 l 551 -106 l 551 -274 l 343 -274 z "},"ẹ":{"ha":925,"x_min":92,"x_max":826,"o":"m 92 0 m 628 517 l 560 567 l 361 567 l 292 517 l 292 433 l 628 433 l 628 517 m 257 0 l 92 149 l 92 585 l 257 735 l 657 735 l 826 585 l 826 297 l 292 297 l 292 231 l 361 181 l 817 181 l 817 0 l 257 0 m 356 -274 l 356 -106 l 564 -106 l 564 -274 l 356 -274 z "},"Ẻ":{"ha":849,"x_min":115,"x_max":767,"o":"m 115 0 m 115 0 l 115 965 l 767 965 l 767 768 l 326 768 l 326 578 l 606 578 l 606 413 l 326 413 l 326 196 l 767 196 l 767 0 l 115 0 m 506 1042 l 483 1025 l 483 990 l 379 990 l 379 1076 l 444 1135 l 507 1135 l 539 1160 l 539 1204 l 506 1231 l 297 1231 l 297 1336 l 568 1336 l 657 1254 l 657 1113 l 582 1042 l 506 1042 z "},"ẻ":{"ha":925,"x_min":92,"x_max":826,"o":"m 92 0 m 628 517 l 560 567 l 361 567 l 292 517 l 292 433 l 628 433 l 628 517 m 257 0 l 92 149 l 92 585 l 257 735 l 657 735 l 826 585 l 826 297 l 292 297 l 292 231 l 361 181 l 817 181 l 817 0 l 257 0 m 539 829 l 517 813 l 517 778 l 413 778 l 413 864 l 478 922 l 540 922 l 572 947 l 572 992 l 539 1018 l 331 1018 l 331 1124 l 601 1124 l 690 1042 l 690 900 l 615 829 l 539 829 z "},"Ẽ":{"ha":849,"x_min":99,"x_max":794,"o":"m 99 0 m 115 0 l 115 965 l 767 965 l 767 768 l 326 768 l 326 578 l 606 578 l 606 413 l 326 413 l 326 196 l 767 196 l 767 0 l 115 0 m 632 1039 l 303 1110 l 186 1046 l 99 1147 l 264 1243 l 593 1171 l 718 1240 l 794 1135 l 632 1039 z "},"ẽ":{"ha":924,"x_min":92,"x_max":826,"o":"m 92 0 m 628 517 l 560 567 l 361 567 l 292 517 l 292 433 l 628 433 l 628 517 m 257 0 l 92 149 l 92 585 l 257 735 l 657 735 l 826 585 l 826 297 l 292 297 l 292 231 l 361 181 l 817 181 l 817 0 l 257 0 m 649 828 l 321 906 l 204 835 l 118 949 l 282 1054 l 611 975 l 735 1054 l 813 935 l 649 828 z "},"Ế":{"ha":849,"x_min":115,"x_max":1025,"o":"m 115 0 m 115 0 l 115 965 l 767 965 l 767 768 l 326 768 l 326 578 l 606 578 l 606 413 l 326 413 l 326 196 l 767 196 l 767 0 l 115 0 m 579 1000 l 432 1171 l 288 1000 l 118 1000 l 311 1278 l 554 1278 l 746 1000 l 579 1000 m 688 1128 l 818 1406 l 1025 1406 l 863 1128 l 688 1128 z "},"ế":{"ha":925,"x_min":92,"x_max":979,"o":"m 92 0 m 628 517 l 560 567 l 361 567 l 292 517 l 292 433 l 628 433 l 628 517 m 257 0 l 92 149 l 92 585 l 257 735 l 657 735 l 826 585 l 826 297 l 292 297 l 292 231 l 361 181 l 817 181 l 817 0 l 257 0 m 603 788 l 456 958 l 311 788 l 142 788 l 335 1065 l 578 1065 l 769 788 l 603 788 m 642 1000 l 772 1278 l 979 1278 l 817 1000 l 642 1000 z "},"Ề":{"ha":849,"x_min":115,"x_max":915,"o":"m 115 0 m 115 0 l 115 965 l 767 965 l 767 768 l 326 768 l 326 578 l 606 578 l 606 413 l 326 413 l 326 196 l 767 196 l 767 0 l 115 0 m 581 1000 l 433 1171 l 289 1000 l 119 1000 l 313 1278 l 556 1278 l 747 1000 l 581 1000 m 740 1128 l 579 1406 l 786 1406 l 915 1128 l 740 1128 z "},"ề":{"ha":925,"x_min":92,"x_max":858,"o":"m 92 0 m 628 517 l 560 567 l 361 567 l 292 517 l 292 433 l 628 433 l 628 517 m 257 0 l 92 149 l 92 585 l 257 735 l 657 735 l 826 585 l 826 297 l 292 297 l 292 231 l 361 181 l 817 181 l 817 0 l 257 0 m 599 788 l 451 958 l 307 788 l 138 788 l 331 1065 l 574 1065 l 765 788 l 599 788 m 683 1000 l 522 1278 l 729 1278 l 858 1000 l 683 1000 z "},"Ể":{"ha":849,"x_min":115,"x_max":992,"o":"m 115 0 m 115 0 l 115 965 l 767 965 l 767 768 l 326 768 l 326 578 l 606 578 l 606 413 l 326 413 l 326 196 l 767 196 l 767 0 l 115 0 m 582 1000 l 435 1171 l 290 1000 l 121 1000 l 314 1278 l 557 1278 l 749 1000 l 582 1000 m 840 1139 l 818 1122 l 818 1088 l 714 1088 l 714 1174 l 779 1232 l 842 1232 l 874 1257 l 874 1301 l 840 1328 l 632 1328 l 632 1433 l 903 1433 l 992 1351 l 992 1210 l 917 1139 l 840 1139 z "},"ể":{"ha":925,"x_min":92,"x_max":922,"o":"m 92 0 m 628 517 l 560 567 l 361 567 l 292 517 l 292 433 l 628 433 l 628 517 m 257 0 l 92 149 l 92 585 l 257 735 l 657 735 l 826 585 l 826 297 l 292 297 l 292 231 l 361 181 l 817 181 l 817 0 l 257 0 m 596 788 l 449 958 l 304 788 l 135 788 l 328 1065 l 571 1065 l 763 788 l 596 788 m 771 1042 l 749 1025 l 749 990 l 644 990 l 644 1076 l 710 1135 l 772 1135 l 804 1160 l 804 1204 l 771 1231 l 563 1231 l 563 1336 l 833 1336 l 922 1254 l 922 1113 l 847 1042 l 771 1042 z "},"Ễ":{"ha":849,"x_min":99,"x_max":794,"o":"m 99 0 m 115 0 l 115 965 l 767 965 l 767 768 l 326 768 l 326 578 l 606 578 l 606 413 l 326 413 l 326 196 l 767 196 l 767 0 l 115 0 m 593 1000 l 446 1171 l 301 1000 l 132 1000 l 325 1278 l 568 1278 l 760 1000 l 593 1000 m 632 1317 l 303 1388 l 186 1324 l 99 1425 l 264 1521 l 593 1449 l 718 1518 l 794 1413 l 632 1317 z "},"ễ":{"ha":925,"x_min":92,"x_max":826,"o":"m 92 0 m 628 517 l 560 567 l 361 567 l 292 517 l 292 433 l 628 433 l 628 517 m 257 0 l 92 149 l 92 585 l 257 735 l 657 735 l 826 585 l 826 297 l 292 297 l 292 231 l 361 181 l 817 181 l 817 0 l 257 0 m 617 779 l 469 950 l 325 779 l 156 779 l 349 1057 l 592 1057 l 783 779 l 617 779 m 656 1065 l 326 1136 l 210 1072 l 122 1174 l 288 1269 l 617 1197 l 742 1267 l 818 1161 l 656 1065 z "},"Ệ":{"ha":849,"x_min":115,"x_max":767,"o":"m 115 0 m 115 0 l 115 965 l 767 965 l 767 768 l 326 768 l 326 578 l 606 578 l 606 413 l 326 413 l 326 196 l 767 196 l 767 0 l 115 0 m 593 1000 l 446 1171 l 301 1000 l 132 1000 l 325 1278 l 568 1278 l 760 1000 l 593 1000 m 342 -274 l 342 -106 l 550 -106 l 550 -274 l 342 -274 z "},"ệ":{"ha":925,"x_min":92,"x_max":826,"o":"m 92 0 m 628 517 l 560 567 l 361 567 l 292 517 l 292 433 l 628 433 l 628 517 m 257 0 l 92 149 l 92 585 l 257 735 l 657 735 l 826 585 l 826 297 l 292 297 l 292 231 l 361 181 l 817 181 l 817 0 l 257 0 m 611 779 l 463 974 l 318 779 l 149 779 l 343 1093 l 585 1093 l 776 779 l 611 779 m 358 -274 l 358 -106 l 567 -106 l 567 -274 l 358 -274 z "},"Ỉ":{"ha":443,"x_min":83,"x_max":443,"o":"m 83 0 m 115 0 l 115 965 l 326 965 l 326 0 l 115 0 m 292 1042 l 269 1025 l 269 990 l 165 990 l 165 1076 l 231 1135 l 293 1135 l 325 1160 l 325 1204 l 292 1231 l 83 1231 l 83 1336 l 354 1336 l 443 1254 l 443 1113 l 368 1042 l 292 1042 z "},"ỉ":{"ha":440,"x_min":79,"x_max":439,"o":"m 79 0 m 106 0 l 106 735 l 315 735 l 315 0 l 106 0 m 288 829 l 265 813 l 265 778 l 161 778 l 161 864 l 226 922 l 289 922 l 321 947 l 321 992 l 288 1018 l 79 1018 l 79 1124 l 350 1124 l 439 1042 l 439 900 l 364 829 l 288 829 z "},"Ị":{"ha":443,"x_min":115,"x_max":326,"o":"m 115 0 m 115 0 l 115 965 l 326 965 l 326 0 l 115 0 m 117 -274 l 117 -106 l 325 -106 l 325 -274 l 117 -274 z "},"ị":{"ha":421,"x_min":106,"x_max":315,"o":"m 106 0 m 106 0 l 106 735 l 315 735 l 315 0 l 106 0 m 106 835 l 106 1024 l 315 1024 l 315 835 l 106 835 m 106 -274 l 106 -106 l 314 -106 l 314 -274 l 106 -274 z "},"Ọ":{"ha":979,"x_min":101,"x_max":879,"o":"m 101 0 m 285 0 l 101 197 l 101 768 l 294 965 l 685 965 l 879 768 l 879 197 l 693 0 l 285 0 m 672 275 l 672 692 l 576 768 l 404 768 l 307 692 l 307 275 l 401 196 l 579 196 l 672 275 m 385 -274 l 385 -106 l 593 -106 l 593 -274 l 385 -274 z "},"ọ":{"ha":929,"x_min":92,"x_max":839,"o":"m 92 0 m 257 0 l 92 149 l 92 585 l 257 735 l 672 735 l 839 585 l 839 149 l 672 0 l 257 0 m 628 240 l 628 494 l 563 543 l 367 543 l 297 494 l 297 240 l 367 190 l 563 190 l 628 240 m 361 -274 l 361 -106 l 569 -106 l 569 -274 l 361 -274 z "},"Ỏ":{"ha":979,"x_min":101,"x_max":879,"o":"m 101 0 m 285 0 l 101 197 l 101 768 l 294 965 l 685 965 l 879 768 l 879 197 l 693 0 l 285 0 m 672 275 l 672 692 l 576 768 l 404 768 l 307 692 l 307 275 l 401 196 l 579 196 l 672 275 m 568 1042 l 546 1025 l 546 990 l 442 990 l 442 1076 l 507 1135 l 569 1135 l 601 1160 l 601 1204 l 568 1231 l 360 1231 l 360 1336 l 631 1336 l 719 1254 l 719 1113 l 644 1042 l 568 1042 z "},"ỏ":{"ha":929,"x_min":92,"x_max":839,"o":"m 92 0 m 257 0 l 92 149 l 92 585 l 257 735 l 672 735 l 839 585 l 839 149 l 672 0 l 257 0 m 628 240 l 628 494 l 563 543 l 367 543 l 297 494 l 297 240 l 367 190 l 563 190 l 628 240 m 543 829 l 521 813 l 521 778 l 417 778 l 417 864 l 482 922 l 544 922 l 576 947 l 576 992 l 543 1018 l 335 1018 l 335 1124 l 606 1124 l 694 1042 l 694 900 l 619 829 l 543 829 z "},"Ố":{"ha":979,"x_min":101,"x_max":1069,"o":"m 101 0 m 285 0 l 101 197 l 101 768 l 294 965 l 685 965 l 879 768 l 879 197 l 693 0 l 285 0 m 672 275 l 672 692 l 576 768 l 404 768 l 307 692 l 307 275 l 401 196 l 579 196 l 672 275 m 628 1000 l 481 1171 l 336 1000 l 167 1000 l 360 1278 l 603 1278 l 794 1000 l 628 1000 m 732 1128 l 863 1406 l 1069 1406 l 907 1128 l 732 1128 z "},"ố":{"ha":929,"x_min":92,"x_max":981,"o":"m 92 0 m 257 0 l 92 149 l 92 585 l 257 735 l 672 735 l 839 585 l 839 149 l 672 0 l 257 0 m 628 240 l 628 494 l 563 543 l 367 543 l 297 494 l 297 240 l 367 190 l 563 190 l 628 240 m 603 788 l 456 958 l 311 788 l 142 788 l 335 1065 l 578 1065 l 769 788 l 603 788 m 643 1000 l 774 1278 l 981 1278 l 818 1000 l 643 1000 z "},"Ồ":{"ha":979,"x_min":101,"x_max":963,"o":"m 101 0 m 285 0 l 101 197 l 101 768 l 294 965 l 685 965 l 879 768 l 879 197 l 693 0 l 285 0 m 672 275 l 672 692 l 576 768 l 404 768 l 307 692 l 307 275 l 401 196 l 579 196 l 672 275 m 626 1000 l 479 1171 l 335 1000 l 165 1000 l 358 1278 l 601 1278 l 793 1000 l 626 1000 m 788 1128 l 626 1406 l 833 1406 l 963 1128 l 788 1128 z "},"ồ":{"ha":929,"x_min":92,"x_max":868,"o":"m 92 0 m 257 0 l 92 149 l 92 585 l 257 735 l 672 735 l 839 585 l 839 149 l 672 0 l 257 0 m 628 240 l 628 494 l 563 543 l 367 543 l 297 494 l 297 240 l 367 190 l 563 190 l 628 240 m 601 788 l 454 958 l 310 788 l 140 788 l 333 1065 l 576 1065 l 768 788 l 601 788 m 693 1000 l 532 1278 l 739 1278 l 868 1000 l 693 1000 z "},"Ổ":{"ha":979,"x_min":101,"x_max":1032,"o":"m 101 0 m 285 0 l 101 197 l 101 768 l 294 965 l 685 965 l 879 768 l 879 197 l 693 0 l 285 0 m 672 275 l 672 692 l 576 768 l 404 768 l 307 692 l 307 275 l 401 196 l 579 196 l 672 275 m 626 1000 l 479 1171 l 335 1000 l 165 1000 l 358 1278 l 601 1278 l 793 1000 l 626 1000 m 881 1139 l 858 1122 l 858 1088 l 754 1088 l 754 1174 l 819 1232 l 882 1232 l 914 1257 l 914 1301 l 881 1328 l 672 1328 l 672 1433 l 943 1433 l 1032 1351 l 1032 1210 l 957 1139 l 881 1139 z "},"ổ":{"ha":929,"x_min":92,"x_max":929,"o":"m 92 0 m 257 0 l 92 149 l 92 585 l 257 735 l 672 735 l 839 585 l 839 149 l 672 0 l 257 0 m 628 240 l 628 494 l 563 543 l 367 543 l 297 494 l 297 240 l 367 190 l 563 190 l 628 240 m 603 788 l 456 958 l 311 788 l 142 788 l 335 1065 l 578 1065 l 769 788 l 603 788 m 778 1042 l 756 1025 l 756 990 l 651 990 l 651 1076 l 717 1135 l 779 1135 l 811 1160 l 811 1204 l 778 1231 l 569 1231 l 569 1336 l 840 1336 l 929 1254 l 929 1113 l 854 1042 l 778 1042 z "},"Ỗ":{"ha":979,"x_min":101,"x_max":879,"o":"m 101 0 m 285 0 l 101 197 l 101 768 l 294 965 l 685 965 l 879 768 l 879 197 l 693 0 l 285 0 m 672 275 l 672 692 l 576 768 l 404 768 l 307 692 l 307 275 l 401 196 l 579 196 l 672 275 m 639 1000 l 492 1171 l 347 1000 l 178 1000 l 371 1278 l 614 1278 l 806 1000 l 639 1000 m 679 1289 l 350 1360 l 233 1296 l 146 1397 l 311 1493 l 640 1421 l 765 1490 l 842 1385 l 679 1289 z "},"ỗ":{"ha":929,"x_min":92,"x_max":839,"o":"m 92 0 m 257 0 l 92 149 l 92 585 l 257 735 l 672 735 l 839 585 l 839 149 l 672 0 l 257 0 m 628 240 l 628 494 l 563 543 l 367 543 l 297 494 l 297 240 l 367 190 l 563 190 l 628 240 m 611 779 l 464 950 l 319 779 l 150 779 l 343 1057 l 586 1057 l 778 779 l 611 779 m 650 1065 l 321 1136 l 204 1072 l 117 1174 l 282 1269 l 611 1197 l 736 1267 l 813 1161 l 650 1065 z "},"Ộ":{"ha":979,"x_min":101,"x_max":879,"o":"m 101 0 m 285 0 l 101 197 l 101 768 l 294 965 l 685 965 l 879 768 l 879 197 l 693 0 l 285 0 m 672 275 l 672 692 l 576 768 l 404 768 l 307 692 l 307 275 l 401 196 l 579 196 l 672 275 m 635 1000 l 488 1171 l 343 1000 l 174 1000 l 367 1278 l 610 1278 l 801 1000 l 635 1000 m 383 -274 l 383 -106 l 592 -106 l 592 -274 l 383 -274 z "},"ộ":{"ha":929,"x_min":92,"x_max":839,"o":"m 92 0 m 257 0 l 92 149 l 92 585 l 257 735 l 672 735 l 839 585 l 839 149 l 672 0 l 257 0 m 628 240 l 628 494 l 563 543 l 367 543 l 297 494 l 297 240 l 367 190 l 563 190 l 628 240 m 613 779 l 464 974 l 319 779 l 150 779 l 344 1093 l 586 1093 l 778 779 l 613 779 m 361 -274 l 361 -106 l 569 -106 l 569 -274 l 361 -274 z "},"Ớ":{"ha":1032,"x_min":101,"x_max":1032,"o":"m 101 0 m 788 854 l 879 768 l 879 197 l 693 0 l 285 0 l 101 197 l 101 768 l 294 965 l 828 965 l 871 1000 l 871 1164 l 1032 1164 l 1032 965 l 910 854 l 788 854 m 672 275 l 672 692 l 579 768 l 404 768 l 307 692 l 307 275 l 404 196 l 579 196 l 672 275 m 374 1000 l 504 1278 l 711 1278 l 549 1000 l 374 1000 z "},"ớ":{"ha":1047,"x_min":92,"x_max":1047,"o":"m 92 0 m 786 624 l 839 585 l 839 149 l 672 0 l 257 0 l 92 149 l 92 585 l 257 735 l 842 735 l 886 769 l 886 933 l 1047 933 l 1047 735 l 925 624 l 786 624 m 628 240 l 628 494 l 563 543 l 367 543 l 297 494 l 297 240 l 367 190 l 563 190 l 628 240 m 343 779 l 469 1093 l 675 1093 l 513 779 l 343 779 z "},"Ờ":{"ha":1032,"x_min":101,"x_max":1032,"o":"m 101 0 m 788 854 l 879 768 l 879 197 l 693 0 l 285 0 l 101 197 l 101 768 l 294 965 l 828 965 l 871 1000 l 871 1164 l 1032 1164 l 1032 965 l 910 854 l 788 854 m 672 275 l 672 692 l 579 768 l 404 768 l 307 692 l 307 275 l 404 196 l 579 196 l 672 275 m 439 1000 l 278 1278 l 485 1278 l 614 1000 l 439 1000 z "},"ờ":{"ha":1047,"x_min":92,"x_max":1047,"o":"m 92 0 m 786 624 l 839 585 l 839 149 l 672 0 l 257 0 l 92 149 l 92 585 l 257 735 l 842 735 l 886 769 l 886 933 l 1047 933 l 1047 735 l 925 624 l 786 624 m 628 240 l 628 494 l 563 543 l 367 543 l 297 494 l 297 240 l 367 190 l 563 190 l 628 240 m 411 779 l 247 1093 l 456 1093 l 586 779 l 411 779 z "},"Ở":{"ha":1032,"x_min":101,"x_max":1032,"o":"m 101 0 m 788 854 l 879 768 l 879 197 l 693 0 l 285 0 l 101 197 l 101 768 l 294 965 l 828 965 l 871 1000 l 871 1164 l 1032 1164 l 1032 965 l 910 854 l 788 854 m 672 275 l 672 692 l 579 768 l 404 768 l 307 692 l 307 275 l 404 196 l 579 196 l 672 275 m 569 1042 l 547 1025 l 547 990 l 443 990 l 443 1076 l 508 1135 l 571 1135 l 603 1160 l 603 1204 l 569 1231 l 361 1231 l 361 1336 l 632 1336 l 721 1254 l 721 1113 l 646 1042 l 569 1042 z "},"ở":{"ha":1047,"x_min":92,"x_max":1047,"o":"m 92 0 m 786 624 l 839 585 l 839 149 l 672 0 l 257 0 l 92 149 l 92 585 l 257 735 l 842 735 l 886 769 l 886 933 l 1047 933 l 1047 735 l 925 624 l 786 624 m 628 240 l 628 494 l 563 543 l 367 543 l 297 494 l 297 240 l 367 190 l 563 190 l 628 240 m 539 829 l 517 813 l 517 778 l 413 778 l 413 864 l 478 922 l 540 922 l 572 947 l 572 992 l 539 1018 l 331 1018 l 331 1124 l 601 1124 l 690 1042 l 690 900 l 615 829 l 539 829 z "},"Ỡ":{"ha":1032,"x_min":101,"x_max":1032,"o":"m 101 0 m 788 854 l 879 768 l 879 197 l 693 0 l 285 0 l 101 197 l 101 768 l 294 965 l 828 965 l 871 1000 l 871 1164 l 1032 1164 l 1032 965 l 910 854 l 788 854 m 672 275 l 672 692 l 579 768 l 404 768 l 307 692 l 307 275 l 404 196 l 579 196 l 672 275 m 656 1039 l 326 1110 l 210 1046 l 122 1147 l 288 1243 l 617 1171 l 742 1240 l 818 1135 l 656 1039 z "},"ỡ":{"ha":1047,"x_min":92,"x_max":1047,"o":"m 92 0 m 786 624 l 839 585 l 839 149 l 672 0 l 257 0 l 92 149 l 92 585 l 257 735 l 842 735 l 886 769 l 886 933 l 1047 933 l 1047 735 l 925 624 l 786 624 m 628 240 l 628 494 l 563 543 l 367 543 l 297 494 l 297 240 l 367 190 l 563 190 l 628 240 m 649 828 l 321 906 l 204 835 l 118 949 l 282 1054 l 611 975 l 735 1054 l 813 935 l 649 828 z "},"Ợ":{"ha":1032,"x_min":101,"x_max":1032,"o":"m 101 0 m 788 854 l 879 768 l 879 197 l 693 0 l 285 0 l 101 197 l 101 768 l 294 965 l 828 965 l 871 1000 l 871 1164 l 1032 1164 l 1032 965 l 910 854 l 788 854 m 672 275 l 672 692 l 579 768 l 404 768 l 307 692 l 307 275 l 404 196 l 579 196 l 672 275 m 390 -274 l 390 -106 l 599 -106 l 599 -274 l 390 -274 z "},"ợ":{"ha":1047,"x_min":92,"x_max":1047,"o":"m 92 0 m 786 624 l 839 585 l 839 149 l 672 0 l 257 0 l 92 149 l 92 585 l 257 735 l 842 735 l 886 769 l 886 933 l 1047 933 l 1047 735 l 925 624 l 786 624 m 628 240 l 628 494 l 563 543 l 367 543 l 297 494 l 297 240 l 367 190 l 563 190 l 628 240 m 361 -274 l 361 -106 l 569 -106 l 569 -274 l 361 -274 z "},"Ụ":{"ha":978,"x_min":107,"x_max":871,"o":"m 107 0 m 275 0 l 107 178 l 107 965 l 315 965 l 315 272 l 397 201 l 583 201 l 665 272 l 665 965 l 871 965 l 871 178 l 704 0 l 275 0 m 386 -274 l 386 -106 l 594 -106 l 594 -274 l 386 -274 z "},"ụ":{"ha":951,"x_min":100,"x_max":844,"o":"m 100 0 m 649 0 l 649 75 l 554 0 l 265 0 l 100 149 l 100 735 l 307 735 l 307 240 l 374 190 l 549 190 l 636 250 l 636 735 l 844 735 l 844 0 l 649 0 m 368 -274 l 368 -106 l 576 -106 l 576 -274 l 368 -274 z "},"Ủ":{"ha":978,"x_min":107,"x_max":871,"o":"m 107 0 m 275 0 l 107 178 l 107 965 l 315 965 l 315 272 l 397 201 l 583 201 l 665 272 l 665 965 l 871 965 l 871 178 l 704 0 l 275 0 m 568 1042 l 546 1025 l 546 990 l 442 990 l 442 1076 l 507 1135 l 569 1135 l 601 1160 l 601 1204 l 568 1231 l 360 1231 l 360 1336 l 631 1336 l 719 1254 l 719 1113 l 644 1042 l 568 1042 z "},"ủ":{"ha":951,"x_min":100,"x_max":844,"o":"m 100 0 m 649 0 l 649 75 l 554 0 l 265 0 l 100 149 l 100 735 l 307 735 l 307 240 l 374 190 l 549 190 l 636 250 l 636 735 l 844 735 l 844 0 l 649 0 m 549 829 l 526 813 l 526 778 l 422 778 l 422 864 l 488 922 l 550 922 l 582 947 l 582 992 l 549 1018 l 340 1018 l 340 1124 l 611 1124 l 700 1042 l 700 900 l 625 829 l 549 829 z "},"Ứ":{"ha":1135,"x_min":107,"x_max":1135,"o":"m 107 0 m 275 0 l 107 178 l 107 965 l 315 965 l 315 272 l 397 201 l 583 201 l 665 272 l 665 965 l 929 965 l 974 1000 l 974 1164 l 1135 1164 l 1135 965 l 1013 854 l 871 854 l 871 178 l 704 0 l 275 0 m 376 1000 l 507 1278 l 714 1278 l 551 1000 l 376 1000 z "},"ứ":{"ha":1110,"x_min":100,"x_max":1110,"o":"m 100 0 m 649 0 l 649 75 l 554 0 l 265 0 l 100 149 l 100 735 l 307 735 l 307 240 l 374 190 l 549 190 l 636 250 l 636 735 l 906 735 l 949 769 l 949 933 l 1110 933 l 1110 735 l 988 624 l 844 624 l 844 0 l 649 0 m 354 779 l 481 1093 l 686 1093 l 524 779 l 354 779 z "},"Ừ":{"ha":1135,"x_min":107,"x_max":1135,"o":"m 107 0 m 275 0 l 107 178 l 107 965 l 315 965 l 315 272 l 397 201 l 583 201 l 665 272 l 665 965 l 929 965 l 974 1000 l 974 1164 l 1135 1164 l 1135 965 l 1013 854 l 871 854 l 871 178 l 704 0 l 275 0 m 440 1000 l 279 1278 l 486 1278 l 615 1000 l 440 1000 z "},"ừ":{"ha":1110,"x_min":100,"x_max":1110,"o":"m 100 0 m 649 0 l 649 75 l 554 0 l 265 0 l 100 149 l 100 735 l 307 735 l 307 240 l 374 190 l 549 190 l 636 250 l 636 735 l 906 735 l 949 769 l 949 933 l 1110 933 l 1110 735 l 988 624 l 844 624 l 844 0 l 649 0 m 414 779 l 250 1093 l 458 1093 l 589 779 l 414 779 z "},"Ử":{"ha":1135,"x_min":107,"x_max":1135,"o":"m 107 0 m 275 0 l 107 178 l 107 965 l 315 965 l 315 272 l 397 201 l 583 201 l 665 272 l 665 965 l 929 965 l 974 1000 l 974 1164 l 1135 1164 l 1135 965 l 1013 854 l 871 854 l 871 178 l 704 0 l 275 0 m 565 1042 l 543 1025 l 543 990 l 439 990 l 439 1076 l 504 1135 l 567 1135 l 599 1160 l 599 1204 l 565 1231 l 357 1231 l 357 1336 l 628 1336 l 717 1254 l 717 1113 l 642 1042 l 565 1042 z "},"ử":{"ha":1110,"x_min":100,"x_max":1110,"o":"m 100 0 m 649 0 l 649 75 l 554 0 l 265 0 l 100 149 l 100 735 l 307 735 l 307 240 l 374 190 l 549 190 l 636 250 l 636 735 l 906 735 l 949 769 l 949 933 l 1110 933 l 1110 735 l 988 624 l 844 624 l 844 0 l 649 0 m 542 829 l 519 813 l 519 778 l 415 778 l 415 864 l 481 922 l 543 922 l 575 947 l 575 992 l 542 1018 l 333 1018 l 333 1124 l 604 1124 l 693 1042 l 693 900 l 618 829 l 542 829 z "},"Ữ":{"ha":1135,"x_min":107,"x_max":1135,"o":"m 107 0 m 275 0 l 107 178 l 107 965 l 315 965 l 315 272 l 397 201 l 583 201 l 665 272 l 665 965 l 929 965 l 974 1000 l 974 1164 l 1135 1164 l 1135 965 l 1013 854 l 871 854 l 871 178 l 704 0 l 275 0 m 681 1039 l 351 1110 l 235 1046 l 147 1147 l 313 1243 l 642 1171 l 767 1240 l 843 1135 l 681 1039 z "},"ữ":{"ha":1110,"x_min":100,"x_max":1110,"o":"m 100 0 m 649 0 l 649 75 l 554 0 l 265 0 l 100 149 l 100 735 l 307 735 l 307 240 l 374 190 l 549 190 l 636 250 l 636 735 l 906 735 l 949 769 l 949 933 l 1110 933 l 1110 735 l 988 624 l 844 624 l 844 0 l 649 0 m 657 828 l 329 906 l 213 835 l 126 949 l 290 1054 l 619 975 l 743 1054 l 821 935 l 657 828 z "},"Ự":{"ha":1135,"x_min":107,"x_max":1135,"o":"m 107 0 m 275 0 l 107 178 l 107 965 l 315 965 l 315 272 l 397 201 l 583 201 l 665 272 l 665 965 l 929 965 l 974 1000 l 974 1164 l 1135 1164 l 1135 965 l 1013 854 l 871 854 l 871 178 l 704 0 l 275 0 m 388 -274 l 388 -106 l 596 -106 l 596 -274 l 388 -274 z "},"ự":{"ha":1110,"x_min":100,"x_max":1110,"o":"m 100 0 m 649 0 l 649 75 l 554 0 l 265 0 l 100 149 l 100 735 l 307 735 l 307 240 l 374 190 l 549 190 l 636 250 l 636 735 l 906 735 l 949 769 l 949 933 l 1110 933 l 1110 735 l 988 624 l 844 624 l 844 0 l 649 0 m 367 -274 l 367 -106 l 575 -106 l 575 -274 l 367 -274 z "},"Ỳ":{"ha":925,"x_min":36,"x_max":888,"o":"m 36 0 m 364 0 l 364 431 l 36 965 l 267 965 l 464 651 l 658 965 l 888 965 l 575 433 l 575 0 l 364 0 m 408 1000 l 247 1278 l 454 1278 l 583 1000 l 408 1000 z "},"ỳ":{"ha":879,"x_min":36,"x_max":843,"o":"m 36 0 m 99 -235 l 99 -54 l 271 -54 l 329 -15 l 336 3 l 36 735 l 258 735 l 438 264 l 622 735 l 843 735 l 489 -110 l 350 -235 l 99 -235 m 385 779 l 221 1093 l 429 1093 l 560 779 l 385 779 z "},"Ỷ":{"ha":925,"x_min":36,"x_max":888,"o":"m 36 0 m 364 0 l 364 431 l 36 965 l 267 965 l 464 651 l 658 965 l 888 965 l 575 433 l 575 0 l 364 0 m 540 1042 l 518 1025 l 518 990 l 414 990 l 414 1076 l 479 1135 l 542 1135 l 574 1160 l 574 1204 l 540 1231 l 332 1231 l 332 1336 l 603 1336 l 692 1254 l 692 1113 l 617 1042 l 540 1042 z "},"ỷ":{"ha":879,"x_min":36,"x_max":843,"o":"m 36 0 m 99 -235 l 99 -54 l 271 -54 l 329 -15 l 336 3 l 36 735 l 258 735 l 438 264 l 622 735 l 843 735 l 489 -110 l 350 -235 l 99 -235 m 513 829 l 490 813 l 490 778 l 386 778 l 386 864 l 451 922 l 514 922 l 546 947 l 546 992 l 513 1018 l 304 1018 l 304 1124 l 575 1124 l 664 1042 l 664 900 l 589 829 l 513 829 z "},"–":{"ha":1028,"x_min":51,"x_max":976,"o":"m 51 372 l 51 551 l 976 551 l 976 372 l 51 372 z "},"—":{"ha":1429,"x_min":51,"x_max":1379,"o":"m 51 372 l 51 551 l 1379 551 l 1379 372 l 51 372 z "},"‘":{"ha":421,"x_min":106,"x_max":315,"o":"m 106 589 l 106 765 l 178 965 l 289 965 l 246 778 l 315 778 l 315 589 l 106 589 z "},"’":{"ha":421,"x_min":106,"x_max":315,"o":"m 106 589 m 135 589 l 174 776 l 106 776 l 106 965 l 315 965 l 315 789 l 246 589 l 135 589 z "},"‚":{"ha":421,"x_min":106,"x_max":315,"o":"m 106 0 m 135 -187 l 174 0 l 106 0 l 106 189 l 315 189 l 315 13 l 246 -187 l 135 -187 z "},"“":{"ha":728,"x_min":106,"x_max":622,"o":"m 106 589 m 106 589 l 106 765 l 178 965 l 289 965 l 246 778 l 315 778 l 315 589 l 106 589 m 413 589 l 413 765 l 485 965 l 596 965 l 553 778 l 622 778 l 622 589 l 413 589 z "},"”":{"ha":728,"x_min":106,"x_max":622,"o":"m 106 589 m 135 589 l 174 776 l 106 776 l 106 965 l 315 965 l 315 789 l 246 589 l 135 589 m 442 589 l 481 776 l 413 776 l 413 965 l 622 965 l 622 789 l 553 589 l 442 589 z "},"„":{"ha":728,"x_min":106,"x_max":622,"o":"m 106 0 m 135 -187 l 174 0 l 106 0 l 106 189 l 315 189 l 315 13 l 246 -187 l 135 -187 m 442 -187 l 481 0 l 413 0 l 413 189 l 622 189 l 622 13 l 553 -187 l 442 -187 z "},"†":{"ha":1028,"x_min":160,"x_max":869,"o":"m 447 -139 l 447 586 l 160 586 l 160 708 l 447 708 l 447 965 l 582 965 l 582 708 l 869 708 l 869 586 l 582 586 l 582 -139 l 447 -139 z "},"‡":{"ha":1028,"x_min":160,"x_max":869,"o":"m 447 -139 l 447 118 l 160 118 l 160 240 l 447 240 l 447 586 l 160 586 l 160 708 l 447 708 l 447 965 l 582 965 l 582 708 l 869 708 l 869 586 l 582 586 l 582 240 l 869 240 l 869 118 l 582 118 l 582 -139 l 447 -139 z "},"•":{"ha":596,"x_min":124,"x_max":471,"o":"m 199 319 l 124 393 l 124 567 l 199 639 l 393 639 l 471 567 l 471 393 l 394 319 l 199 319 z "},"…":{"ha":1240,"x_min":132,"x_max":1107,"o":"m 132 0 m 132 0 l 132 189 l 342 189 l 342 0 l 132 0 m 515 0 l 515 189 l 725 189 l 725 0 l 515 0 m 897 0 l 897 189 l 1107 189 l 1107 0 l 897 0 z "},"‰":{"ha":1396,"x_min":0,"x_max":1396,"o":"m 0 0 m 104 518 l 0 626 l 0 940 l 108 1049 l 322 1049 l 429 940 l 429 626 l 328 518 l 104 518 m 306 672 l 306 906 l 257 946 l 172 946 l 124 906 l 124 672 l 172 631 l 258 631 l 306 672 m 58 0 l 700 965 l 861 965 l 215 0 l 58 0 m 590 -83 l 486 25 l 486 339 l 594 447 l 808 447 l 915 339 l 915 25 l 814 -83 l 590 -83 m 792 71 l 792 304 l 743 344 l 658 344 l 610 304 l 610 71 l 658 29 l 744 29 l 792 71 m 1071 -83 l 967 25 l 967 339 l 1075 447 l 1289 447 l 1396 339 l 1396 25 l 1294 -83 l 1071 -83 m 1272 71 l 1272 304 l 1224 344 l 1139 344 l 1090 304 l 1090 71 l 1139 29 l 1225 29 l 1272 71 z "},"‹":{"ha":433,"x_min":46,"x_max":388,"o":"m 222 0 l 46 367 l 222 735 l 388 735 l 211 367 l 388 0 l 222 0 z "},"›":{"ha":433,"x_min":46,"x_max":388,"o":"m 46 0 l 222 367 l 46 735 l 208 735 l 388 367 l 208 0 l 46 0 z "},"⁄":{"ha":232,"x_min":-285,"x_max":518,"o":"m -285 0 l 357 965 l 518 965 l -128 0 l -285 0 z "},"⁰":{"ha":607,"x_min":89,"x_max":518,"o":"m 89 435 m 193 435 l 89 543 l 89 857 l 197 965 l 411 965 l 518 857 l 518 543 l 417 435 l 193 435 m 394 589 l 394 822 l 346 863 l 261 863 l 213 822 l 213 589 l 261 547 l 347 547 l 394 589 z "},"⁴":{"ha":593,"x_min":69,"x_max":531,"o":"m 69 435 m 342 435 l 342 546 l 69 546 l 69 642 l 342 965 l 465 965 l 465 642 l 531 642 l 531 546 l 465 546 l 465 435 l 342 435 m 342 792 l 204 642 l 342 642 l 342 792 z "},"⁵":{"ha":607,"x_min":94,"x_max":511,"o":"m 94 435 m 193 435 l 94 536 l 94 625 l 213 625 l 213 576 l 258 538 l 346 538 l 392 576 l 392 638 l 353 669 l 196 669 l 97 747 l 97 965 l 503 965 l 503 851 l 221 851 l 221 792 l 258 761 l 413 761 l 511 679 l 511 536 l 415 435 l 193 435 z "},"⁶":{"ha":610,"x_min":89,"x_max":519,"o":"m 89 435 m 186 435 l 89 536 l 89 864 l 190 965 l 408 965 l 514 857 l 514 781 l 394 781 l 394 825 l 349 863 l 256 863 l 213 826 l 213 743 l 422 743 l 519 647 l 519 531 l 428 435 l 186 435 m 400 568 l 400 618 l 357 651 l 213 651 l 213 571 l 256 535 l 361 535 l 400 568 z "},"⁷":{"ha":550,"x_min":81,"x_max":494,"o":"m 81 435 m 122 435 l 356 851 l 81 851 l 81 965 l 411 965 l 494 871 l 261 435 l 122 435 z "},"⁸":{"ha":624,"x_min":89,"x_max":533,"o":"m 89 435 m 197 435 l 89 543 l 89 646 l 154 714 l 94 775 l 94 857 l 201 965 l 421 965 l 529 857 l 529 775 l 468 714 l 533 646 l 533 543 l 426 435 l 197 435 m 411 629 l 367 665 l 256 665 l 213 629 l 213 586 l 261 546 l 361 546 l 411 586 l 411 629 m 406 789 l 406 824 l 358 863 l 265 863 l 217 824 l 217 789 l 260 751 l 363 751 l 406 789 z "},"⁹":{"ha":610,"x_min":89,"x_max":519,"o":"m 89 435 m 201 435 l 94 543 l 94 621 l 217 621 l 217 575 l 260 538 l 353 538 l 396 574 l 396 657 l 186 657 l 89 753 l 89 869 l 181 965 l 424 965 l 519 865 l 519 536 l 418 435 l 201 435 m 396 829 l 354 865 l 249 865 l 210 832 l 210 779 l 257 749 l 396 749 l 396 829 z "},"₀":{"ha":607,"x_min":89,"x_max":518,"o":"m 193 0 l 89 108 l 89 422 l 197 531 l 411 531 l 518 422 l 518 108 l 417 0 l 193 0 m 394 154 l 394 388 l 346 428 l 261 428 l 213 388 l 213 154 l 261 113 l 347 113 l 394 154 z "},"₁":{"ha":322,"x_min":97,"x_max":224,"o":"m 97 0 l 97 531 l 224 531 l 224 0 l 97 0 z "},"₂":{"ha":607,"x_min":94,"x_max":511,"o":"m 94 0 l 94 217 l 194 296 l 353 296 l 392 328 l 392 389 l 346 428 l 258 428 l 213 389 l 213 340 l 94 340 l 94 429 l 193 531 l 415 531 l 511 429 l 511 285 l 413 204 l 257 204 l 218 172 l 218 113 l 503 113 l 503 0 l 94 0 z "},"₃":{"ha":611,"x_min":88,"x_max":519,"o":"m 189 0 l 88 108 l 88 204 l 208 204 l 208 154 l 257 113 l 350 113 l 397 154 l 397 193 l 353 229 l 260 229 l 260 318 l 350 318 l 393 356 l 393 388 l 344 428 l 258 428 l 208 388 l 208 340 l 88 340 l 88 422 l 196 531 l 410 531 l 517 422 l 517 340 l 456 279 l 519 211 l 519 108 l 415 0 l 189 0 z "},"₄":{"ha":593,"x_min":69,"x_max":531,"o":"m 342 0 l 342 111 l 69 111 l 69 207 l 342 531 l 465 531 l 465 207 l 531 207 l 531 111 l 465 111 l 465 0 l 342 0 m 342 357 l 204 207 l 342 207 l 342 357 z "},"₅":{"ha":607,"x_min":94,"x_max":511,"o":"m 193 0 l 94 101 l 94 190 l 213 190 l 213 142 l 258 103 l 346 103 l 392 142 l 392 203 l 353 235 l 196 235 l 97 313 l 97 531 l 503 531 l 503 417 l 221 417 l 221 357 l 258 326 l 413 326 l 511 244 l 511 101 l 415 0 l 193 0 z "},"₆":{"ha":610,"x_min":89,"x_max":519,"o":"m 186 0 l 89 101 l 89 429 l 190 531 l 408 531 l 514 422 l 514 346 l 394 346 l 394 390 l 349 428 l 256 428 l 213 392 l 213 308 l 422 308 l 519 213 l 519 96 l 428 0 l 186 0 m 400 133 l 400 183 l 357 217 l 213 217 l 213 136 l 256 100 l 361 100 l 400 133 z "},"₇":{"ha":550,"x_min":81,"x_max":494,"o":"m 122 0 l 356 417 l 81 417 l 81 531 l 411 531 l 494 436 l 261 0 l 122 0 z "},"₈":{"ha":624,"x_min":89,"x_max":533,"o":"m 197 0 l 89 108 l 89 211 l 154 279 l 94 340 l 94 422 l 201 531 l 421 531 l 529 422 l 529 340 l 468 279 l 533 211 l 533 108 l 426 0 l 197 0 m 411 194 l 367 231 l 256 231 l 213 194 l 213 151 l 261 111 l 361 111 l 411 151 l 411 194 m 406 354 l 406 389 l 358 428 l 265 428 l 217 389 l 217 354 l 260 317 l 363 317 l 406 354 z "},"₉":{"ha":610,"x_min":89,"x_max":519,"o":"m 201 0 l 94 108 l 94 186 l 217 186 l 217 140 l 260 103 l 353 103 l 396 139 l 396 222 l 186 222 l 89 318 l 89 435 l 181 531 l 424 531 l 519 431 l 519 101 l 418 0 l 201 0 m 396 394 l 354 431 l 249 431 l 210 397 l 210 344 l 257 314 l 396 314 l 396 394 z "},"₩":{"ha":1321,"x_min":25,"x_max":1299,"o":"m 788 0 l 704 393 l 601 393 l 518 0 l 268 0 l 208 393 l 25 393 l 25 472 l 196 472 l 176 606 l 25 606 l 25 685 l 164 685 l 122 965 l 300 965 l 342 685 l 486 685 l 544 965 l 765 965 l 824 685 l 968 685 l 1011 965 l 1188 965 l 1144 685 l 1299 685 l 1299 606 l 1133 606 l 1113 472 l 1299 472 l 1299 393 l 1101 393 l 1042 0 l 788 0 m 867 472 l 936 472 l 956 606 l 840 606 l 867 472 m 375 472 l 443 472 l 469 606 l 354 606 l 375 472 m 618 472 l 688 472 l 660 606 l 646 606 l 618 472 m 907 281 l 924 393 l 883 393 l 907 281 m 404 281 l 426 393 l 386 393 l 404 281 z "},"₪":{"ha":1321,"x_min":115,"x_max":1206,"o":"m 731 265 l 731 642 l 681 683 l 285 683 l 285 0 l 115 0 l 115 836 l 769 836 l 900 714 l 900 265 l 731 265 m 554 0 l 422 122 l 422 571 l 592 571 l 592 194 l 642 153 l 1038 153 l 1038 836 l 1206 836 l 1206 0 l 554 0 z "},"₫":{"ha":828,"x_min":53,"x_max":792,"o":"m 558 169 l 558 231 l 475 169 l 218 169 l 75 293 l 75 544 l 218 671 l 464 671 l 549 607 l 549 749 l 183 749 l 183 868 l 549 868 l 549 965 l 719 965 l 719 868 l 792 868 l 792 749 l 719 749 l 719 169 l 558 169 m 53 0 l 53 118 l 751 118 l 751 0 l 53 0 m 549 374 l 549 465 l 469 515 l 307 515 l 246 471 l 246 367 l 307 324 l 469 324 l 549 374 z "},"€":{"ha":971,"x_min":64,"x_max":913,"o":"m 376 346 l 376 276 l 469 196 l 881 196 l 881 0 l 356 0 l 169 197 l 169 346 l 64 346 l 64 439 l 169 439 l 169 542 l 64 542 l 64 633 l 169 633 l 169 768 l 365 965 l 913 965 l 854 768 l 472 768 l 376 690 l 376 633 l 789 633 l 760 542 l 376 542 l 376 439 l 722 439 l 694 346 l 376 346 z "},"₭":{"ha":957,"x_min":18,"x_max":935,"o":"m 563 461 l 871 0 l 649 0 l 347 460 l 347 0 l 136 0 l 136 461 l 18 461 l 18 565 l 136 565 l 136 965 l 347 965 l 347 567 l 626 965 l 850 965 l 549 565 l 935 565 l 935 461 l 563 461 z "},"₮":{"ha":850,"x_min":54,"x_max":794,"o":"m 319 0 l 319 189 l 131 110 l 131 233 l 319 313 l 319 411 l 131 332 l 131 456 l 319 535 l 319 768 l 54 768 l 54 965 l 794 965 l 794 768 l 531 768 l 531 622 l 718 701 l 718 578 l 531 499 l 531 400 l 718 479 l 718 356 l 531 276 l 531 0 l 319 0 z "},"₱":{"ha":1035,"x_min":17,"x_max":982,"o":"m 868 490 l 868 439 l 663 240 l 346 240 l 346 0 l 135 0 l 135 490 l 17 490 l 17 551 l 135 551 l 135 650 l 22 650 l 22 711 l 135 711 l 135 965 l 674 965 l 868 768 l 868 711 l 982 711 l 982 650 l 868 650 l 868 551 l 976 551 l 976 490 l 868 490 m 346 551 l 663 551 l 663 650 l 346 650 l 346 551 m 663 490 l 346 490 l 346 411 l 565 411 l 663 489 l 663 490 m 346 711 l 649 711 l 565 779 l 346 779 l 346 711 z "},"₲":{"ha":976,"x_min":69,"x_max":908,"o":"m 69 -6 l 165 128 l 101 197 l 101 768 l 294 965 l 683 965 l 739 907 l 821 1024 l 908 971 l 597 531 l 876 531 l 876 186 l 701 0 l 286 0 l 236 53 l 156 -58 l 69 -6 m 307 293 l 625 744 l 582 783 l 400 783 l 307 706 l 307 293 m 489 378 l 371 208 l 400 185 l 596 185 l 685 257 l 685 378 l 489 378 z "},"₴":{"ha":975,"x_min":19,"x_max":961,"o":"m 326 365 l 301 346 l 301 249 l 393 174 l 588 174 l 681 247 l 681 289 l 875 289 l 875 183 l 700 0 l 278 0 l 100 183 l 100 365 l 19 365 l 19 436 l 119 436 l 253 540 l 19 540 l 19 610 l 654 610 l 676 626 l 676 717 l 583 792 l 406 792 l 314 715 l 314 675 l 117 675 l 117 781 l 294 965 l 700 965 l 875 781 l 875 610 l 961 610 l 961 540 l 854 540 l 729 436 l 961 436 l 961 365 l 326 365 z "},"₸":{"ha":868,"x_min":53,"x_max":817,"o":"m 329 0 l 329 472 l 53 472 l 53 653 l 817 653 l 817 472 l 538 472 l 538 0 l 329 0 m 53 786 l 53 965 l 817 965 l 817 786 l 53 786 z "},"₹":{"ha":921,"x_min":81,"x_max":850,"o":"m 510 0 l 340 339 l 497 504 l 497 593 l 81 593 l 81 701 l 468 701 l 326 858 l 81 858 l 81 965 l 850 965 l 850 858 l 551 858 l 689 701 l 850 701 l 850 593 l 703 593 l 703 449 l 567 321 l 732 0 l 510 0 z "},"₺":{"ha":936,"x_min":49,"x_max":861,"o":"m 343 453 l 343 196 l 558 196 l 656 276 l 656 357 l 861 357 l 861 197 l 674 0 l 131 0 l 131 364 l 49 331 l 49 456 l 131 489 l 131 586 l 49 553 l 49 678 l 131 711 l 131 965 l 343 965 l 343 800 l 638 924 l 638 799 l 343 675 l 343 578 l 638 701 l 638 576 l 343 453 z "},"₼":{"ha":1306,"x_min":101,"x_max":1204,"o":"m 758 965 l 758 657 l 1021 657 l 1204 460 l 1204 0 l 997 0 l 997 381 l 904 461 l 758 461 l 758 0 l 547 0 l 547 461 l 401 461 l 307 381 l 307 0 l 101 0 l 101 460 l 286 657 l 547 657 l 547 965 l 758 965 z "},"₽":{"ha":964,"x_min":32,"x_max":899,"o":"m 147 0 l 147 117 l 32 117 l 32 264 l 147 264 l 147 361 l 32 361 l 32 543 l 147 543 l 147 965 l 706 965 l 899 768 l 899 560 l 694 361 l 358 361 l 358 264 l 825 264 l 825 117 l 358 117 l 358 0 l 147 0 m 693 689 l 597 768 l 358 768 l 358 543 l 597 543 l 693 621 l 693 689 z "},"₾":{"ha":1047,"x_min":85,"x_max":994,"o":"m 449 547 l 449 768 l 417 768 l 319 690 l 319 419 l 531 194 l 531 0 l 85 0 l 85 196 l 342 196 l 111 432 l 111 768 l 308 965 l 449 965 l 449 1090 l 531 1090 l 531 965 l 607 965 l 607 1090 l 689 1090 l 689 965 l 801 965 l 994 768 l 994 547 l 818 547 l 818 690 l 721 768 l 689 768 l 689 547 l 607 547 l 607 768 l 531 768 l 531 547 l 449 547 z "},"№":{"ha":1513,"x_min":115,"x_max":1426,"o":"m 115 0 m 681 0 l 321 543 l 321 0 l 115 0 l 115 965 l 331 965 l 675 432 l 675 965 l 879 965 l 879 0 l 681 0 m 1101 435 l 997 543 l 997 857 l 1106 965 l 1319 965 l 1426 857 l 1426 543 l 1325 435 l 1101 435 m 1303 589 l 1303 822 l 1254 863 l 1169 863 l 1121 822 l 1121 589 l 1169 547 l 1256 547 l 1303 589 m 1108 136 l 1108 325 l 1318 325 l 1318 136 l 1108 136 z "},"℗":{"ha":1250,"x_min":101,"x_max":1151,"o":"m 410 193 l 410 774 l 756 774 l 875 656 l 875 517 l 749 397 l 535 397 l 535 193 l 410 193 m 753 610 l 690 660 l 535 660 l 535 504 l 690 504 l 753 553 l 753 610 m 285 0 l 101 197 l 101 768 l 294 965 l 956 965 l 1151 768 l 1151 197 l 964 0 l 285 0 m 1026 239 l 1026 725 l 896 850 l 354 850 l 224 725 l 224 239 l 346 114 l 904 114 l 1026 239 z "},"™":{"ha":1347,"x_min":42,"x_max":1253,"o":"m 206 381 l 206 844 l 42 844 l 42 965 l 500 965 l 500 844 l 338 844 l 338 381 l 206 381 m 1125 381 l 1125 710 l 974 381 l 872 381 l 719 710 l 719 381 l 590 381 l 590 965 l 747 965 l 922 564 l 1096 965 l 1253 965 l 1253 381 l 1125 381 z "},"⅓":{"ha":1165,"x_min":111,"x_max":1053,"o":"m 111 0 m 190 435 l 190 965 l 317 965 l 317 435 l 190 435 m 111 0 l 753 965 l 914 965 l 268 0 l 111 0 m 722 0 l 621 108 l 621 204 l 742 204 l 742 154 l 790 113 l 883 113 l 931 154 l 931 193 l 886 229 l 793 229 l 793 318 l 883 318 l 926 356 l 926 388 l 878 428 l 792 428 l 742 388 l 742 340 l 621 340 l 621 422 l 729 531 l 943 531 l 1050 422 l 1050 340 l 989 279 l 1053 211 l 1053 108 l 949 0 l 722 0 z "},"⅔":{"ha":1165,"x_min":19,"x_max":1143,"o":"m 19 0 m 19 435 l 19 651 l 119 731 l 278 731 l 317 763 l 317 824 l 271 863 l 183 863 l 138 824 l 138 775 l 19 775 l 19 864 l 118 965 l 340 965 l 436 864 l 436 719 l 338 639 l 182 639 l 143 607 l 143 547 l 428 547 l 428 435 l 19 435 m 203 0 l 844 965 l 1006 965 l 360 0 l 203 0 m 813 0 l 711 108 l 711 204 l 832 204 l 832 154 l 881 113 l 974 113 l 1021 154 l 1021 193 l 976 229 l 883 229 l 883 318 l 974 318 l 1017 356 l 1017 388 l 968 428 l 882 428 l 832 388 l 832 340 l 711 340 l 711 422 l 819 531 l 1033 531 l 1140 422 l 1140 340 l 1079 279 l 1143 211 l 1143 108 l 1039 0 l 813 0 z "},"⅕":{"ha":1165,"x_min":92,"x_max":1072,"o":"m 92 0 m 171 435 l 171 965 l 297 965 l 297 435 l 171 435 m 92 0 l 733 965 l 894 965 l 249 0 l 92 0 m 754 0 l 656 101 l 656 190 l 774 190 l 774 142 l 819 103 l 907 103 l 953 142 l 953 203 l 914 235 l 757 235 l 658 313 l 658 531 l 1064 531 l 1064 417 l 782 417 l 782 357 l 819 326 l 974 326 l 1072 244 l 1072 101 l 976 0 l 754 0 z "},"⅖":{"ha":1165,"x_min":3,"x_max":1161,"o":"m 3 0 m 3 435 l 3 651 l 103 731 l 261 731 l 300 763 l 300 824 l 254 863 l 167 863 l 121 824 l 121 775 l 3 775 l 3 864 l 101 965 l 324 965 l 419 864 l 419 719 l 321 639 l 165 639 l 126 607 l 126 547 l 411 547 l 411 435 l 3 435 m 182 0 l 824 965 l 985 965 l 339 0 l 182 0 m 843 0 l 744 101 l 744 190 l 863 190 l 863 142 l 908 103 l 996 103 l 1042 142 l 1042 203 l 1003 235 l 846 235 l 747 313 l 747 531 l 1153 531 l 1153 417 l 871 417 l 871 357 l 908 326 l 1063 326 l 1161 244 l 1161 101 l 1065 0 l 843 0 z "},"⅗":{"ha":1165,"x_min":18,"x_max":1144,"o":"m 18 0 m 119 435 l 18 543 l 18 639 l 139 639 l 139 589 l 188 547 l 281 547 l 328 589 l 328 628 l 283 664 l 190 664 l 190 753 l 281 753 l 324 790 l 324 822 l 275 863 l 189 863 l 139 822 l 139 775 l 18 775 l 18 857 l 126 965 l 340 965 l 447 857 l 447 775 l 386 714 l 450 646 l 450 543 l 346 435 l 119 435 m 163 0 l 804 965 l 965 965 l 319 0 l 163 0 m 826 0 l 728 101 l 728 190 l 846 190 l 846 142 l 892 103 l 979 103 l 1025 142 l 1025 203 l 986 235 l 829 235 l 731 313 l 731 531 l 1136 531 l 1136 417 l 854 417 l 854 357 l 892 326 l 1046 326 l 1144 244 l 1144 101 l 1049 0 l 826 0 z "},"⅘":{"ha":1165,"x_min":-6,"x_max":1169,"o":"m 0 0 m 267 435 l 267 546 l -6 546 l -6 642 l 267 965 l 390 965 l 390 642 l 456 642 l 456 546 l 390 546 l 390 435 l 267 435 m 267 792 l 129 642 l 267 642 l 267 792 m 189 0 l 831 965 l 992 965 l 346 0 l 189 0 m 851 0 l 753 101 l 753 190 l 871 190 l 871 142 l 917 103 l 1004 103 l 1050 142 l 1050 203 l 1011 235 l 854 235 l 756 313 l 756 531 l 1161 531 l 1161 417 l 879 417 l 879 357 l 917 326 l 1071 326 l 1169 244 l 1169 101 l 1074 0 l 851 0 z "},"⅙":{"ha":1165,"x_min":111,"x_max":1053,"o":"m 111 0 m 190 435 l 190 965 l 317 965 l 317 435 l 190 435 m 111 0 l 753 965 l 914 965 l 268 0 l 111 0 m 719 0 l 622 101 l 622 429 l 724 531 l 942 531 l 1047 422 l 1047 346 l 928 346 l 928 390 l 882 428 l 789 428 l 746 392 l 746 308 l 956 308 l 1053 213 l 1053 96 l 961 0 l 719 0 m 933 133 l 933 183 l 890 217 l 746 217 l 746 136 l 789 100 l 894 100 l 933 133 z "},"⅚":{"ha":1165,"x_min":44,"x_max":1118,"o":"m 44 0 m 143 435 l 44 536 l 44 625 l 163 625 l 163 576 l 208 538 l 296 538 l 342 576 l 342 638 l 303 669 l 146 669 l 47 747 l 47 965 l 453 965 l 453 851 l 171 851 l 171 792 l 208 761 l 363 761 l 461 679 l 461 536 l 365 435 l 143 435 m 178 0 l 819 965 l 981 965 l 335 0 l 178 0 m 785 0 l 688 101 l 688 429 l 789 531 l 1007 531 l 1113 422 l 1113 346 l 993 346 l 993 390 l 947 428 l 854 428 l 811 392 l 811 308 l 1021 308 l 1118 213 l 1118 96 l 1026 0 l 785 0 m 999 133 l 999 183 l 956 217 l 811 217 l 811 136 l 854 100 l 960 100 l 999 133 z "},"⅛":{"ha":1165,"x_min":104,"x_max":1058,"o":"m 104 0 m 182 435 l 182 965 l 308 965 l 308 435 l 182 435 m 104 0 l 746 965 l 907 965 l 261 0 l 104 0 m 722 0 l 614 108 l 614 211 l 679 279 l 619 340 l 619 422 l 726 531 l 946 531 l 1054 422 l 1054 340 l 993 279 l 1058 211 l 1058 108 l 951 0 l 722 0 m 936 194 l 892 231 l 781 231 l 738 194 l 738 151 l 786 111 l 886 111 l 936 151 l 936 194 m 931 354 l 931 389 l 883 428 l 790 428 l 742 389 l 742 354 l 785 317 l 888 317 l 931 354 z "},"⅜":{"ha":1165,"x_min":32,"x_max":1131,"o":"m 32 0 m 133 435 l 32 543 l 32 639 l 153 639 l 153 589 l 201 547 l 294 547 l 342 589 l 342 628 l 297 664 l 204 664 l 204 753 l 294 753 l 338 790 l 338 822 l 289 863 l 203 863 l 153 822 l 153 775 l 32 775 l 32 857 l 140 965 l 354 965 l 461 857 l 461 775 l 400 714 l 464 646 l 464 543 l 360 435 l 133 435 m 175 0 l 817 965 l 978 965 l 332 0 l 175 0 m 794 0 l 686 108 l 686 211 l 751 279 l 692 340 l 692 422 l 799 531 l 1018 531 l 1126 422 l 1126 340 l 1065 279 l 1131 211 l 1131 108 l 1024 0 l 794 0 m 1008 194 l 964 231 l 853 231 l 810 194 l 810 151 l 858 111 l 958 111 l 1008 151 l 1008 194 m 1003 354 l 1003 389 l 956 428 l 863 428 l 814 389 l 814 354 l 857 317 l 960 317 l 1003 354 z "},"⅝":{"ha":1165,"x_min":38,"x_max":1125,"o":"m 38 0 m 136 435 l 38 536 l 38 625 l 156 625 l 156 576 l 201 538 l 289 538 l 335 576 l 335 638 l 296 669 l 139 669 l 40 747 l 40 965 l 446 965 l 446 851 l 164 851 l 164 792 l 201 761 l 356 761 l 454 679 l 454 536 l 358 435 l 136 435 m 171 0 l 813 965 l 974 965 l 328 0 l 171 0 m 789 0 l 681 108 l 681 211 l 746 279 l 686 340 l 686 422 l 793 531 l 1013 531 l 1121 422 l 1121 340 l 1060 279 l 1125 211 l 1125 108 l 1018 0 l 789 0 m 1003 194 l 958 231 l 847 231 l 804 194 l 804 151 l 853 111 l 953 111 l 1003 151 l 1003 194 m 997 354 l 997 389 l 950 428 l 857 428 l 808 389 l 808 354 l 851 317 l 954 317 l 997 354 z "},"⅞":{"ha":1165,"x_min":85,"x_max":1079,"o":"m 85 0 m 126 435 l 360 851 l 85 851 l 85 965 l 415 965 l 499 871 l 265 435 l 126 435 m 125 0 l 767 965 l 928 965 l 282 0 l 125 0 m 743 0 l 635 108 l 635 211 l 700 279 l 640 340 l 640 422 l 747 531 l 967 531 l 1075 422 l 1075 340 l 1014 279 l 1079 211 l 1079 108 l 972 0 l 743 0 m 957 194 l 913 231 l 801 231 l 758 194 l 758 151 l 807 111 l 907 111 l 957 151 l 957 194 m 951 354 l 951 389 l 904 428 l 811 428 l 763 389 l 763 354 l 806 317 l 908 317 l 951 354 z "},"∂":{"ha":1028,"x_min":63,"x_max":967,"o":"m 235 0 l 63 169 l 63 433 l 235 601 l 833 601 l 833 757 l 729 851 l 238 851 l 238 965 l 793 965 l 967 794 l 967 169 l 793 0 l 235 0 m 833 208 l 833 488 l 299 488 l 194 394 l 194 208 l 299 114 l 729 114 l 833 208 z "},"∏":{"ha":978,"x_min":115,"x_max":863,"o":"m 115 0 m 653 0 l 653 768 l 326 768 l 326 0 l 115 0 l 115 965 l 863 965 l 863 0 l 653 0 z "},"∑":{"ha":864,"x_min":61,"x_max":782,"o":"m 61 0 m 203 0 l 61 167 l 325 482 l 61 799 l 203 965 l 782 965 l 782 768 l 328 768 l 565 493 l 315 196 l 782 196 l 782 0 l 203 0 z "},"−":{"ha":1028,"x_min":63,"x_max":967,"o":"m 63 410 l 63 554 l 967 554 l 967 410 l 63 410 z "},"√":{"ha":1028,"x_min":56,"x_max":990,"o":"m 450 0 l 325 314 l 56 314 l 56 457 l 444 457 l 543 203 l 822 965 l 990 965 l 636 0 l 450 0 z "},"∞":{"ha":1175,"x_min":63,"x_max":1111,"o":"m 749 246 l 588 390 l 424 246 l 235 246 l 63 414 l 63 547 l 235 717 l 424 717 l 588 571 l 749 717 l 939 717 l 1111 547 l 1111 414 l 939 246 l 749 246 m 978 453 l 978 508 l 876 603 l 786 603 l 649 481 l 786 360 l 874 360 l 978 453 m 521 481 l 388 603 l 299 603 l 194 508 l 194 453 l 299 360 l 388 360 l 521 481 z "},"∫":{"ha":1026,"x_min":39,"x_max":988,"o":"m 39 -333 l 39 -189 l 333 -189 l 435 -110 l 435 1076 l 639 1260 l 988 1260 l 988 1115 l 692 1115 l 592 1035 l 592 -150 l 386 -333 l 39 -333 z "},"≈":{"ha":1028,"x_min":63,"x_max":967,"o":"m 63 197 m 817 508 l 639 508 l 383 635 l 232 635 l 63 526 l 63 675 l 215 781 l 390 781 l 646 653 l 796 653 l 967 763 l 967 614 l 817 508 m 817 197 l 639 197 l 383 324 l 232 324 l 63 215 l 63 364 l 215 469 l 390 469 l 646 342 l 796 342 l 967 451 l 967 303 l 817 197 z "},"≠":{"ha":1028,"x_min":63,"x_max":967,"o":"m 113 0 l 267 232 l 63 232 l 63 378 l 364 378 l 501 586 l 63 586 l 63 731 l 597 731 l 754 965 l 915 965 l 758 731 l 967 731 l 967 586 l 661 586 l 522 378 l 967 378 l 967 232 l 425 232 l 271 0 l 113 0 z "},"≤":{"ha":1028,"x_min":63,"x_max":967,"o":"m 63 13 m 63 482 l 63 651 l 967 881 l 967 726 l 275 565 l 967 408 l 967 253 l 63 482 m 63 13 l 63 157 l 967 157 l 967 13 l 63 13 z "},"≥":{"ha":1028,"x_min":61,"x_max":967,"o":"m 61 13 m 63 13 l 63 157 l 967 157 l 967 13 l 63 13 m 965 651 l 965 482 l 61 253 l 61 407 l 754 568 l 61 725 l 61 881 l 965 651 z "},"◊":{"ha":1028,"x_min":69,"x_max":961,"o":"m 424 0 l 69 483 l 424 965 l 607 965 l 961 483 l 607 0 l 424 0 m 775 483 l 515 817 l 254 483 l 515 147 l 775 483 z "}}}
